%TF.GenerationSoftware,KiCad,Pcbnew,(5.1.7-0-10_14)*%
%TF.CreationDate,2021-01-17T18:02:15+01:00*%
%TF.ProjectId,CP-PP-miniEVsimulator,43502d50-502d-46d6-996e-69455673696d,rev?*%
%TF.SameCoordinates,Original*%
%TF.FileFunction,Legend,Top*%
%TF.FilePolarity,Positive*%
%FSLAX46Y46*%
G04 Gerber Fmt 4.6, Leading zero omitted, Abs format (unit mm)*
G04 Created by KiCad (PCBNEW (5.1.7-0-10_14)) date 2021-01-17 18:02:15*
%MOMM*%
%LPD*%
G01*
G04 APERTURE LIST*
%ADD10C,0.100000*%
%ADD11C,0.150000*%
%ADD12C,0.120000*%
G04 APERTURE END LIST*
D10*
X156845000Y-145923000D02*
X157226000Y-142430500D01*
X92409857Y-144301404D02*
X92409857Y-143501404D01*
X92409857Y-143806166D02*
X92467000Y-143768071D01*
X92581285Y-143768071D01*
X92638428Y-143806166D01*
X92667000Y-143844261D01*
X92695571Y-143920452D01*
X92695571Y-144149023D01*
X92667000Y-144225214D01*
X92638428Y-144263309D01*
X92581285Y-144301404D01*
X92467000Y-144301404D01*
X92409857Y-144263309D01*
X92952714Y-144301404D02*
X92952714Y-143768071D01*
X92952714Y-143920452D02*
X92981285Y-143844261D01*
X93009857Y-143806166D01*
X93067000Y-143768071D01*
X93124142Y-143768071D01*
X93552714Y-144263309D02*
X93495571Y-144301404D01*
X93381285Y-144301404D01*
X93324142Y-144263309D01*
X93295571Y-144187119D01*
X93295571Y-143882357D01*
X93324142Y-143806166D01*
X93381285Y-143768071D01*
X93495571Y-143768071D01*
X93552714Y-143806166D01*
X93581285Y-143882357D01*
X93581285Y-143958547D01*
X93295571Y-144034738D01*
X94095571Y-144301404D02*
X94095571Y-143882357D01*
X94067000Y-143806166D01*
X94009857Y-143768071D01*
X93895571Y-143768071D01*
X93838428Y-143806166D01*
X94095571Y-144263309D02*
X94038428Y-144301404D01*
X93895571Y-144301404D01*
X93838428Y-144263309D01*
X93809857Y-144187119D01*
X93809857Y-144110928D01*
X93838428Y-144034738D01*
X93895571Y-143996642D01*
X94038428Y-143996642D01*
X94095571Y-143958547D01*
X94381285Y-144301404D02*
X94381285Y-143501404D01*
X94438428Y-143996642D02*
X94609857Y-144301404D01*
X94609857Y-143768071D02*
X94381285Y-144072833D01*
X94867000Y-143996642D02*
X95324142Y-143996642D01*
X95695571Y-144301404D02*
X95638428Y-144263309D01*
X95609857Y-144225214D01*
X95581285Y-144149023D01*
X95581285Y-143920452D01*
X95609857Y-143844261D01*
X95638428Y-143806166D01*
X95695571Y-143768071D01*
X95781285Y-143768071D01*
X95838428Y-143806166D01*
X95867000Y-143844261D01*
X95895571Y-143920452D01*
X95895571Y-144149023D01*
X95867000Y-144225214D01*
X95838428Y-144263309D01*
X95781285Y-144301404D01*
X95695571Y-144301404D01*
X96067000Y-143768071D02*
X96295571Y-143768071D01*
X96152714Y-144301404D02*
X96152714Y-143615690D01*
X96181285Y-143539500D01*
X96238428Y-143501404D01*
X96295571Y-143501404D01*
X96409857Y-143768071D02*
X96638428Y-143768071D01*
X96495571Y-144301404D02*
X96495571Y-143615690D01*
X96524142Y-143539500D01*
X96581285Y-143501404D01*
X96638428Y-143501404D01*
X92495571Y-145601404D02*
X92438428Y-145563309D01*
X92409857Y-145487119D01*
X92409857Y-144801404D01*
X92724142Y-145601404D02*
X92724142Y-145068071D01*
X92724142Y-144801404D02*
X92695571Y-144839500D01*
X92724142Y-144877595D01*
X92752714Y-144839500D01*
X92724142Y-144801404D01*
X92724142Y-144877595D01*
X93009857Y-145068071D02*
X93009857Y-145601404D01*
X93009857Y-145144261D02*
X93038428Y-145106166D01*
X93095571Y-145068071D01*
X93181285Y-145068071D01*
X93238428Y-145106166D01*
X93267000Y-145182357D01*
X93267000Y-145601404D01*
X93781285Y-145563309D02*
X93724142Y-145601404D01*
X93609857Y-145601404D01*
X93552714Y-145563309D01*
X93524142Y-145487119D01*
X93524142Y-145182357D01*
X93552714Y-145106166D01*
X93609857Y-145068071D01*
X93724142Y-145068071D01*
X93781285Y-145106166D01*
X93809857Y-145182357D01*
X93809857Y-145258547D01*
X93524142Y-145334738D01*
X94609857Y-145601404D02*
X94552714Y-145563309D01*
X94524142Y-145525214D01*
X94495571Y-145449023D01*
X94495571Y-145220452D01*
X94524142Y-145144261D01*
X94552714Y-145106166D01*
X94609857Y-145068071D01*
X94695571Y-145068071D01*
X94752714Y-145106166D01*
X94781285Y-145144261D01*
X94809857Y-145220452D01*
X94809857Y-145449023D01*
X94781285Y-145525214D01*
X94752714Y-145563309D01*
X94695571Y-145601404D01*
X94609857Y-145601404D01*
X95067000Y-145068071D02*
X95067000Y-145601404D01*
X95067000Y-145144261D02*
X95095571Y-145106166D01*
X95152714Y-145068071D01*
X95238428Y-145068071D01*
X95295571Y-145106166D01*
X95324142Y-145182357D01*
X95324142Y-145601404D01*
X95695571Y-145601404D02*
X95638428Y-145563309D01*
X95609857Y-145487119D01*
X95609857Y-144801404D01*
X95867000Y-145068071D02*
X96009857Y-145601404D01*
X96152714Y-145068071D02*
X96009857Y-145601404D01*
X95952714Y-145791880D01*
X95924142Y-145829976D01*
X95867000Y-145868071D01*
X97181285Y-145525214D02*
X97152714Y-145563309D01*
X97067000Y-145601404D01*
X97009857Y-145601404D01*
X96924142Y-145563309D01*
X96867000Y-145487119D01*
X96838428Y-145410928D01*
X96809857Y-145258547D01*
X96809857Y-145144261D01*
X96838428Y-144991880D01*
X96867000Y-144915690D01*
X96924142Y-144839500D01*
X97009857Y-144801404D01*
X97067000Y-144801404D01*
X97152714Y-144839500D01*
X97181285Y-144877595D01*
X97438428Y-145601404D02*
X97438428Y-144801404D01*
X97667000Y-144801404D01*
X97724142Y-144839500D01*
X97752714Y-144877595D01*
X97781285Y-144953785D01*
X97781285Y-145068071D01*
X97752714Y-145144261D01*
X97724142Y-145182357D01*
X97667000Y-145220452D01*
X97438428Y-145220452D01*
X93443571Y-131753809D02*
X93500714Y-131791904D01*
X93615000Y-131791904D01*
X93672142Y-131753809D01*
X93700714Y-131677619D01*
X93700714Y-131639523D01*
X93672142Y-131563333D01*
X93615000Y-131525238D01*
X93529285Y-131525238D01*
X93472142Y-131487142D01*
X93443571Y-131410952D01*
X93443571Y-131372857D01*
X93472142Y-131296666D01*
X93529285Y-131258571D01*
X93615000Y-131258571D01*
X93672142Y-131296666D01*
X93872142Y-131258571D02*
X94100714Y-131258571D01*
X93957857Y-130991904D02*
X93957857Y-131677619D01*
X93986428Y-131753809D01*
X94043571Y-131791904D01*
X94100714Y-131791904D01*
X94300714Y-131791904D02*
X94300714Y-131258571D01*
X94300714Y-131410952D02*
X94329285Y-131334761D01*
X94357857Y-131296666D01*
X94415000Y-131258571D01*
X94472142Y-131258571D01*
X94929285Y-131791904D02*
X94929285Y-131372857D01*
X94900714Y-131296666D01*
X94843571Y-131258571D01*
X94729285Y-131258571D01*
X94672142Y-131296666D01*
X94929285Y-131753809D02*
X94872142Y-131791904D01*
X94729285Y-131791904D01*
X94672142Y-131753809D01*
X94643571Y-131677619D01*
X94643571Y-131601428D01*
X94672142Y-131525238D01*
X94729285Y-131487142D01*
X94872142Y-131487142D01*
X94929285Y-131449047D01*
X95215000Y-131791904D02*
X95215000Y-131258571D01*
X95215000Y-130991904D02*
X95186428Y-131030000D01*
X95215000Y-131068095D01*
X95243571Y-131030000D01*
X95215000Y-130991904D01*
X95215000Y-131068095D01*
X95500714Y-131258571D02*
X95500714Y-131791904D01*
X95500714Y-131334761D02*
X95529285Y-131296666D01*
X95586428Y-131258571D01*
X95672142Y-131258571D01*
X95729285Y-131296666D01*
X95757857Y-131372857D01*
X95757857Y-131791904D01*
X93586428Y-133091904D02*
X93586428Y-132558571D01*
X93586428Y-132710952D02*
X93615000Y-132634761D01*
X93643571Y-132596666D01*
X93700714Y-132558571D01*
X93757857Y-132558571D01*
X94186428Y-133053809D02*
X94129285Y-133091904D01*
X94015000Y-133091904D01*
X93957857Y-133053809D01*
X93929285Y-132977619D01*
X93929285Y-132672857D01*
X93957857Y-132596666D01*
X94015000Y-132558571D01*
X94129285Y-132558571D01*
X94186428Y-132596666D01*
X94215000Y-132672857D01*
X94215000Y-132749047D01*
X93929285Y-132825238D01*
X94557857Y-133091904D02*
X94500714Y-133053809D01*
X94472142Y-132977619D01*
X94472142Y-132291904D01*
X94786428Y-133091904D02*
X94786428Y-132558571D01*
X94786428Y-132291904D02*
X94757857Y-132330000D01*
X94786428Y-132368095D01*
X94815000Y-132330000D01*
X94786428Y-132291904D01*
X94786428Y-132368095D01*
X95300714Y-133053809D02*
X95243571Y-133091904D01*
X95129285Y-133091904D01*
X95072142Y-133053809D01*
X95043571Y-132977619D01*
X95043571Y-132672857D01*
X95072142Y-132596666D01*
X95129285Y-132558571D01*
X95243571Y-132558571D01*
X95300714Y-132596666D01*
X95329285Y-132672857D01*
X95329285Y-132749047D01*
X95043571Y-132825238D01*
X95500714Y-132558571D02*
X95729285Y-132558571D01*
X95586428Y-133091904D02*
X95586428Y-132406190D01*
X95615000Y-132330000D01*
X95672142Y-132291904D01*
X95729285Y-132291904D01*
D11*
X157353000Y-135699500D02*
X156845000Y-133477000D01*
X92250000Y-128330000D02*
X94250000Y-128330000D01*
X92250000Y-128330000D02*
X92750000Y-128080000D01*
X92250000Y-128330000D02*
X92750000Y-128580000D01*
D10*
X156531571Y-142165000D02*
X157217285Y-142165000D01*
X157293476Y-142193571D01*
X157331571Y-142250714D01*
X157331571Y-142279285D01*
X156264904Y-142165000D02*
X156303000Y-142193571D01*
X156341095Y-142165000D01*
X156303000Y-142136428D01*
X156264904Y-142165000D01*
X156341095Y-142165000D01*
X157064904Y-141879285D02*
X156531571Y-141879285D01*
X156264904Y-141879285D02*
X156303000Y-141907857D01*
X156341095Y-141879285D01*
X156303000Y-141850714D01*
X156264904Y-141879285D01*
X156341095Y-141879285D01*
X156531571Y-141336428D02*
X157179190Y-141336428D01*
X157255380Y-141365000D01*
X157293476Y-141393571D01*
X157331571Y-141450714D01*
X157331571Y-141536428D01*
X157293476Y-141593571D01*
X157026809Y-141336428D02*
X157064904Y-141393571D01*
X157064904Y-141507857D01*
X157026809Y-141565000D01*
X156988714Y-141593571D01*
X156912523Y-141622142D01*
X156683952Y-141622142D01*
X156607761Y-141593571D01*
X156569666Y-141565000D01*
X156531571Y-141507857D01*
X156531571Y-141393571D01*
X156569666Y-141336428D01*
X156531571Y-140679285D02*
X156531571Y-140450714D01*
X157064904Y-140593571D02*
X156379190Y-140593571D01*
X156303000Y-140565000D01*
X156264904Y-140507857D01*
X156264904Y-140450714D01*
X157064904Y-140165000D02*
X157026809Y-140222142D01*
X156988714Y-140250714D01*
X156912523Y-140279285D01*
X156683952Y-140279285D01*
X156607761Y-140250714D01*
X156569666Y-140222142D01*
X156531571Y-140165000D01*
X156531571Y-140079285D01*
X156569666Y-140022142D01*
X156607761Y-139993571D01*
X156683952Y-139965000D01*
X156912523Y-139965000D01*
X156988714Y-139993571D01*
X157026809Y-140022142D01*
X157064904Y-140079285D01*
X157064904Y-140165000D01*
X157064904Y-139707857D02*
X156531571Y-139707857D01*
X156683952Y-139707857D02*
X156607761Y-139679285D01*
X156569666Y-139650714D01*
X156531571Y-139593571D01*
X156531571Y-139536428D01*
X157064904Y-138622142D02*
X156264904Y-138622142D01*
X157026809Y-138622142D02*
X157064904Y-138679285D01*
X157064904Y-138793571D01*
X157026809Y-138850714D01*
X156988714Y-138879285D01*
X156912523Y-138907857D01*
X156683952Y-138907857D01*
X156607761Y-138879285D01*
X156569666Y-138850714D01*
X156531571Y-138793571D01*
X156531571Y-138679285D01*
X156569666Y-138622142D01*
X157064904Y-138336428D02*
X156531571Y-138336428D01*
X156683952Y-138336428D02*
X156607761Y-138307857D01*
X156569666Y-138279285D01*
X156531571Y-138222142D01*
X156531571Y-138165000D01*
X157064904Y-137965000D02*
X156531571Y-137965000D01*
X156264904Y-137965000D02*
X156303000Y-137993571D01*
X156341095Y-137965000D01*
X156303000Y-137936428D01*
X156264904Y-137965000D01*
X156341095Y-137965000D01*
X157064904Y-137593571D02*
X157026809Y-137650714D01*
X156950619Y-137679285D01*
X156264904Y-137679285D01*
X157064904Y-137279285D02*
X157026809Y-137336428D01*
X156950619Y-137365000D01*
X156264904Y-137365000D01*
X157064904Y-137050714D02*
X156531571Y-137050714D01*
X156264904Y-137050714D02*
X156303000Y-137079285D01*
X156341095Y-137050714D01*
X156303000Y-137022142D01*
X156264904Y-137050714D01*
X156341095Y-137050714D01*
X156531571Y-136765000D02*
X157064904Y-136765000D01*
X156607761Y-136765000D02*
X156569666Y-136736428D01*
X156531571Y-136679285D01*
X156531571Y-136593571D01*
X156569666Y-136536428D01*
X156645857Y-136507857D01*
X157064904Y-136507857D01*
X156531571Y-135965000D02*
X157179190Y-135965000D01*
X157255380Y-135993571D01*
X157293476Y-136022142D01*
X157331571Y-136079285D01*
X157331571Y-136165000D01*
X157293476Y-136222142D01*
X157026809Y-135965000D02*
X157064904Y-136022142D01*
X157064904Y-136136428D01*
X157026809Y-136193571D01*
X156988714Y-136222142D01*
X156912523Y-136250714D01*
X156683952Y-136250714D01*
X156607761Y-136222142D01*
X156569666Y-136193571D01*
X156531571Y-136136428D01*
X156531571Y-136022142D01*
X156569666Y-135965000D01*
X158364904Y-142022142D02*
X157564904Y-142022142D01*
X158364904Y-141765000D02*
X157945857Y-141765000D01*
X157869666Y-141793571D01*
X157831571Y-141850714D01*
X157831571Y-141936428D01*
X157869666Y-141993571D01*
X157907761Y-142022142D01*
X158364904Y-141393571D02*
X158326809Y-141450714D01*
X158288714Y-141479285D01*
X158212523Y-141507857D01*
X157983952Y-141507857D01*
X157907761Y-141479285D01*
X157869666Y-141450714D01*
X157831571Y-141393571D01*
X157831571Y-141307857D01*
X157869666Y-141250714D01*
X157907761Y-141222142D01*
X157983952Y-141193571D01*
X158212523Y-141193571D01*
X158288714Y-141222142D01*
X158326809Y-141250714D01*
X158364904Y-141307857D01*
X158364904Y-141393571D01*
X158364904Y-140850714D02*
X158326809Y-140907857D01*
X158250619Y-140936428D01*
X157564904Y-140936428D01*
X158326809Y-140393571D02*
X158364904Y-140450714D01*
X158364904Y-140565000D01*
X158326809Y-140622142D01*
X158250619Y-140650714D01*
X157945857Y-140650714D01*
X157869666Y-140622142D01*
X157831571Y-140565000D01*
X157831571Y-140450714D01*
X157869666Y-140393571D01*
X157945857Y-140365000D01*
X158022047Y-140365000D01*
X158098238Y-140650714D01*
X158326809Y-140136428D02*
X158364904Y-140079285D01*
X158364904Y-139965000D01*
X158326809Y-139907857D01*
X158250619Y-139879285D01*
X158212523Y-139879285D01*
X158136333Y-139907857D01*
X158098238Y-139965000D01*
X158098238Y-140050714D01*
X158060142Y-140107857D01*
X157983952Y-140136428D01*
X157945857Y-140136428D01*
X157869666Y-140107857D01*
X157831571Y-140050714D01*
X157831571Y-139965000D01*
X157869666Y-139907857D01*
X158364904Y-139165000D02*
X157831571Y-139165000D01*
X157564904Y-139165000D02*
X157603000Y-139193571D01*
X157641095Y-139165000D01*
X157603000Y-139136428D01*
X157564904Y-139165000D01*
X157641095Y-139165000D01*
X157831571Y-138879285D02*
X158364904Y-138879285D01*
X157907761Y-138879285D02*
X157869666Y-138850714D01*
X157831571Y-138793571D01*
X157831571Y-138707857D01*
X157869666Y-138650714D01*
X157945857Y-138622142D01*
X158364904Y-138622142D01*
X158326809Y-137622142D02*
X158364904Y-137679285D01*
X158364904Y-137793571D01*
X158326809Y-137850714D01*
X158288714Y-137879285D01*
X158212523Y-137907857D01*
X157983952Y-137907857D01*
X157907761Y-137879285D01*
X157869666Y-137850714D01*
X157831571Y-137793571D01*
X157831571Y-137679285D01*
X157869666Y-137622142D01*
X158364904Y-137107857D02*
X157945857Y-137107857D01*
X157869666Y-137136428D01*
X157831571Y-137193571D01*
X157831571Y-137307857D01*
X157869666Y-137365000D01*
X158326809Y-137107857D02*
X158364904Y-137165000D01*
X158364904Y-137307857D01*
X158326809Y-137365000D01*
X158250619Y-137393571D01*
X158174428Y-137393571D01*
X158098238Y-137365000D01*
X158060142Y-137307857D01*
X158060142Y-137165000D01*
X158022047Y-137107857D01*
X158326809Y-136850714D02*
X158364904Y-136793571D01*
X158364904Y-136679285D01*
X158326809Y-136622142D01*
X158250619Y-136593571D01*
X158212523Y-136593571D01*
X158136333Y-136622142D01*
X158098238Y-136679285D01*
X158098238Y-136765000D01*
X158060142Y-136822142D01*
X157983952Y-136850714D01*
X157945857Y-136850714D01*
X157869666Y-136822142D01*
X157831571Y-136765000D01*
X157831571Y-136679285D01*
X157869666Y-136622142D01*
X158326809Y-136107857D02*
X158364904Y-136165000D01*
X158364904Y-136279285D01*
X158326809Y-136336428D01*
X158250619Y-136365000D01*
X157945857Y-136365000D01*
X157869666Y-136336428D01*
X157831571Y-136279285D01*
X157831571Y-136165000D01*
X157869666Y-136107857D01*
X157945857Y-136079285D01*
X158022047Y-136079285D01*
X158098238Y-136365000D01*
X148723309Y-138324452D02*
X148761404Y-138376833D01*
X148761404Y-138481595D01*
X148723309Y-138533976D01*
X148685214Y-138560166D01*
X148609023Y-138586357D01*
X148380452Y-138586357D01*
X148304261Y-138560166D01*
X148266166Y-138533976D01*
X148228071Y-138481595D01*
X148228071Y-138376833D01*
X148266166Y-138324452D01*
X148761404Y-137853023D02*
X148342357Y-137853023D01*
X148266166Y-137879214D01*
X148228071Y-137931595D01*
X148228071Y-138036357D01*
X148266166Y-138088738D01*
X148723309Y-137853023D02*
X148761404Y-137905404D01*
X148761404Y-138036357D01*
X148723309Y-138088738D01*
X148647119Y-138114928D01*
X148570928Y-138114928D01*
X148494738Y-138088738D01*
X148456642Y-138036357D01*
X148456642Y-137905404D01*
X148418547Y-137853023D01*
X148723309Y-137617309D02*
X148761404Y-137564928D01*
X148761404Y-137460166D01*
X148723309Y-137407785D01*
X148647119Y-137381595D01*
X148609023Y-137381595D01*
X148532833Y-137407785D01*
X148494738Y-137460166D01*
X148494738Y-137538738D01*
X148456642Y-137591119D01*
X148380452Y-137617309D01*
X148342357Y-137617309D01*
X148266166Y-137591119D01*
X148228071Y-137538738D01*
X148228071Y-137460166D01*
X148266166Y-137407785D01*
X148723309Y-136936357D02*
X148761404Y-136988738D01*
X148761404Y-137093500D01*
X148723309Y-137145880D01*
X148647119Y-137172071D01*
X148342357Y-137172071D01*
X148266166Y-137145880D01*
X148228071Y-137093500D01*
X148228071Y-136988738D01*
X148266166Y-136936357D01*
X148342357Y-136910166D01*
X148418547Y-136910166D01*
X148494738Y-137172071D01*
X148685214Y-136674452D02*
X148723309Y-136648261D01*
X148761404Y-136674452D01*
X148723309Y-136700642D01*
X148685214Y-136674452D01*
X148761404Y-136674452D01*
X148266166Y-136674452D02*
X148304261Y-136648261D01*
X148342357Y-136674452D01*
X148304261Y-136700642D01*
X148266166Y-136674452D01*
X148342357Y-136674452D01*
X148761404Y-135993500D02*
X147961404Y-135993500D01*
X148761404Y-135757785D02*
X148342357Y-135757785D01*
X148266166Y-135783976D01*
X148228071Y-135836357D01*
X148228071Y-135914928D01*
X148266166Y-135967309D01*
X148304261Y-135993500D01*
X148761404Y-135260166D02*
X148342357Y-135260166D01*
X148266166Y-135286357D01*
X148228071Y-135338738D01*
X148228071Y-135443500D01*
X148266166Y-135495880D01*
X148723309Y-135260166D02*
X148761404Y-135312547D01*
X148761404Y-135443500D01*
X148723309Y-135495880D01*
X148647119Y-135522071D01*
X148570928Y-135522071D01*
X148494738Y-135495880D01*
X148456642Y-135443500D01*
X148456642Y-135312547D01*
X148418547Y-135260166D01*
X148761404Y-134998261D02*
X148228071Y-134998261D01*
X148304261Y-134998261D02*
X148266166Y-134972071D01*
X148228071Y-134919690D01*
X148228071Y-134841119D01*
X148266166Y-134788738D01*
X148342357Y-134762547D01*
X148761404Y-134762547D01*
X148342357Y-134762547D02*
X148266166Y-134736357D01*
X148228071Y-134683976D01*
X148228071Y-134605404D01*
X148266166Y-134553023D01*
X148342357Y-134526833D01*
X148761404Y-134526833D01*
X148761404Y-134264928D02*
X148228071Y-134264928D01*
X148304261Y-134264928D02*
X148266166Y-134238738D01*
X148228071Y-134186357D01*
X148228071Y-134107785D01*
X148266166Y-134055404D01*
X148342357Y-134029214D01*
X148761404Y-134029214D01*
X148342357Y-134029214D02*
X148266166Y-134003023D01*
X148228071Y-133950642D01*
X148228071Y-133872071D01*
X148266166Y-133819690D01*
X148342357Y-133793500D01*
X148761404Y-133793500D01*
X148761404Y-133453023D02*
X148723309Y-133505404D01*
X148685214Y-133531595D01*
X148609023Y-133557785D01*
X148380452Y-133557785D01*
X148304261Y-133531595D01*
X148266166Y-133505404D01*
X148228071Y-133453023D01*
X148228071Y-133374452D01*
X148266166Y-133322071D01*
X148304261Y-133295880D01*
X148380452Y-133269690D01*
X148609023Y-133269690D01*
X148685214Y-133295880D01*
X148723309Y-133322071D01*
X148761404Y-133374452D01*
X148761404Y-133453023D01*
X148228071Y-133033976D02*
X148761404Y-133033976D01*
X148304261Y-133033976D02*
X148266166Y-133007785D01*
X148228071Y-132955404D01*
X148228071Y-132876833D01*
X148266166Y-132824452D01*
X148342357Y-132798261D01*
X148761404Y-132798261D01*
X148761404Y-132300642D02*
X147961404Y-132300642D01*
X148723309Y-132300642D02*
X148761404Y-132353023D01*
X148761404Y-132457785D01*
X148723309Y-132510166D01*
X148685214Y-132536357D01*
X148609023Y-132562547D01*
X148380452Y-132562547D01*
X148304261Y-132536357D01*
X148266166Y-132510166D01*
X148228071Y-132457785D01*
X148228071Y-132353023D01*
X148266166Y-132300642D01*
X148761404Y-132038738D02*
X148228071Y-132038738D01*
X148304261Y-132038738D02*
X148266166Y-132012547D01*
X148228071Y-131960166D01*
X148228071Y-131881595D01*
X148266166Y-131829214D01*
X148342357Y-131803023D01*
X148761404Y-131803023D01*
X148342357Y-131803023D02*
X148266166Y-131776833D01*
X148228071Y-131724452D01*
X148228071Y-131645880D01*
X148266166Y-131593500D01*
X148342357Y-131567309D01*
X148761404Y-131567309D01*
X148228071Y-131383976D02*
X148228071Y-131174452D01*
X148761404Y-131305404D02*
X148075690Y-131305404D01*
X147999500Y-131279214D01*
X147961404Y-131226833D01*
X147961404Y-131174452D01*
X148228071Y-130755404D02*
X148875690Y-130755404D01*
X148951880Y-130781595D01*
X148989976Y-130807785D01*
X149028071Y-130860166D01*
X149028071Y-130938738D01*
X148989976Y-130991119D01*
X148723309Y-130755404D02*
X148761404Y-130807785D01*
X148761404Y-130912547D01*
X148723309Y-130964928D01*
X148685214Y-130991119D01*
X148609023Y-131017309D01*
X148380452Y-131017309D01*
X148304261Y-130991119D01*
X148266166Y-130964928D01*
X148228071Y-130912547D01*
X148228071Y-130807785D01*
X148266166Y-130755404D01*
X148685214Y-130493500D02*
X148723309Y-130467309D01*
X148761404Y-130493500D01*
X148723309Y-130519690D01*
X148685214Y-130493500D01*
X148761404Y-130493500D01*
X148723309Y-129995880D02*
X148761404Y-130048261D01*
X148761404Y-130153023D01*
X148723309Y-130205404D01*
X148685214Y-130231595D01*
X148609023Y-130257785D01*
X148380452Y-130257785D01*
X148304261Y-130231595D01*
X148266166Y-130205404D01*
X148228071Y-130153023D01*
X148228071Y-130048261D01*
X148266166Y-129995880D01*
X148761404Y-129681595D02*
X148723309Y-129733976D01*
X148685214Y-129760166D01*
X148609023Y-129786357D01*
X148380452Y-129786357D01*
X148304261Y-129760166D01*
X148266166Y-129733976D01*
X148228071Y-129681595D01*
X148228071Y-129603023D01*
X148266166Y-129550642D01*
X148304261Y-129524452D01*
X148380452Y-129498261D01*
X148609023Y-129498261D01*
X148685214Y-129524452D01*
X148723309Y-129550642D01*
X148761404Y-129603023D01*
X148761404Y-129681595D01*
X148761404Y-129262547D02*
X148228071Y-129262547D01*
X148304261Y-129262547D02*
X148266166Y-129236357D01*
X148228071Y-129183976D01*
X148228071Y-129105404D01*
X148266166Y-129053023D01*
X148342357Y-129026833D01*
X148761404Y-129026833D01*
X148342357Y-129026833D02*
X148266166Y-129000642D01*
X148228071Y-128948261D01*
X148228071Y-128869690D01*
X148266166Y-128817309D01*
X148342357Y-128791119D01*
X148761404Y-128791119D01*
X148761404Y-127822071D02*
X148761404Y-128136357D01*
X148761404Y-127979214D02*
X147961404Y-127979214D01*
X148075690Y-128031595D01*
X148151880Y-128083976D01*
X148189976Y-128136357D01*
X147961404Y-127324452D02*
X147961404Y-127586357D01*
X148342357Y-127612547D01*
X148304261Y-127586357D01*
X148266166Y-127533976D01*
X148266166Y-127403023D01*
X148304261Y-127350642D01*
X148342357Y-127324452D01*
X148418547Y-127298261D01*
X148609023Y-127298261D01*
X148685214Y-127324452D01*
X148723309Y-127350642D01*
X148761404Y-127403023D01*
X148761404Y-127533976D01*
X148723309Y-127586357D01*
X148685214Y-127612547D01*
X147961404Y-126800642D02*
X147961404Y-127062547D01*
X148342357Y-127088738D01*
X148304261Y-127062547D01*
X148266166Y-127010166D01*
X148266166Y-126879214D01*
X148304261Y-126826833D01*
X148342357Y-126800642D01*
X148418547Y-126774452D01*
X148609023Y-126774452D01*
X148685214Y-126800642D01*
X148723309Y-126826833D01*
X148761404Y-126879214D01*
X148761404Y-127010166D01*
X148723309Y-127062547D01*
X148685214Y-127088738D01*
X148761404Y-126250642D02*
X148761404Y-126564928D01*
X148761404Y-126407785D02*
X147961404Y-126407785D01*
X148075690Y-126460166D01*
X148151880Y-126512547D01*
X148189976Y-126564928D01*
X148761404Y-126014928D02*
X147961404Y-126014928D01*
X148761404Y-125700642D02*
X148304261Y-125936357D01*
X147961404Y-125700642D02*
X148418547Y-126014928D01*
X93183904Y-127365000D02*
X92764857Y-127365000D01*
X92688666Y-127393571D01*
X92650571Y-127450714D01*
X92650571Y-127565000D01*
X92688666Y-127622142D01*
X93145809Y-127365000D02*
X93183904Y-127422142D01*
X93183904Y-127565000D01*
X93145809Y-127622142D01*
X93069619Y-127650714D01*
X92993428Y-127650714D01*
X92917238Y-127622142D01*
X92879142Y-127565000D01*
X92879142Y-127422142D01*
X92841047Y-127365000D01*
X93183904Y-126993571D02*
X93145809Y-127050714D01*
X93069619Y-127079285D01*
X92383904Y-127079285D01*
X93183904Y-126765000D02*
X92650571Y-126765000D01*
X92383904Y-126765000D02*
X92422000Y-126793571D01*
X92460095Y-126765000D01*
X92422000Y-126736428D01*
X92383904Y-126765000D01*
X92460095Y-126765000D01*
X92650571Y-126222142D02*
X93298190Y-126222142D01*
X93374380Y-126250714D01*
X93412476Y-126279285D01*
X93450571Y-126336428D01*
X93450571Y-126422142D01*
X93412476Y-126479285D01*
X93145809Y-126222142D02*
X93183904Y-126279285D01*
X93183904Y-126393571D01*
X93145809Y-126450714D01*
X93107714Y-126479285D01*
X93031523Y-126507857D01*
X92802952Y-126507857D01*
X92726761Y-126479285D01*
X92688666Y-126450714D01*
X92650571Y-126393571D01*
X92650571Y-126279285D01*
X92688666Y-126222142D01*
X92650571Y-125936428D02*
X93183904Y-125936428D01*
X92726761Y-125936428D02*
X92688666Y-125907857D01*
X92650571Y-125850714D01*
X92650571Y-125765000D01*
X92688666Y-125707857D01*
X92764857Y-125679285D01*
X93183904Y-125679285D01*
X93183904Y-124936428D02*
X92383904Y-124936428D01*
X93183904Y-124679285D02*
X92764857Y-124679285D01*
X92688666Y-124707857D01*
X92650571Y-124765000D01*
X92650571Y-124850714D01*
X92688666Y-124907857D01*
X92726761Y-124936428D01*
X93145809Y-124165000D02*
X93183904Y-124222142D01*
X93183904Y-124336428D01*
X93145809Y-124393571D01*
X93069619Y-124422142D01*
X92764857Y-124422142D01*
X92688666Y-124393571D01*
X92650571Y-124336428D01*
X92650571Y-124222142D01*
X92688666Y-124165000D01*
X92764857Y-124136428D01*
X92841047Y-124136428D01*
X92917238Y-124422142D01*
X93183904Y-123879285D02*
X92650571Y-123879285D01*
X92802952Y-123879285D02*
X92726761Y-123850714D01*
X92688666Y-123822142D01*
X92650571Y-123765000D01*
X92650571Y-123707857D01*
X93145809Y-123279285D02*
X93183904Y-123336428D01*
X93183904Y-123450714D01*
X93145809Y-123507857D01*
X93069619Y-123536428D01*
X92764857Y-123536428D01*
X92688666Y-123507857D01*
X92650571Y-123450714D01*
X92650571Y-123336428D01*
X92688666Y-123279285D01*
X92764857Y-123250714D01*
X92841047Y-123250714D01*
X92917238Y-123536428D01*
X93950571Y-127707857D02*
X93950571Y-127479285D01*
X94483904Y-127622142D02*
X93798190Y-127622142D01*
X93722000Y-127593571D01*
X93683904Y-127536428D01*
X93683904Y-127479285D01*
X94483904Y-127193571D02*
X94445809Y-127250714D01*
X94407714Y-127279285D01*
X94331523Y-127307857D01*
X94102952Y-127307857D01*
X94026761Y-127279285D01*
X93988666Y-127250714D01*
X93950571Y-127193571D01*
X93950571Y-127107857D01*
X93988666Y-127050714D01*
X94026761Y-127022142D01*
X94102952Y-126993571D01*
X94331523Y-126993571D01*
X94407714Y-127022142D01*
X94445809Y-127050714D01*
X94483904Y-127107857D01*
X94483904Y-127193571D01*
X94483904Y-126736428D02*
X93950571Y-126736428D01*
X94102952Y-126736428D02*
X94026761Y-126707857D01*
X93988666Y-126679285D01*
X93950571Y-126622142D01*
X93950571Y-126565000D01*
X94483904Y-125650714D02*
X93683904Y-125650714D01*
X94445809Y-125650714D02*
X94483904Y-125707857D01*
X94483904Y-125822142D01*
X94445809Y-125879285D01*
X94407714Y-125907857D01*
X94331523Y-125936428D01*
X94102952Y-125936428D01*
X94026761Y-125907857D01*
X93988666Y-125879285D01*
X93950571Y-125822142D01*
X93950571Y-125707857D01*
X93988666Y-125650714D01*
X94483904Y-125365000D02*
X93950571Y-125365000D01*
X94102952Y-125365000D02*
X94026761Y-125336428D01*
X93988666Y-125307857D01*
X93950571Y-125250714D01*
X93950571Y-125193571D01*
X94483904Y-124993571D02*
X93950571Y-124993571D01*
X93683904Y-124993571D02*
X93722000Y-125022142D01*
X93760095Y-124993571D01*
X93722000Y-124965000D01*
X93683904Y-124993571D01*
X93760095Y-124993571D01*
X94483904Y-124622142D02*
X94445809Y-124679285D01*
X94369619Y-124707857D01*
X93683904Y-124707857D01*
X94483904Y-124307857D02*
X94445809Y-124365000D01*
X94369619Y-124393571D01*
X93683904Y-124393571D01*
X94483904Y-124079285D02*
X93950571Y-124079285D01*
X93683904Y-124079285D02*
X93722000Y-124107857D01*
X93760095Y-124079285D01*
X93722000Y-124050714D01*
X93683904Y-124079285D01*
X93760095Y-124079285D01*
X93950571Y-123793571D02*
X94483904Y-123793571D01*
X94026761Y-123793571D02*
X93988666Y-123765000D01*
X93950571Y-123707857D01*
X93950571Y-123622142D01*
X93988666Y-123565000D01*
X94064857Y-123536428D01*
X94483904Y-123536428D01*
X93950571Y-122993571D02*
X94598190Y-122993571D01*
X94674380Y-123022142D01*
X94712476Y-123050714D01*
X94750571Y-123107857D01*
X94750571Y-123193571D01*
X94712476Y-123250714D01*
X94445809Y-122993571D02*
X94483904Y-123050714D01*
X94483904Y-123165000D01*
X94445809Y-123222142D01*
X94407714Y-123250714D01*
X94331523Y-123279285D01*
X94102952Y-123279285D01*
X94026761Y-123250714D01*
X93988666Y-123222142D01*
X93950571Y-123165000D01*
X93950571Y-123050714D01*
X93988666Y-122993571D01*
X93443571Y-139373809D02*
X93500714Y-139411904D01*
X93615000Y-139411904D01*
X93672142Y-139373809D01*
X93700714Y-139297619D01*
X93700714Y-139259523D01*
X93672142Y-139183333D01*
X93615000Y-139145238D01*
X93529285Y-139145238D01*
X93472142Y-139107142D01*
X93443571Y-139030952D01*
X93443571Y-138992857D01*
X93472142Y-138916666D01*
X93529285Y-138878571D01*
X93615000Y-138878571D01*
X93672142Y-138916666D01*
X93872142Y-138878571D02*
X94100714Y-138878571D01*
X93957857Y-138611904D02*
X93957857Y-139297619D01*
X93986428Y-139373809D01*
X94043571Y-139411904D01*
X94100714Y-139411904D01*
X94300714Y-139411904D02*
X94300714Y-138878571D01*
X94300714Y-139030952D02*
X94329285Y-138954761D01*
X94357857Y-138916666D01*
X94415000Y-138878571D01*
X94472142Y-138878571D01*
X94929285Y-139411904D02*
X94929285Y-138992857D01*
X94900714Y-138916666D01*
X94843571Y-138878571D01*
X94729285Y-138878571D01*
X94672142Y-138916666D01*
X94929285Y-139373809D02*
X94872142Y-139411904D01*
X94729285Y-139411904D01*
X94672142Y-139373809D01*
X94643571Y-139297619D01*
X94643571Y-139221428D01*
X94672142Y-139145238D01*
X94729285Y-139107142D01*
X94872142Y-139107142D01*
X94929285Y-139069047D01*
X95215000Y-139411904D02*
X95215000Y-138878571D01*
X95215000Y-138611904D02*
X95186428Y-138650000D01*
X95215000Y-138688095D01*
X95243571Y-138650000D01*
X95215000Y-138611904D01*
X95215000Y-138688095D01*
X95500714Y-138878571D02*
X95500714Y-139411904D01*
X95500714Y-138954761D02*
X95529285Y-138916666D01*
X95586428Y-138878571D01*
X95672142Y-138878571D01*
X95729285Y-138916666D01*
X95757857Y-138992857D01*
X95757857Y-139411904D01*
X93586428Y-140711904D02*
X93586428Y-140178571D01*
X93586428Y-140330952D02*
X93615000Y-140254761D01*
X93643571Y-140216666D01*
X93700714Y-140178571D01*
X93757857Y-140178571D01*
X94186428Y-140673809D02*
X94129285Y-140711904D01*
X94015000Y-140711904D01*
X93957857Y-140673809D01*
X93929285Y-140597619D01*
X93929285Y-140292857D01*
X93957857Y-140216666D01*
X94015000Y-140178571D01*
X94129285Y-140178571D01*
X94186428Y-140216666D01*
X94215000Y-140292857D01*
X94215000Y-140369047D01*
X93929285Y-140445238D01*
X94557857Y-140711904D02*
X94500714Y-140673809D01*
X94472142Y-140597619D01*
X94472142Y-139911904D01*
X94786428Y-140711904D02*
X94786428Y-140178571D01*
X94786428Y-139911904D02*
X94757857Y-139950000D01*
X94786428Y-139988095D01*
X94815000Y-139950000D01*
X94786428Y-139911904D01*
X94786428Y-139988095D01*
X95300714Y-140673809D02*
X95243571Y-140711904D01*
X95129285Y-140711904D01*
X95072142Y-140673809D01*
X95043571Y-140597619D01*
X95043571Y-140292857D01*
X95072142Y-140216666D01*
X95129285Y-140178571D01*
X95243571Y-140178571D01*
X95300714Y-140216666D01*
X95329285Y-140292857D01*
X95329285Y-140369047D01*
X95043571Y-140445238D01*
X95500714Y-140178571D02*
X95729285Y-140178571D01*
X95586428Y-140711904D02*
X95586428Y-140026190D01*
X95615000Y-139950000D01*
X95672142Y-139911904D01*
X95729285Y-139911904D01*
D11*
%TO.C,REF\u002A\u002A*%
X92115000Y-130580000D02*
X97115000Y-130580000D01*
X92115000Y-133580000D02*
X97115000Y-133580000D01*
%TO.C,S10*%
X149100000Y-153520000D02*
X149100000Y-141120000D01*
X149250000Y-140970000D02*
X155550000Y-140970000D01*
X155700000Y-141120000D02*
X155700000Y-153520000D01*
X155550000Y-153670000D02*
X149250000Y-153670000D01*
X151900000Y-144320000D02*
X151900000Y-144870000D01*
X151900000Y-144870000D02*
X152900000Y-144870000D01*
X152900000Y-144870000D02*
X152900000Y-144320000D01*
X151500000Y-147070000D02*
X150900001Y-150570001D01*
X153300000Y-147070000D02*
X153891159Y-150521767D01*
X151000000Y-150019999D02*
G75*
G02*
X153799999Y-150019999I1400000J2699999D01*
G01*
X151150001Y-148869999D02*
G75*
G02*
X153649999Y-148869999I1249999J1549999D01*
G01*
X153891158Y-150521768D02*
G75*
G02*
X150900001Y-150570001I-1491158J-298232D01*
G01*
X151500001Y-147070000D02*
G75*
G02*
X153299999Y-147070001I899999J-250000D01*
G01*
X149250000Y-153670000D02*
G75*
G02*
X149100000Y-153520000I0J150000D01*
G01*
X155700000Y-153520000D02*
G75*
G02*
X155550000Y-153670000I-150000J0D01*
G01*
X155550000Y-140970000D02*
G75*
G02*
X155700000Y-141120000I0J-150000D01*
G01*
X149100000Y-141120000D02*
G75*
G02*
X149250000Y-140970000I150000J0D01*
G01*
%TO.C,S9*%
X136400000Y-153520000D02*
X136400000Y-141120000D01*
X136550000Y-140970000D02*
X142850000Y-140970000D01*
X143000000Y-141120000D02*
X143000000Y-153520000D01*
X142850000Y-153670000D02*
X136550000Y-153670000D01*
X139200000Y-144320000D02*
X139200000Y-144870000D01*
X139200000Y-144870000D02*
X140200000Y-144870000D01*
X140200000Y-144870000D02*
X140200000Y-144320000D01*
X138800000Y-147070000D02*
X138200001Y-150570001D01*
X140600000Y-147070000D02*
X141191159Y-150521767D01*
X138300000Y-150019999D02*
G75*
G02*
X141099999Y-150019999I1400000J2699999D01*
G01*
X138450001Y-148869999D02*
G75*
G02*
X140949999Y-148869999I1249999J1549999D01*
G01*
X141191158Y-150521768D02*
G75*
G02*
X138200001Y-150570001I-1491158J-298232D01*
G01*
X138800001Y-147070000D02*
G75*
G02*
X140599999Y-147070001I899999J-250000D01*
G01*
X136550000Y-153670000D02*
G75*
G02*
X136400000Y-153520000I0J150000D01*
G01*
X143000000Y-153520000D02*
G75*
G02*
X142850000Y-153670000I-150000J0D01*
G01*
X142850000Y-140970000D02*
G75*
G02*
X143000000Y-141120000I0J-150000D01*
G01*
X136400000Y-141120000D02*
G75*
G02*
X136550000Y-140970000I150000J0D01*
G01*
%TO.C,S8*%
X123700000Y-153520000D02*
X123700000Y-141120000D01*
X123850000Y-140970000D02*
X130150000Y-140970000D01*
X130300000Y-141120000D02*
X130300000Y-153520000D01*
X130150000Y-153670000D02*
X123850000Y-153670000D01*
X126500000Y-144320000D02*
X126500000Y-144870000D01*
X126500000Y-144870000D02*
X127500000Y-144870000D01*
X127500000Y-144870000D02*
X127500000Y-144320000D01*
X126100000Y-147070000D02*
X125500001Y-150570001D01*
X127900000Y-147070000D02*
X128491159Y-150521767D01*
X125600000Y-150019999D02*
G75*
G02*
X128399999Y-150019999I1400000J2699999D01*
G01*
X125750001Y-148869999D02*
G75*
G02*
X128249999Y-148869999I1249999J1549999D01*
G01*
X128491158Y-150521768D02*
G75*
G02*
X125500001Y-150570001I-1491158J-298232D01*
G01*
X126100001Y-147070000D02*
G75*
G02*
X127899999Y-147070001I899999J-250000D01*
G01*
X123850000Y-153670000D02*
G75*
G02*
X123700000Y-153520000I0J150000D01*
G01*
X130300000Y-153520000D02*
G75*
G02*
X130150000Y-153670000I-150000J0D01*
G01*
X130150000Y-140970000D02*
G75*
G02*
X130300000Y-141120000I0J-150000D01*
G01*
X123700000Y-141120000D02*
G75*
G02*
X123850000Y-140970000I150000J0D01*
G01*
%TO.C,S7*%
X111000000Y-153520000D02*
X111000000Y-141120000D01*
X111150000Y-140970000D02*
X117450000Y-140970000D01*
X117600000Y-141120000D02*
X117600000Y-153520000D01*
X117450000Y-153670000D02*
X111150000Y-153670000D01*
X113800000Y-144320000D02*
X113800000Y-144870000D01*
X113800000Y-144870000D02*
X114800000Y-144870000D01*
X114800000Y-144870000D02*
X114800000Y-144320000D01*
X113400000Y-147070000D02*
X112800001Y-150570001D01*
X115200000Y-147070000D02*
X115791159Y-150521767D01*
X112900000Y-150019999D02*
G75*
G02*
X115699999Y-150019999I1400000J2699999D01*
G01*
X113050001Y-148869999D02*
G75*
G02*
X115549999Y-148869999I1249999J1549999D01*
G01*
X115791158Y-150521768D02*
G75*
G02*
X112800001Y-150570001I-1491158J-298232D01*
G01*
X113400001Y-147070000D02*
G75*
G02*
X115199999Y-147070001I899999J-250000D01*
G01*
X111150000Y-153670000D02*
G75*
G02*
X111000000Y-153520000I0J150000D01*
G01*
X117600000Y-153520000D02*
G75*
G02*
X117450000Y-153670000I-150000J0D01*
G01*
X117450000Y-140970000D02*
G75*
G02*
X117600000Y-141120000I0J-150000D01*
G01*
X111000000Y-141120000D02*
G75*
G02*
X111150000Y-140970000I150000J0D01*
G01*
%TO.C,S6*%
X98300000Y-153520000D02*
X98300000Y-141120000D01*
X98450000Y-140970000D02*
X104750000Y-140970000D01*
X104900000Y-141120000D02*
X104900000Y-153520000D01*
X104750000Y-153670000D02*
X98450000Y-153670000D01*
X101100000Y-144320000D02*
X101100000Y-144870000D01*
X101100000Y-144870000D02*
X102100000Y-144870000D01*
X102100000Y-144870000D02*
X102100000Y-144320000D01*
X100700000Y-147070000D02*
X100100001Y-150570001D01*
X102500000Y-147070000D02*
X103091159Y-150521767D01*
X100200000Y-150019999D02*
G75*
G02*
X102999999Y-150019999I1400000J2699999D01*
G01*
X100350001Y-148869999D02*
G75*
G02*
X102849999Y-148869999I1249999J1549999D01*
G01*
X103091158Y-150521768D02*
G75*
G02*
X100100001Y-150570001I-1491158J-298232D01*
G01*
X100700001Y-147070000D02*
G75*
G02*
X102499999Y-147070001I899999J-250000D01*
G01*
X98450000Y-153670000D02*
G75*
G02*
X98300000Y-153520000I0J150000D01*
G01*
X104900000Y-153520000D02*
G75*
G02*
X104750000Y-153670000I-150000J0D01*
G01*
X104750000Y-140970000D02*
G75*
G02*
X104900000Y-141120000I0J-150000D01*
G01*
X98300000Y-141120000D02*
G75*
G02*
X98450000Y-140970000I150000J0D01*
G01*
D12*
%TO.C,R10*%
X148614000Y-143288000D02*
X148944000Y-143288000D01*
X148944000Y-143288000D02*
X148944000Y-149828000D01*
X148944000Y-149828000D02*
X148614000Y-149828000D01*
X146534000Y-143288000D02*
X146204000Y-143288000D01*
X146204000Y-143288000D02*
X146204000Y-149828000D01*
X146204000Y-149828000D02*
X146534000Y-149828000D01*
%TO.C,R9*%
X145566000Y-143288000D02*
X145896000Y-143288000D01*
X145896000Y-143288000D02*
X145896000Y-149828000D01*
X145896000Y-149828000D02*
X145566000Y-149828000D01*
X143486000Y-143288000D02*
X143156000Y-143288000D01*
X143156000Y-143288000D02*
X143156000Y-149828000D01*
X143156000Y-149828000D02*
X143486000Y-149828000D01*
%TO.C,R8*%
X134390000Y-143288000D02*
X134720000Y-143288000D01*
X134720000Y-143288000D02*
X134720000Y-149828000D01*
X134720000Y-149828000D02*
X134390000Y-149828000D01*
X132310000Y-143288000D02*
X131980000Y-143288000D01*
X131980000Y-143288000D02*
X131980000Y-149828000D01*
X131980000Y-149828000D02*
X132310000Y-149828000D01*
%TO.C,Ra7*%
X120166000Y-143161000D02*
X120496000Y-143161000D01*
X120496000Y-143161000D02*
X120496000Y-149701000D01*
X120496000Y-149701000D02*
X120166000Y-149701000D01*
X118086000Y-143161000D02*
X117756000Y-143161000D01*
X117756000Y-143161000D02*
X117756000Y-149701000D01*
X117756000Y-149701000D02*
X118086000Y-149701000D01*
%TO.C,R7*%
X123214000Y-143161000D02*
X123544000Y-143161000D01*
X123544000Y-143161000D02*
X123544000Y-149701000D01*
X123544000Y-149701000D02*
X123214000Y-149701000D01*
X121134000Y-143161000D02*
X120804000Y-143161000D01*
X120804000Y-143161000D02*
X120804000Y-149701000D01*
X120804000Y-149701000D02*
X121134000Y-149701000D01*
%TO.C,R6*%
X108990000Y-143161000D02*
X109320000Y-143161000D01*
X109320000Y-143161000D02*
X109320000Y-149701000D01*
X109320000Y-149701000D02*
X108990000Y-149701000D01*
X106910000Y-143161000D02*
X106580000Y-143161000D01*
X106580000Y-143161000D02*
X106580000Y-149701000D01*
X106580000Y-149701000D02*
X106910000Y-149701000D01*
%TO.C,D5*%
X144580000Y-134020000D02*
X147520000Y-134020000D01*
X144580000Y-133780000D02*
X147520000Y-133780000D01*
X144580000Y-133900000D02*
X147520000Y-133900000D01*
X147520000Y-129360000D02*
X147190000Y-129360000D01*
X147520000Y-134800000D02*
X147520000Y-129360000D01*
X147190000Y-134800000D02*
X147520000Y-134800000D01*
X144580000Y-129360000D02*
X144910000Y-129360000D01*
X144580000Y-134800000D02*
X144580000Y-129360000D01*
X144910000Y-134800000D02*
X144580000Y-134800000D01*
%TO.C,R1*%
X134720000Y-128810000D02*
X134390000Y-128810000D01*
X134720000Y-135350000D02*
X134720000Y-128810000D01*
X134390000Y-135350000D02*
X134720000Y-135350000D01*
X131980000Y-128810000D02*
X132310000Y-128810000D01*
X131980000Y-135350000D02*
X131980000Y-128810000D01*
X132310000Y-135350000D02*
X131980000Y-135350000D01*
%TO.C,R2*%
X107796000Y-128810000D02*
X107466000Y-128810000D01*
X107796000Y-135350000D02*
X107796000Y-128810000D01*
X107466000Y-135350000D02*
X107796000Y-135350000D01*
X105056000Y-128810000D02*
X105386000Y-128810000D01*
X105056000Y-135350000D02*
X105056000Y-128810000D01*
X105386000Y-135350000D02*
X105056000Y-135350000D01*
%TO.C,Ra2*%
X110780500Y-128810000D02*
X110450500Y-128810000D01*
X110780500Y-135350000D02*
X110780500Y-128810000D01*
X110450500Y-135350000D02*
X110780500Y-135350000D01*
X108040500Y-128810000D02*
X108370500Y-128810000D01*
X108040500Y-135350000D02*
X108040500Y-128810000D01*
X108370500Y-135350000D02*
X108040500Y-135350000D01*
%TO.C,R3*%
X120496000Y-128810000D02*
X120166000Y-128810000D01*
X120496000Y-135350000D02*
X120496000Y-128810000D01*
X120166000Y-135350000D02*
X120496000Y-135350000D01*
X117756000Y-128810000D02*
X118086000Y-128810000D01*
X117756000Y-135350000D02*
X117756000Y-128810000D01*
X118086000Y-135350000D02*
X117756000Y-135350000D01*
%TO.C,R4*%
X123544000Y-128810000D02*
X123214000Y-128810000D01*
X123544000Y-135350000D02*
X123544000Y-128810000D01*
X123214000Y-135350000D02*
X123544000Y-135350000D01*
X120804000Y-128810000D02*
X121134000Y-128810000D01*
X120804000Y-135350000D02*
X120804000Y-128810000D01*
X121134000Y-135350000D02*
X120804000Y-135350000D01*
D11*
%TO.C,S2*%
X115200000Y-131830000D02*
X115791159Y-135281767D01*
X113400000Y-131830000D02*
X112800001Y-135330001D01*
X114800000Y-129630000D02*
X114800000Y-129080000D01*
X113800000Y-129630000D02*
X114800000Y-129630000D01*
X113800000Y-129080000D02*
X113800000Y-129630000D01*
X117450000Y-138430000D02*
X111150000Y-138430000D01*
X117600000Y-125880000D02*
X117600000Y-138280000D01*
X111150000Y-125730000D02*
X117450000Y-125730000D01*
X111000000Y-138280000D02*
X111000000Y-125880000D01*
X111000000Y-125880000D02*
G75*
G02*
X111150000Y-125730000I150000J0D01*
G01*
X117450000Y-125730000D02*
G75*
G02*
X117600000Y-125880000I0J-150000D01*
G01*
X117600000Y-138280000D02*
G75*
G02*
X117450000Y-138430000I-150000J0D01*
G01*
X111150000Y-138430000D02*
G75*
G02*
X111000000Y-138280000I0J150000D01*
G01*
X113400001Y-131830000D02*
G75*
G02*
X115199999Y-131830001I899999J-250000D01*
G01*
X115791158Y-135281768D02*
G75*
G02*
X112800001Y-135330001I-1491158J-298232D01*
G01*
X113050001Y-133629999D02*
G75*
G02*
X115549999Y-133629999I1249999J1549999D01*
G01*
X112900000Y-134779999D02*
G75*
G02*
X115699999Y-134779999I1400000J2699999D01*
G01*
%TO.C,S3*%
X127900000Y-131830000D02*
X128491159Y-135281767D01*
X126100000Y-131830000D02*
X125500001Y-135330001D01*
X127500000Y-129630000D02*
X127500000Y-129080000D01*
X126500000Y-129630000D02*
X127500000Y-129630000D01*
X126500000Y-129080000D02*
X126500000Y-129630000D01*
X130150000Y-138430000D02*
X123850000Y-138430000D01*
X130300000Y-125880000D02*
X130300000Y-138280000D01*
X123850000Y-125730000D02*
X130150000Y-125730000D01*
X123700000Y-138280000D02*
X123700000Y-125880000D01*
X123700000Y-125880000D02*
G75*
G02*
X123850000Y-125730000I150000J0D01*
G01*
X130150000Y-125730000D02*
G75*
G02*
X130300000Y-125880000I0J-150000D01*
G01*
X130300000Y-138280000D02*
G75*
G02*
X130150000Y-138430000I-150000J0D01*
G01*
X123850000Y-138430000D02*
G75*
G02*
X123700000Y-138280000I0J150000D01*
G01*
X126100001Y-131830000D02*
G75*
G02*
X127899999Y-131830001I899999J-250000D01*
G01*
X128491158Y-135281768D02*
G75*
G02*
X125500001Y-135330001I-1491158J-298232D01*
G01*
X125750001Y-133629999D02*
G75*
G02*
X128249999Y-133629999I1249999J1549999D01*
G01*
X125600000Y-134779999D02*
G75*
G02*
X128399999Y-134779999I1400000J2699999D01*
G01*
%TO.C,S4*%
X140600000Y-131830000D02*
X141191159Y-135281767D01*
X138800000Y-131830000D02*
X138200001Y-135330001D01*
X140200000Y-129630000D02*
X140200000Y-129080000D01*
X139200000Y-129630000D02*
X140200000Y-129630000D01*
X139200000Y-129080000D02*
X139200000Y-129630000D01*
X142850000Y-138430000D02*
X136550000Y-138430000D01*
X143000000Y-125880000D02*
X143000000Y-138280000D01*
X136550000Y-125730000D02*
X142850000Y-125730000D01*
X136400000Y-138280000D02*
X136400000Y-125880000D01*
X136400000Y-125880000D02*
G75*
G02*
X136550000Y-125730000I150000J0D01*
G01*
X142850000Y-125730000D02*
G75*
G02*
X143000000Y-125880000I0J-150000D01*
G01*
X143000000Y-138280000D02*
G75*
G02*
X142850000Y-138430000I-150000J0D01*
G01*
X136550000Y-138430000D02*
G75*
G02*
X136400000Y-138280000I0J150000D01*
G01*
X138800001Y-131830000D02*
G75*
G02*
X140599999Y-131830001I899999J-250000D01*
G01*
X141191158Y-135281768D02*
G75*
G02*
X138200001Y-135330001I-1491158J-298232D01*
G01*
X138450001Y-133629999D02*
G75*
G02*
X140949999Y-133629999I1249999J1549999D01*
G01*
X138300000Y-134779999D02*
G75*
G02*
X141099999Y-134779999I1400000J2699999D01*
G01*
%TO.C,S5*%
X153300000Y-131830000D02*
X153891159Y-135281767D01*
X151500000Y-131830000D02*
X150900001Y-135330001D01*
X152900000Y-129630000D02*
X152900000Y-129080000D01*
X151900000Y-129630000D02*
X152900000Y-129630000D01*
X151900000Y-129080000D02*
X151900000Y-129630000D01*
X155550000Y-138430000D02*
X149250000Y-138430000D01*
X155700000Y-125880000D02*
X155700000Y-138280000D01*
X149250000Y-125730000D02*
X155550000Y-125730000D01*
X149100000Y-138280000D02*
X149100000Y-125880000D01*
X149100000Y-125880000D02*
G75*
G02*
X149250000Y-125730000I150000J0D01*
G01*
X155550000Y-125730000D02*
G75*
G02*
X155700000Y-125880000I0J-150000D01*
G01*
X155700000Y-138280000D02*
G75*
G02*
X155550000Y-138430000I-150000J0D01*
G01*
X149250000Y-138430000D02*
G75*
G02*
X149100000Y-138280000I0J150000D01*
G01*
X151500001Y-131830000D02*
G75*
G02*
X153299999Y-131830001I899999J-250000D01*
G01*
X153891158Y-135281768D02*
G75*
G02*
X150900001Y-135330001I-1491158J-298232D01*
G01*
X151150001Y-133629999D02*
G75*
G02*
X153649999Y-133629999I1249999J1549999D01*
G01*
X151000000Y-134779999D02*
G75*
G02*
X153799999Y-134779999I1400000J2699999D01*
G01*
%TO.C,S1*%
X102500000Y-131830000D02*
X103091159Y-135281767D01*
X100700000Y-131830000D02*
X100100001Y-135330001D01*
X102100000Y-129630000D02*
X102100000Y-129080000D01*
X101100000Y-129630000D02*
X102100000Y-129630000D01*
X101100000Y-129080000D02*
X101100000Y-129630000D01*
X104750000Y-138430000D02*
X98450000Y-138430000D01*
X104900000Y-125880000D02*
X104900000Y-138280000D01*
X98450000Y-125730000D02*
X104750000Y-125730000D01*
X98300000Y-138280000D02*
X98300000Y-125880000D01*
X98300000Y-125880000D02*
G75*
G02*
X98450000Y-125730000I150000J0D01*
G01*
X104750000Y-125730000D02*
G75*
G02*
X104900000Y-125880000I0J-150000D01*
G01*
X104900000Y-138280000D02*
G75*
G02*
X104750000Y-138430000I-150000J0D01*
G01*
X98450000Y-138430000D02*
G75*
G02*
X98300000Y-138280000I0J150000D01*
G01*
X100700001Y-131830000D02*
G75*
G02*
X102499999Y-131830001I899999J-250000D01*
G01*
X103091158Y-135281768D02*
G75*
G02*
X100100001Y-135330001I-1491158J-298232D01*
G01*
X100350001Y-133629999D02*
G75*
G02*
X102849999Y-133629999I1249999J1549999D01*
G01*
X100200000Y-134779999D02*
G75*
G02*
X102999999Y-134779999I1400000J2699999D01*
G01*
%TO.C,REF\u002A\u002A*%
X92115000Y-141200000D02*
X97115000Y-141200000D01*
X92115000Y-138200000D02*
X97115000Y-138200000D01*
%TO.C,S10*%
X149347880Y-154963761D02*
X149462166Y-155011380D01*
X149652642Y-155011380D01*
X149728833Y-154963761D01*
X149766928Y-154916142D01*
X149805023Y-154820904D01*
X149805023Y-154725666D01*
X149766928Y-154630428D01*
X149728833Y-154582809D01*
X149652642Y-154535190D01*
X149500261Y-154487571D01*
X149424071Y-154439952D01*
X149385976Y-154392333D01*
X149347880Y-154297095D01*
X149347880Y-154201857D01*
X149385976Y-154106619D01*
X149424071Y-154059000D01*
X149500261Y-154011380D01*
X149690738Y-154011380D01*
X149805023Y-154059000D01*
X150566928Y-155011380D02*
X150109785Y-155011380D01*
X150338357Y-155011380D02*
X150338357Y-154011380D01*
X150262166Y-154154238D01*
X150185976Y-154249476D01*
X150109785Y-154297095D01*
X151062166Y-154011380D02*
X151138357Y-154011380D01*
X151214547Y-154059000D01*
X151252642Y-154106619D01*
X151290738Y-154201857D01*
X151328833Y-154392333D01*
X151328833Y-154630428D01*
X151290738Y-154820904D01*
X151252642Y-154916142D01*
X151214547Y-154963761D01*
X151138357Y-155011380D01*
X151062166Y-155011380D01*
X150985976Y-154963761D01*
X150947880Y-154916142D01*
X150909785Y-154820904D01*
X150871690Y-154630428D01*
X150871690Y-154392333D01*
X150909785Y-154201857D01*
X150947880Y-154106619D01*
X150985976Y-154059000D01*
X151062166Y-154011380D01*
%TO.C,S9*%
X136647880Y-154963761D02*
X136762166Y-155011380D01*
X136952642Y-155011380D01*
X137028833Y-154963761D01*
X137066928Y-154916142D01*
X137105023Y-154820904D01*
X137105023Y-154725666D01*
X137066928Y-154630428D01*
X137028833Y-154582809D01*
X136952642Y-154535190D01*
X136800261Y-154487571D01*
X136724071Y-154439952D01*
X136685976Y-154392333D01*
X136647880Y-154297095D01*
X136647880Y-154201857D01*
X136685976Y-154106619D01*
X136724071Y-154059000D01*
X136800261Y-154011380D01*
X136990738Y-154011380D01*
X137105023Y-154059000D01*
X137485976Y-155011380D02*
X137638357Y-155011380D01*
X137714547Y-154963761D01*
X137752642Y-154916142D01*
X137828833Y-154773285D01*
X137866928Y-154582809D01*
X137866928Y-154201857D01*
X137828833Y-154106619D01*
X137790738Y-154059000D01*
X137714547Y-154011380D01*
X137562166Y-154011380D01*
X137485976Y-154059000D01*
X137447880Y-154106619D01*
X137409785Y-154201857D01*
X137409785Y-154439952D01*
X137447880Y-154535190D01*
X137485976Y-154582809D01*
X137562166Y-154630428D01*
X137714547Y-154630428D01*
X137790738Y-154582809D01*
X137828833Y-154535190D01*
X137866928Y-154439952D01*
%TO.C,S8*%
X123947880Y-154964761D02*
X124062166Y-155012380D01*
X124252642Y-155012380D01*
X124328833Y-154964761D01*
X124366928Y-154917142D01*
X124405023Y-154821904D01*
X124405023Y-154726666D01*
X124366928Y-154631428D01*
X124328833Y-154583809D01*
X124252642Y-154536190D01*
X124100261Y-154488571D01*
X124024071Y-154440952D01*
X123985976Y-154393333D01*
X123947880Y-154298095D01*
X123947880Y-154202857D01*
X123985976Y-154107619D01*
X124024071Y-154060000D01*
X124100261Y-154012380D01*
X124290738Y-154012380D01*
X124405023Y-154060000D01*
X124862166Y-154440952D02*
X124785976Y-154393333D01*
X124747880Y-154345714D01*
X124709785Y-154250476D01*
X124709785Y-154202857D01*
X124747880Y-154107619D01*
X124785976Y-154060000D01*
X124862166Y-154012380D01*
X125014547Y-154012380D01*
X125090738Y-154060000D01*
X125128833Y-154107619D01*
X125166928Y-154202857D01*
X125166928Y-154250476D01*
X125128833Y-154345714D01*
X125090738Y-154393333D01*
X125014547Y-154440952D01*
X124862166Y-154440952D01*
X124785976Y-154488571D01*
X124747880Y-154536190D01*
X124709785Y-154631428D01*
X124709785Y-154821904D01*
X124747880Y-154917142D01*
X124785976Y-154964761D01*
X124862166Y-155012380D01*
X125014547Y-155012380D01*
X125090738Y-154964761D01*
X125128833Y-154917142D01*
X125166928Y-154821904D01*
X125166928Y-154631428D01*
X125128833Y-154536190D01*
X125090738Y-154488571D01*
X125014547Y-154440952D01*
%TO.C,S7*%
X111247880Y-154963761D02*
X111362166Y-155011380D01*
X111552642Y-155011380D01*
X111628833Y-154963761D01*
X111666928Y-154916142D01*
X111705023Y-154820904D01*
X111705023Y-154725666D01*
X111666928Y-154630428D01*
X111628833Y-154582809D01*
X111552642Y-154535190D01*
X111400261Y-154487571D01*
X111324071Y-154439952D01*
X111285976Y-154392333D01*
X111247880Y-154297095D01*
X111247880Y-154201857D01*
X111285976Y-154106619D01*
X111324071Y-154059000D01*
X111400261Y-154011380D01*
X111590738Y-154011380D01*
X111705023Y-154059000D01*
X111971690Y-154011380D02*
X112505023Y-154011380D01*
X112162166Y-155011380D01*
%TO.C,S6*%
X98547880Y-154963761D02*
X98662166Y-155011380D01*
X98852642Y-155011380D01*
X98928833Y-154963761D01*
X98966928Y-154916142D01*
X99005023Y-154820904D01*
X99005023Y-154725666D01*
X98966928Y-154630428D01*
X98928833Y-154582809D01*
X98852642Y-154535190D01*
X98700261Y-154487571D01*
X98624071Y-154439952D01*
X98585976Y-154392333D01*
X98547880Y-154297095D01*
X98547880Y-154201857D01*
X98585976Y-154106619D01*
X98624071Y-154059000D01*
X98700261Y-154011380D01*
X98890738Y-154011380D01*
X99005023Y-154059000D01*
X99690738Y-154011380D02*
X99538357Y-154011380D01*
X99462166Y-154059000D01*
X99424071Y-154106619D01*
X99347880Y-154249476D01*
X99309785Y-154439952D01*
X99309785Y-154820904D01*
X99347880Y-154916142D01*
X99385976Y-154963761D01*
X99462166Y-155011380D01*
X99614547Y-155011380D01*
X99690738Y-154963761D01*
X99728833Y-154916142D01*
X99766928Y-154820904D01*
X99766928Y-154582809D01*
X99728833Y-154487571D01*
X99690738Y-154439952D01*
X99614547Y-154392333D01*
X99462166Y-154392333D01*
X99385976Y-154439952D01*
X99347880Y-154487571D01*
X99309785Y-154582809D01*
%TO.C,R10*%
X147391380Y-152858690D02*
X146915190Y-153125357D01*
X147391380Y-153315833D02*
X146391380Y-153315833D01*
X146391380Y-153011071D01*
X146439000Y-152934881D01*
X146486619Y-152896786D01*
X146581857Y-152858690D01*
X146724714Y-152858690D01*
X146819952Y-152896786D01*
X146867571Y-152934881D01*
X146915190Y-153011071D01*
X146915190Y-153315833D01*
X147391380Y-152096786D02*
X147391380Y-152553929D01*
X147391380Y-152325357D02*
X146391380Y-152325357D01*
X146534238Y-152401548D01*
X146629476Y-152477738D01*
X146677095Y-152553929D01*
X146391380Y-151601548D02*
X146391380Y-151525357D01*
X146439000Y-151449167D01*
X146486619Y-151411071D01*
X146581857Y-151372976D01*
X146772333Y-151334881D01*
X147010428Y-151334881D01*
X147200904Y-151372976D01*
X147296142Y-151411071D01*
X147343761Y-151449167D01*
X147391380Y-151525357D01*
X147391380Y-151601548D01*
X147343761Y-151677738D01*
X147296142Y-151715833D01*
X147200904Y-151753929D01*
X147010428Y-151792024D01*
X146772333Y-151792024D01*
X146581857Y-151753929D01*
X146486619Y-151715833D01*
X146439000Y-151677738D01*
X146391380Y-151601548D01*
X147788380Y-153087261D02*
X147788380Y-153239642D01*
X147836000Y-153315833D01*
X147883619Y-153353928D01*
X148026476Y-153430118D01*
X148216952Y-153468214D01*
X148597904Y-153468214D01*
X148693142Y-153430118D01*
X148740761Y-153392023D01*
X148788380Y-153315833D01*
X148788380Y-153163452D01*
X148740761Y-153087261D01*
X148693142Y-153049166D01*
X148597904Y-153011071D01*
X148359809Y-153011071D01*
X148264571Y-153049166D01*
X148216952Y-153087261D01*
X148169333Y-153163452D01*
X148169333Y-153315833D01*
X148216952Y-153392023D01*
X148264571Y-153430118D01*
X148359809Y-153468214D01*
X148216952Y-152553928D02*
X148169333Y-152630118D01*
X148121714Y-152668214D01*
X148026476Y-152706309D01*
X147978857Y-152706309D01*
X147883619Y-152668214D01*
X147836000Y-152630118D01*
X147788380Y-152553928D01*
X147788380Y-152401547D01*
X147836000Y-152325356D01*
X147883619Y-152287261D01*
X147978857Y-152249166D01*
X148026476Y-152249166D01*
X148121714Y-152287261D01*
X148169333Y-152325356D01*
X148216952Y-152401547D01*
X148216952Y-152553928D01*
X148264571Y-152630118D01*
X148312190Y-152668214D01*
X148407428Y-152706309D01*
X148597904Y-152706309D01*
X148693142Y-152668214D01*
X148740761Y-152630118D01*
X148788380Y-152553928D01*
X148788380Y-152401547D01*
X148740761Y-152325356D01*
X148693142Y-152287261D01*
X148597904Y-152249166D01*
X148407428Y-152249166D01*
X148312190Y-152287261D01*
X148264571Y-152325356D01*
X148216952Y-152401547D01*
X148788380Y-151944404D02*
X148788380Y-151753928D01*
X148597904Y-151753928D01*
X148550285Y-151830118D01*
X148455047Y-151906309D01*
X148312190Y-151944404D01*
X148074095Y-151944404D01*
X147931238Y-151906309D01*
X147836000Y-151830118D01*
X147788380Y-151715833D01*
X147788380Y-151563452D01*
X147836000Y-151449166D01*
X147931238Y-151372975D01*
X148074095Y-151334880D01*
X148312190Y-151334880D01*
X148455047Y-151372975D01*
X148550285Y-151449166D01*
X148597904Y-151525356D01*
X148788380Y-151525356D01*
X148788380Y-151334880D01*
%TO.C,R9*%
X144343380Y-152096785D02*
X143867190Y-152363452D01*
X144343380Y-152553928D02*
X143343380Y-152553928D01*
X143343380Y-152249166D01*
X143391000Y-152172976D01*
X143438619Y-152134881D01*
X143533857Y-152096785D01*
X143676714Y-152096785D01*
X143771952Y-152134881D01*
X143819571Y-152172976D01*
X143867190Y-152249166D01*
X143867190Y-152553928D01*
X144343380Y-151715833D02*
X144343380Y-151563452D01*
X144295761Y-151487262D01*
X144248142Y-151449166D01*
X144105285Y-151372976D01*
X143914809Y-151334881D01*
X143533857Y-151334881D01*
X143438619Y-151372976D01*
X143391000Y-151411071D01*
X143343380Y-151487262D01*
X143343380Y-151639643D01*
X143391000Y-151715833D01*
X143438619Y-151753928D01*
X143533857Y-151792024D01*
X143771952Y-151792024D01*
X143867190Y-151753928D01*
X143914809Y-151715833D01*
X143962428Y-151639643D01*
X143962428Y-151487262D01*
X143914809Y-151411071D01*
X143867190Y-151372976D01*
X143771952Y-151334881D01*
X145740380Y-153772976D02*
X145740380Y-154230119D01*
X145740380Y-154001547D02*
X144740380Y-154001547D01*
X144883238Y-154077738D01*
X144978476Y-154153928D01*
X145026095Y-154230119D01*
X145168952Y-153315833D02*
X145121333Y-153392023D01*
X145073714Y-153430119D01*
X144978476Y-153468214D01*
X144930857Y-153468214D01*
X144835619Y-153430119D01*
X144788000Y-153392023D01*
X144740380Y-153315833D01*
X144740380Y-153163452D01*
X144788000Y-153087261D01*
X144835619Y-153049166D01*
X144930857Y-153011071D01*
X144978476Y-153011071D01*
X145073714Y-153049166D01*
X145121333Y-153087261D01*
X145168952Y-153163452D01*
X145168952Y-153315833D01*
X145216571Y-153392023D01*
X145264190Y-153430119D01*
X145359428Y-153468214D01*
X145549904Y-153468214D01*
X145645142Y-153430119D01*
X145692761Y-153392023D01*
X145740380Y-153315833D01*
X145740380Y-153163452D01*
X145692761Y-153087261D01*
X145645142Y-153049166D01*
X145549904Y-153011071D01*
X145359428Y-153011071D01*
X145264190Y-153049166D01*
X145216571Y-153087261D01*
X145168952Y-153163452D01*
X144740380Y-152515833D02*
X144740380Y-152439642D01*
X144788000Y-152363452D01*
X144835619Y-152325357D01*
X144930857Y-152287261D01*
X145121333Y-152249166D01*
X145359428Y-152249166D01*
X145549904Y-152287261D01*
X145645142Y-152325357D01*
X145692761Y-152363452D01*
X145740380Y-152439642D01*
X145740380Y-152515833D01*
X145692761Y-152592023D01*
X145645142Y-152630119D01*
X145549904Y-152668214D01*
X145359428Y-152706309D01*
X145121333Y-152706309D01*
X144930857Y-152668214D01*
X144835619Y-152630119D01*
X144788000Y-152592023D01*
X144740380Y-152515833D01*
X145740380Y-151944404D02*
X145740380Y-151753928D01*
X145549904Y-151753928D01*
X145502285Y-151830119D01*
X145407047Y-151906309D01*
X145264190Y-151944404D01*
X145026095Y-151944404D01*
X144883238Y-151906309D01*
X144788000Y-151830119D01*
X144740380Y-151715833D01*
X144740380Y-151563452D01*
X144788000Y-151449166D01*
X144883238Y-151372976D01*
X145026095Y-151334880D01*
X145264190Y-151334880D01*
X145407047Y-151372976D01*
X145502285Y-151449166D01*
X145549904Y-151525357D01*
X145740380Y-151525357D01*
X145740380Y-151334880D01*
%TO.C,R8*%
X133167380Y-152096785D02*
X132691190Y-152363452D01*
X133167380Y-152553928D02*
X132167380Y-152553928D01*
X132167380Y-152249166D01*
X132215000Y-152172976D01*
X132262619Y-152134881D01*
X132357857Y-152096785D01*
X132500714Y-152096785D01*
X132595952Y-152134881D01*
X132643571Y-152172976D01*
X132691190Y-152249166D01*
X132691190Y-152553928D01*
X132595952Y-151639643D02*
X132548333Y-151715833D01*
X132500714Y-151753928D01*
X132405476Y-151792024D01*
X132357857Y-151792024D01*
X132262619Y-151753928D01*
X132215000Y-151715833D01*
X132167380Y-151639643D01*
X132167380Y-151487262D01*
X132215000Y-151411071D01*
X132262619Y-151372976D01*
X132357857Y-151334881D01*
X132405476Y-151334881D01*
X132500714Y-151372976D01*
X132548333Y-151411071D01*
X132595952Y-151487262D01*
X132595952Y-151639643D01*
X132643571Y-151715833D01*
X132691190Y-151753928D01*
X132786428Y-151792024D01*
X132976904Y-151792024D01*
X133072142Y-151753928D01*
X133119761Y-151715833D01*
X133167380Y-151639643D01*
X133167380Y-151487262D01*
X133119761Y-151411071D01*
X133072142Y-151372976D01*
X132976904Y-151334881D01*
X132786428Y-151334881D01*
X132691190Y-151372976D01*
X132643571Y-151411071D01*
X132595952Y-151487262D01*
X133564380Y-154268214D02*
X133564380Y-153772976D01*
X133945333Y-154039642D01*
X133945333Y-153925357D01*
X133992952Y-153849166D01*
X134040571Y-153811071D01*
X134135809Y-153772976D01*
X134373904Y-153772976D01*
X134469142Y-153811071D01*
X134516761Y-153849166D01*
X134564380Y-153925357D01*
X134564380Y-154153928D01*
X134516761Y-154230119D01*
X134469142Y-154268214D01*
X133564380Y-153506309D02*
X133564380Y-153011071D01*
X133945333Y-153277738D01*
X133945333Y-153163452D01*
X133992952Y-153087261D01*
X134040571Y-153049166D01*
X134135809Y-153011071D01*
X134373904Y-153011071D01*
X134469142Y-153049166D01*
X134516761Y-153087261D01*
X134564380Y-153163452D01*
X134564380Y-153392023D01*
X134516761Y-153468214D01*
X134469142Y-153506309D01*
X133564380Y-152515833D02*
X133564380Y-152439642D01*
X133612000Y-152363452D01*
X133659619Y-152325357D01*
X133754857Y-152287261D01*
X133945333Y-152249166D01*
X134183428Y-152249166D01*
X134373904Y-152287261D01*
X134469142Y-152325357D01*
X134516761Y-152363452D01*
X134564380Y-152439642D01*
X134564380Y-152515833D01*
X134516761Y-152592023D01*
X134469142Y-152630119D01*
X134373904Y-152668214D01*
X134183428Y-152706309D01*
X133945333Y-152706309D01*
X133754857Y-152668214D01*
X133659619Y-152630119D01*
X133612000Y-152592023D01*
X133564380Y-152515833D01*
X134564380Y-151944404D02*
X134564380Y-151753928D01*
X134373904Y-151753928D01*
X134326285Y-151830119D01*
X134231047Y-151906309D01*
X134088190Y-151944404D01*
X133850095Y-151944404D01*
X133707238Y-151906309D01*
X133612000Y-151830119D01*
X133564380Y-151715833D01*
X133564380Y-151563452D01*
X133612000Y-151449166D01*
X133707238Y-151372976D01*
X133850095Y-151334880D01*
X134088190Y-151334880D01*
X134231047Y-151372976D01*
X134326285Y-151449166D01*
X134373904Y-151525357D01*
X134564380Y-151525357D01*
X134564380Y-151334880D01*
%TO.C,Ra7*%
X118943380Y-152820594D02*
X118467190Y-153087261D01*
X118943380Y-153277737D02*
X117943380Y-153277737D01*
X117943380Y-152972975D01*
X117991000Y-152896785D01*
X118038619Y-152858690D01*
X118133857Y-152820594D01*
X118276714Y-152820594D01*
X118371952Y-152858690D01*
X118419571Y-152896785D01*
X118467190Y-152972975D01*
X118467190Y-153277737D01*
X118943380Y-152134880D02*
X118419571Y-152134880D01*
X118324333Y-152172975D01*
X118276714Y-152249166D01*
X118276714Y-152401547D01*
X118324333Y-152477737D01*
X118895761Y-152134880D02*
X118943380Y-152211071D01*
X118943380Y-152401547D01*
X118895761Y-152477737D01*
X118800523Y-152515833D01*
X118705285Y-152515833D01*
X118610047Y-152477737D01*
X118562428Y-152401547D01*
X118562428Y-152211071D01*
X118514809Y-152134880D01*
X117943380Y-151830118D02*
X117943380Y-151296785D01*
X118943380Y-151639642D01*
X119673714Y-153087261D02*
X120340380Y-153087261D01*
X119292761Y-153277737D02*
X120007047Y-153468214D01*
X120007047Y-152972975D01*
X119340380Y-152744404D02*
X119340380Y-152211071D01*
X120340380Y-152553928D01*
X120340380Y-151944404D02*
X120340380Y-151753928D01*
X120149904Y-151753928D01*
X120102285Y-151830118D01*
X120007047Y-151906309D01*
X119864190Y-151944404D01*
X119626095Y-151944404D01*
X119483238Y-151906309D01*
X119388000Y-151830118D01*
X119340380Y-151715833D01*
X119340380Y-151563452D01*
X119388000Y-151449166D01*
X119483238Y-151372975D01*
X119626095Y-151334880D01*
X119864190Y-151334880D01*
X120007047Y-151372975D01*
X120102285Y-151449166D01*
X120149904Y-151525356D01*
X120340380Y-151525356D01*
X120340380Y-151334880D01*
%TO.C,R7*%
X122181880Y-152141785D02*
X121705690Y-152408452D01*
X122181880Y-152598928D02*
X121181880Y-152598928D01*
X121181880Y-152294166D01*
X121229500Y-152217976D01*
X121277119Y-152179880D01*
X121372357Y-152141785D01*
X121515214Y-152141785D01*
X121610452Y-152179880D01*
X121658071Y-152217976D01*
X121705690Y-152294166D01*
X121705690Y-152598928D01*
X121181880Y-151875119D02*
X121181880Y-151341785D01*
X122181880Y-151684642D01*
X123388380Y-154084642D02*
X123388380Y-154541785D01*
X123388380Y-154313214D02*
X122388380Y-154313214D01*
X122531238Y-154389404D01*
X122626476Y-154465595D01*
X122674095Y-154541785D01*
X123293142Y-153741785D02*
X123340761Y-153703690D01*
X123388380Y-153741785D01*
X123340761Y-153779880D01*
X123293142Y-153741785D01*
X123388380Y-153741785D01*
X122483619Y-153398928D02*
X122436000Y-153360833D01*
X122388380Y-153284642D01*
X122388380Y-153094166D01*
X122436000Y-153017976D01*
X122483619Y-152979880D01*
X122578857Y-152941785D01*
X122674095Y-152941785D01*
X122816952Y-152979880D01*
X123388380Y-153437023D01*
X123388380Y-152941785D01*
X123388380Y-152598928D02*
X122388380Y-152598928D01*
X123007428Y-152522738D02*
X123388380Y-152294166D01*
X122721714Y-152294166D02*
X123102666Y-152598928D01*
X123388380Y-151989404D02*
X123388380Y-151798928D01*
X123197904Y-151798928D01*
X123150285Y-151875119D01*
X123055047Y-151951309D01*
X122912190Y-151989404D01*
X122674095Y-151989404D01*
X122531238Y-151951309D01*
X122436000Y-151875119D01*
X122388380Y-151760833D01*
X122388380Y-151608452D01*
X122436000Y-151494166D01*
X122531238Y-151417976D01*
X122674095Y-151379880D01*
X122912190Y-151379880D01*
X123055047Y-151417976D01*
X123150285Y-151494166D01*
X123197904Y-151570357D01*
X123388380Y-151570357D01*
X123388380Y-151379880D01*
%TO.C,R6*%
X107767380Y-152096785D02*
X107291190Y-152363452D01*
X107767380Y-152553928D02*
X106767380Y-152553928D01*
X106767380Y-152249166D01*
X106815000Y-152172976D01*
X106862619Y-152134881D01*
X106957857Y-152096785D01*
X107100714Y-152096785D01*
X107195952Y-152134881D01*
X107243571Y-152172976D01*
X107291190Y-152249166D01*
X107291190Y-152553928D01*
X106767380Y-151411071D02*
X106767380Y-151563452D01*
X106815000Y-151639643D01*
X106862619Y-151677738D01*
X107005476Y-151753928D01*
X107195952Y-151792024D01*
X107576904Y-151792024D01*
X107672142Y-151753928D01*
X107719761Y-151715833D01*
X107767380Y-151639643D01*
X107767380Y-151487262D01*
X107719761Y-151411071D01*
X107672142Y-151372976D01*
X107576904Y-151334881D01*
X107338809Y-151334881D01*
X107243571Y-151372976D01*
X107195952Y-151411071D01*
X107148333Y-151487262D01*
X107148333Y-151639643D01*
X107195952Y-151715833D01*
X107243571Y-151753928D01*
X107338809Y-151792024D01*
X109164380Y-154039643D02*
X109164380Y-154496786D01*
X109164380Y-154268214D02*
X108164380Y-154268214D01*
X108307238Y-154344405D01*
X108402476Y-154420595D01*
X108450095Y-154496786D01*
X109069142Y-153696786D02*
X109116761Y-153658690D01*
X109164380Y-153696786D01*
X109116761Y-153734881D01*
X109069142Y-153696786D01*
X109164380Y-153696786D01*
X108164380Y-152934881D02*
X108164380Y-153315833D01*
X108640571Y-153353928D01*
X108592952Y-153315833D01*
X108545333Y-153239643D01*
X108545333Y-153049167D01*
X108592952Y-152972976D01*
X108640571Y-152934881D01*
X108735809Y-152896786D01*
X108973904Y-152896786D01*
X109069142Y-152934881D01*
X109116761Y-152972976D01*
X109164380Y-153049167D01*
X109164380Y-153239643D01*
X109116761Y-153315833D01*
X109069142Y-153353928D01*
X109164380Y-152553928D02*
X108164380Y-152553928D01*
X108783428Y-152477738D02*
X109164380Y-152249167D01*
X108497714Y-152249167D02*
X108878666Y-152553928D01*
X109164380Y-151944405D02*
X109164380Y-151753928D01*
X108973904Y-151753928D01*
X108926285Y-151830119D01*
X108831047Y-151906309D01*
X108688190Y-151944405D01*
X108450095Y-151944405D01*
X108307238Y-151906309D01*
X108212000Y-151830119D01*
X108164380Y-151715833D01*
X108164380Y-151563452D01*
X108212000Y-151449167D01*
X108307238Y-151372976D01*
X108450095Y-151334881D01*
X108688190Y-151334881D01*
X108831047Y-151372976D01*
X108926285Y-151449167D01*
X108973904Y-151525357D01*
X109164380Y-151525357D01*
X109164380Y-151334881D01*
%TO.C,D5*%
X145867380Y-127204809D02*
X144867380Y-127204809D01*
X144867380Y-127014333D01*
X144915000Y-126900047D01*
X145010238Y-126823856D01*
X145105476Y-126785761D01*
X145295952Y-126747666D01*
X145438809Y-126747666D01*
X145629285Y-126785761D01*
X145724523Y-126823856D01*
X145819761Y-126900047D01*
X145867380Y-127014333D01*
X145867380Y-127204809D01*
X144867380Y-126023856D02*
X144867380Y-126404809D01*
X145343571Y-126442904D01*
X145295952Y-126404809D01*
X145248333Y-126328618D01*
X145248333Y-126138142D01*
X145295952Y-126061952D01*
X145343571Y-126023856D01*
X145438809Y-125985761D01*
X145676904Y-125985761D01*
X145772142Y-126023856D01*
X145819761Y-126061952D01*
X145867380Y-126138142D01*
X145867380Y-126328618D01*
X145819761Y-126404809D01*
X145772142Y-126442904D01*
X147391380Y-126861952D02*
X147391380Y-127261952D01*
X147391380Y-127061952D02*
X146391380Y-127061952D01*
X146534238Y-127128618D01*
X146629476Y-127195285D01*
X146677095Y-127261952D01*
X147391380Y-126561952D02*
X146391380Y-126561952D01*
X147391380Y-126161952D01*
X146391380Y-126161952D01*
X146724714Y-125528618D02*
X147391380Y-125528618D01*
X146343761Y-125695285D02*
X147058047Y-125861952D01*
X147058047Y-125428618D01*
X147391380Y-125128618D02*
X147391380Y-124995285D01*
X147343761Y-124928618D01*
X147296142Y-124895285D01*
X147153285Y-124828618D01*
X146962809Y-124795285D01*
X146581857Y-124795285D01*
X146486619Y-124828618D01*
X146439000Y-124861952D01*
X146391380Y-124928618D01*
X146391380Y-125061952D01*
X146439000Y-125128618D01*
X146486619Y-125161952D01*
X146581857Y-125195285D01*
X146819952Y-125195285D01*
X146915190Y-125161952D01*
X146962809Y-125128618D01*
X147010428Y-125061952D01*
X147010428Y-124928618D01*
X146962809Y-124861952D01*
X146915190Y-124828618D01*
X146819952Y-124795285D01*
X146391380Y-124561952D02*
X146391380Y-124128618D01*
X146772333Y-124361952D01*
X146772333Y-124261952D01*
X146819952Y-124195285D01*
X146867571Y-124161952D01*
X146962809Y-124128618D01*
X147200904Y-124128618D01*
X147296142Y-124161952D01*
X147343761Y-124195285D01*
X147391380Y-124261952D01*
X147391380Y-124461952D01*
X147343761Y-124528618D01*
X147296142Y-124561952D01*
X146724714Y-123528618D02*
X147391380Y-123528618D01*
X146343761Y-123695285D02*
X147058047Y-123861952D01*
X147058047Y-123428618D01*
%TO.C,R1*%
X133167380Y-126725165D02*
X132691190Y-126991832D01*
X133167380Y-127182308D02*
X132167380Y-127182308D01*
X132167380Y-126877546D01*
X132215000Y-126801356D01*
X132262619Y-126763261D01*
X132357857Y-126725165D01*
X132500714Y-126725165D01*
X132595952Y-126763261D01*
X132643571Y-126801356D01*
X132691190Y-126877546D01*
X132691190Y-127182308D01*
X133167380Y-125963261D02*
X133167380Y-126420404D01*
X133167380Y-126191832D02*
X132167380Y-126191832D01*
X132310238Y-126268023D01*
X132405476Y-126344213D01*
X132453095Y-126420404D01*
X134691380Y-126763261D02*
X134691380Y-127220404D01*
X134691380Y-126991832D02*
X133691380Y-126991832D01*
X133834238Y-127068023D01*
X133929476Y-127144213D01*
X133977095Y-127220404D01*
X133786619Y-126458499D02*
X133739000Y-126420404D01*
X133691380Y-126344213D01*
X133691380Y-126153737D01*
X133739000Y-126077546D01*
X133786619Y-126039451D01*
X133881857Y-126001356D01*
X133977095Y-126001356D01*
X134119952Y-126039451D01*
X134691380Y-126496594D01*
X134691380Y-126001356D01*
X133691380Y-125506118D02*
X133691380Y-125429927D01*
X133739000Y-125353737D01*
X133786619Y-125315642D01*
X133881857Y-125277546D01*
X134072333Y-125239451D01*
X134310428Y-125239451D01*
X134500904Y-125277546D01*
X134596142Y-125315642D01*
X134643761Y-125353737D01*
X134691380Y-125429927D01*
X134691380Y-125506118D01*
X134643761Y-125582308D01*
X134596142Y-125620404D01*
X134500904Y-125658499D01*
X134310428Y-125696594D01*
X134072333Y-125696594D01*
X133881857Y-125658499D01*
X133786619Y-125620404D01*
X133739000Y-125582308D01*
X133691380Y-125506118D01*
X134691380Y-124934689D02*
X134691380Y-124744213D01*
X134500904Y-124744213D01*
X134453285Y-124820404D01*
X134358047Y-124896594D01*
X134215190Y-124934689D01*
X133977095Y-124934689D01*
X133834238Y-124896594D01*
X133739000Y-124820404D01*
X133691380Y-124706118D01*
X133691380Y-124553737D01*
X133739000Y-124439451D01*
X133834238Y-124363261D01*
X133977095Y-124325165D01*
X134215190Y-124325165D01*
X134358047Y-124363261D01*
X134453285Y-124439451D01*
X134500904Y-124515642D01*
X134691380Y-124515642D01*
X134691380Y-124325165D01*
%TO.C,R2*%
X106243380Y-126725165D02*
X105767190Y-126991832D01*
X106243380Y-127182308D02*
X105243380Y-127182308D01*
X105243380Y-126877546D01*
X105291000Y-126801356D01*
X105338619Y-126763261D01*
X105433857Y-126725165D01*
X105576714Y-126725165D01*
X105671952Y-126763261D01*
X105719571Y-126801356D01*
X105767190Y-126877546D01*
X105767190Y-127182308D01*
X105338619Y-126420404D02*
X105291000Y-126382308D01*
X105243380Y-126306118D01*
X105243380Y-126115642D01*
X105291000Y-126039451D01*
X105338619Y-126001356D01*
X105433857Y-125963261D01*
X105529095Y-125963261D01*
X105671952Y-126001356D01*
X106243380Y-126458499D01*
X106243380Y-125963261D01*
X106608619Y-127220404D02*
X106561000Y-127182308D01*
X106513380Y-127106118D01*
X106513380Y-126915642D01*
X106561000Y-126839451D01*
X106608619Y-126801356D01*
X106703857Y-126763261D01*
X106799095Y-126763261D01*
X106941952Y-126801356D01*
X107513380Y-127258499D01*
X107513380Y-126763261D01*
X107418142Y-126420404D02*
X107465761Y-126382308D01*
X107513380Y-126420404D01*
X107465761Y-126458499D01*
X107418142Y-126420404D01*
X107513380Y-126420404D01*
X106513380Y-126115642D02*
X106513380Y-125582308D01*
X107513380Y-125925165D01*
X107513380Y-125277546D02*
X106513380Y-125277546D01*
X107132428Y-125201356D02*
X107513380Y-124972785D01*
X106846714Y-124972785D02*
X107227666Y-125277546D01*
X107513380Y-124668023D02*
X107513380Y-124477546D01*
X107322904Y-124477546D01*
X107275285Y-124553737D01*
X107180047Y-124629927D01*
X107037190Y-124668023D01*
X106799095Y-124668023D01*
X106656238Y-124629927D01*
X106561000Y-124553737D01*
X106513380Y-124439451D01*
X106513380Y-124287070D01*
X106561000Y-124172785D01*
X106656238Y-124096594D01*
X106799095Y-124058499D01*
X107037190Y-124058499D01*
X107180047Y-124096594D01*
X107275285Y-124172785D01*
X107322904Y-124248975D01*
X107513380Y-124248975D01*
X107513380Y-124058499D01*
%TO.C,Ra2*%
X109354880Y-126770166D02*
X108878690Y-127036832D01*
X109354880Y-127227309D02*
X108354880Y-127227309D01*
X108354880Y-126922547D01*
X108402500Y-126846356D01*
X108450119Y-126808261D01*
X108545357Y-126770166D01*
X108688214Y-126770166D01*
X108783452Y-126808261D01*
X108831071Y-126846356D01*
X108878690Y-126922547D01*
X108878690Y-127227309D01*
X109354880Y-126084451D02*
X108831071Y-126084451D01*
X108735833Y-126122547D01*
X108688214Y-126198737D01*
X108688214Y-126351118D01*
X108735833Y-126427309D01*
X109307261Y-126084451D02*
X109354880Y-126160642D01*
X109354880Y-126351118D01*
X109307261Y-126427309D01*
X109212023Y-126465404D01*
X109116785Y-126465404D01*
X109021547Y-126427309D01*
X108973928Y-126351118D01*
X108973928Y-126160642D01*
X108926309Y-126084451D01*
X108450119Y-125741594D02*
X108402500Y-125703499D01*
X108354880Y-125627309D01*
X108354880Y-125436832D01*
X108402500Y-125360642D01*
X108450119Y-125322547D01*
X108545357Y-125284451D01*
X108640595Y-125284451D01*
X108783452Y-125322547D01*
X109354880Y-125779690D01*
X109354880Y-125284451D01*
X109624880Y-127303499D02*
X109624880Y-126808261D01*
X110005833Y-127074928D01*
X110005833Y-126960642D01*
X110053452Y-126884451D01*
X110101071Y-126846356D01*
X110196309Y-126808261D01*
X110434404Y-126808261D01*
X110529642Y-126846356D01*
X110577261Y-126884451D01*
X110624880Y-126960642D01*
X110624880Y-127189213D01*
X110577261Y-127265404D01*
X110529642Y-127303499D01*
X110624880Y-126427309D02*
X110624880Y-126274928D01*
X110577261Y-126198737D01*
X110529642Y-126160642D01*
X110386785Y-126084451D01*
X110196309Y-126046356D01*
X109815357Y-126046356D01*
X109720119Y-126084451D01*
X109672500Y-126122547D01*
X109624880Y-126198737D01*
X109624880Y-126351118D01*
X109672500Y-126427309D01*
X109720119Y-126465404D01*
X109815357Y-126503499D01*
X110053452Y-126503499D01*
X110148690Y-126465404D01*
X110196309Y-126427309D01*
X110243928Y-126351118D01*
X110243928Y-126198737D01*
X110196309Y-126122547D01*
X110148690Y-126084451D01*
X110053452Y-126046356D01*
X110624880Y-125741594D02*
X110624880Y-125551118D01*
X110434404Y-125551118D01*
X110386785Y-125627309D01*
X110291547Y-125703499D01*
X110148690Y-125741594D01*
X109910595Y-125741594D01*
X109767738Y-125703499D01*
X109672500Y-125627309D01*
X109624880Y-125513023D01*
X109624880Y-125360642D01*
X109672500Y-125246356D01*
X109767738Y-125170166D01*
X109910595Y-125132070D01*
X110148690Y-125132070D01*
X110291547Y-125170166D01*
X110386785Y-125246356D01*
X110434404Y-125322547D01*
X110624880Y-125322547D01*
X110624880Y-125132070D01*
%TO.C,R3*%
X118943380Y-126725165D02*
X118467190Y-126991832D01*
X118943380Y-127182308D02*
X117943380Y-127182308D01*
X117943380Y-126877546D01*
X117991000Y-126801356D01*
X118038619Y-126763261D01*
X118133857Y-126725165D01*
X118276714Y-126725165D01*
X118371952Y-126763261D01*
X118419571Y-126801356D01*
X118467190Y-126877546D01*
X118467190Y-127182308D01*
X117943380Y-126458499D02*
X117943380Y-125963261D01*
X118324333Y-126229927D01*
X118324333Y-126115642D01*
X118371952Y-126039451D01*
X118419571Y-126001356D01*
X118514809Y-125963261D01*
X118752904Y-125963261D01*
X118848142Y-126001356D01*
X118895761Y-126039451D01*
X118943380Y-126115642D01*
X118943380Y-126344213D01*
X118895761Y-126420404D01*
X118848142Y-126458499D01*
X120213380Y-126763261D02*
X120213380Y-127220404D01*
X120213380Y-126991832D02*
X119213380Y-126991832D01*
X119356238Y-127068023D01*
X119451476Y-127144213D01*
X119499095Y-127220404D01*
X120118142Y-126420404D02*
X120165761Y-126382308D01*
X120213380Y-126420404D01*
X120165761Y-126458499D01*
X120118142Y-126420404D01*
X120213380Y-126420404D01*
X119213380Y-126115642D02*
X119213380Y-125620404D01*
X119594333Y-125887070D01*
X119594333Y-125772785D01*
X119641952Y-125696594D01*
X119689571Y-125658499D01*
X119784809Y-125620404D01*
X120022904Y-125620404D01*
X120118142Y-125658499D01*
X120165761Y-125696594D01*
X120213380Y-125772785D01*
X120213380Y-126001356D01*
X120165761Y-126077546D01*
X120118142Y-126115642D01*
X120213380Y-125277546D02*
X119213380Y-125277546D01*
X119832428Y-125201356D02*
X120213380Y-124972785D01*
X119546714Y-124972785D02*
X119927666Y-125277546D01*
X120213380Y-124668023D02*
X120213380Y-124477546D01*
X120022904Y-124477546D01*
X119975285Y-124553737D01*
X119880047Y-124629927D01*
X119737190Y-124668023D01*
X119499095Y-124668023D01*
X119356238Y-124629927D01*
X119261000Y-124553737D01*
X119213380Y-124439451D01*
X119213380Y-124287070D01*
X119261000Y-124172785D01*
X119356238Y-124096594D01*
X119499095Y-124058499D01*
X119737190Y-124058499D01*
X119880047Y-124096594D01*
X119975285Y-124172785D01*
X120022904Y-124248975D01*
X120213380Y-124248975D01*
X120213380Y-124058499D01*
%TO.C,R4*%
X122118380Y-126725165D02*
X121642190Y-126991832D01*
X122118380Y-127182308D02*
X121118380Y-127182308D01*
X121118380Y-126877546D01*
X121166000Y-126801356D01*
X121213619Y-126763261D01*
X121308857Y-126725165D01*
X121451714Y-126725165D01*
X121546952Y-126763261D01*
X121594571Y-126801356D01*
X121642190Y-126877546D01*
X121642190Y-127182308D01*
X121451714Y-126039451D02*
X122118380Y-126039451D01*
X121070761Y-126229927D02*
X121785047Y-126420404D01*
X121785047Y-125925165D01*
X122483619Y-127220404D02*
X122436000Y-127182308D01*
X122388380Y-127106118D01*
X122388380Y-126915642D01*
X122436000Y-126839451D01*
X122483619Y-126801356D01*
X122578857Y-126763261D01*
X122674095Y-126763261D01*
X122816952Y-126801356D01*
X123388380Y-127258499D01*
X123388380Y-126763261D01*
X122388380Y-126496594D02*
X122388380Y-125963261D01*
X123388380Y-126306118D01*
X122388380Y-125506118D02*
X122388380Y-125429927D01*
X122436000Y-125353737D01*
X122483619Y-125315642D01*
X122578857Y-125277546D01*
X122769333Y-125239451D01*
X123007428Y-125239451D01*
X123197904Y-125277546D01*
X123293142Y-125315642D01*
X123340761Y-125353737D01*
X123388380Y-125429927D01*
X123388380Y-125506118D01*
X123340761Y-125582308D01*
X123293142Y-125620404D01*
X123197904Y-125658499D01*
X123007428Y-125696594D01*
X122769333Y-125696594D01*
X122578857Y-125658499D01*
X122483619Y-125620404D01*
X122436000Y-125582308D01*
X122388380Y-125506118D01*
X123388380Y-124934689D02*
X123388380Y-124744213D01*
X123197904Y-124744213D01*
X123150285Y-124820404D01*
X123055047Y-124896594D01*
X122912190Y-124934689D01*
X122674095Y-124934689D01*
X122531238Y-124896594D01*
X122436000Y-124820404D01*
X122388380Y-124706118D01*
X122388380Y-124553737D01*
X122436000Y-124439451D01*
X122531238Y-124363261D01*
X122674095Y-124325165D01*
X122912190Y-124325165D01*
X123055047Y-124363261D01*
X123150285Y-124439451D01*
X123197904Y-124515642D01*
X123388380Y-124515642D01*
X123388380Y-124325165D01*
%TO.C,S2*%
X111247880Y-139723761D02*
X111362166Y-139771380D01*
X111552642Y-139771380D01*
X111628833Y-139723761D01*
X111666928Y-139676142D01*
X111705023Y-139580904D01*
X111705023Y-139485666D01*
X111666928Y-139390428D01*
X111628833Y-139342809D01*
X111552642Y-139295190D01*
X111400261Y-139247571D01*
X111324071Y-139199952D01*
X111285976Y-139152333D01*
X111247880Y-139057095D01*
X111247880Y-138961857D01*
X111285976Y-138866619D01*
X111324071Y-138819000D01*
X111400261Y-138771380D01*
X111590738Y-138771380D01*
X111705023Y-138819000D01*
X112009785Y-138866619D02*
X112047880Y-138819000D01*
X112124071Y-138771380D01*
X112314547Y-138771380D01*
X112390738Y-138819000D01*
X112428833Y-138866619D01*
X112466928Y-138961857D01*
X112466928Y-139057095D01*
X112428833Y-139199952D01*
X111971690Y-139771380D01*
X112466928Y-139771380D01*
%TO.C,S3*%
X123947880Y-139723761D02*
X124062166Y-139771380D01*
X124252642Y-139771380D01*
X124328833Y-139723761D01*
X124366928Y-139676142D01*
X124405023Y-139580904D01*
X124405023Y-139485666D01*
X124366928Y-139390428D01*
X124328833Y-139342809D01*
X124252642Y-139295190D01*
X124100261Y-139247571D01*
X124024071Y-139199952D01*
X123985976Y-139152333D01*
X123947880Y-139057095D01*
X123947880Y-138961857D01*
X123985976Y-138866619D01*
X124024071Y-138819000D01*
X124100261Y-138771380D01*
X124290738Y-138771380D01*
X124405023Y-138819000D01*
X124671690Y-138771380D02*
X125166928Y-138771380D01*
X124900261Y-139152333D01*
X125014547Y-139152333D01*
X125090738Y-139199952D01*
X125128833Y-139247571D01*
X125166928Y-139342809D01*
X125166928Y-139580904D01*
X125128833Y-139676142D01*
X125090738Y-139723761D01*
X125014547Y-139771380D01*
X124785976Y-139771380D01*
X124709785Y-139723761D01*
X124671690Y-139676142D01*
%TO.C,S4*%
X136647880Y-139723761D02*
X136762166Y-139771380D01*
X136952642Y-139771380D01*
X137028833Y-139723761D01*
X137066928Y-139676142D01*
X137105023Y-139580904D01*
X137105023Y-139485666D01*
X137066928Y-139390428D01*
X137028833Y-139342809D01*
X136952642Y-139295190D01*
X136800261Y-139247571D01*
X136724071Y-139199952D01*
X136685976Y-139152333D01*
X136647880Y-139057095D01*
X136647880Y-138961857D01*
X136685976Y-138866619D01*
X136724071Y-138819000D01*
X136800261Y-138771380D01*
X136990738Y-138771380D01*
X137105023Y-138819000D01*
X137790738Y-139104714D02*
X137790738Y-139771380D01*
X137600261Y-138723761D02*
X137409785Y-139438047D01*
X137905023Y-139438047D01*
%TO.C,S5*%
X149347880Y-139723761D02*
X149462166Y-139771380D01*
X149652642Y-139771380D01*
X149728833Y-139723761D01*
X149766928Y-139676142D01*
X149805023Y-139580904D01*
X149805023Y-139485666D01*
X149766928Y-139390428D01*
X149728833Y-139342809D01*
X149652642Y-139295190D01*
X149500261Y-139247571D01*
X149424071Y-139199952D01*
X149385976Y-139152333D01*
X149347880Y-139057095D01*
X149347880Y-138961857D01*
X149385976Y-138866619D01*
X149424071Y-138819000D01*
X149500261Y-138771380D01*
X149690738Y-138771380D01*
X149805023Y-138819000D01*
X150528833Y-138771380D02*
X150147880Y-138771380D01*
X150109785Y-139247571D01*
X150147880Y-139199952D01*
X150224071Y-139152333D01*
X150414547Y-139152333D01*
X150490738Y-139199952D01*
X150528833Y-139247571D01*
X150566928Y-139342809D01*
X150566928Y-139580904D01*
X150528833Y-139676142D01*
X150490738Y-139723761D01*
X150414547Y-139771380D01*
X150224071Y-139771380D01*
X150147880Y-139723761D01*
X150109785Y-139676142D01*
%TO.C,S1*%
X98547880Y-139723761D02*
X98662166Y-139771380D01*
X98852642Y-139771380D01*
X98928833Y-139723761D01*
X98966928Y-139676142D01*
X99005023Y-139580904D01*
X99005023Y-139485666D01*
X98966928Y-139390428D01*
X98928833Y-139342809D01*
X98852642Y-139295190D01*
X98700261Y-139247571D01*
X98624071Y-139199952D01*
X98585976Y-139152333D01*
X98547880Y-139057095D01*
X98547880Y-138961857D01*
X98585976Y-138866619D01*
X98624071Y-138819000D01*
X98700261Y-138771380D01*
X98890738Y-138771380D01*
X99005023Y-138819000D01*
X99766928Y-139771380D02*
X99309785Y-139771380D01*
X99538357Y-139771380D02*
X99538357Y-138771380D01*
X99462166Y-138914238D01*
X99385976Y-139009476D01*
X99309785Y-139057095D01*
%TD*%
M02*
