%TF.GenerationSoftware,KiCad,Pcbnew,(5.1.7-0-10_14)*%
%TF.CreationDate,2021-01-17T02:16:49+01:00*%
%TF.ProjectId,CP-PP-miniEVsimulator,43502d50-502d-46d6-996e-69455673696d,rev?*%
%TF.SameCoordinates,Original*%
%TF.FileFunction,Legend,Bot*%
%TF.FilePolarity,Positive*%
%FSLAX46Y46*%
G04 Gerber Fmt 4.6, Leading zero omitted, Abs format (unit mm)*
G04 Created by KiCad (PCBNEW (5.1.7-0-10_14)) date 2021-01-17 02:16:49*
%MOMM*%
%LPD*%
G01*
G04 APERTURE LIST*
%ADD10C,0.200000*%
%ADD11C,0.120000*%
%ADD12C,0.010000*%
%ADD13C,0.150000*%
G04 APERTURE END LIST*
D10*
X148744857Y-152945428D02*
X148673428Y-152831142D01*
X148673428Y-152602571D01*
X148744857Y-152488285D01*
X148887714Y-152431142D01*
X148959142Y-152431142D01*
X149102000Y-152488285D01*
X149173428Y-152602571D01*
X149173428Y-152774000D01*
X149244857Y-152888285D01*
X149387714Y-152945428D01*
X149459142Y-152945428D01*
X149602000Y-152888285D01*
X149673428Y-152774000D01*
X149673428Y-152602571D01*
X149602000Y-152488285D01*
X148673428Y-151916857D02*
X150173428Y-151916857D01*
X148673428Y-151402571D02*
X149459142Y-151402571D01*
X149602000Y-151459714D01*
X149673428Y-151574000D01*
X149673428Y-151745428D01*
X149602000Y-151859714D01*
X149530571Y-151916857D01*
X148673428Y-150659714D02*
X148744857Y-150774000D01*
X148816285Y-150831142D01*
X148959142Y-150888285D01*
X149387714Y-150888285D01*
X149530571Y-150831142D01*
X149602000Y-150774000D01*
X149673428Y-150659714D01*
X149673428Y-150488285D01*
X149602000Y-150374000D01*
X149530571Y-150316857D01*
X149387714Y-150259714D01*
X148959142Y-150259714D01*
X148816285Y-150316857D01*
X148744857Y-150374000D01*
X148673428Y-150488285D01*
X148673428Y-150659714D01*
X148673428Y-149745428D02*
X149673428Y-149745428D01*
X149387714Y-149745428D02*
X149530571Y-149688285D01*
X149602000Y-149631142D01*
X149673428Y-149516857D01*
X149673428Y-149402571D01*
X149673428Y-149174000D02*
X149673428Y-148716857D01*
X150173428Y-149002571D02*
X148887714Y-149002571D01*
X148744857Y-148945428D01*
X148673428Y-148831142D01*
X148673428Y-148716857D01*
X148744857Y-146888285D02*
X148673428Y-147002571D01*
X148673428Y-147231142D01*
X148744857Y-147345428D01*
X148816285Y-147402571D01*
X148959142Y-147459714D01*
X149387714Y-147459714D01*
X149530571Y-147402571D01*
X149602000Y-147345428D01*
X149673428Y-147231142D01*
X149673428Y-147002571D01*
X149602000Y-146888285D01*
X148673428Y-146374000D02*
X149673428Y-146374000D01*
X150173428Y-146374000D02*
X150102000Y-146431142D01*
X150030571Y-146374000D01*
X150102000Y-146316857D01*
X150173428Y-146374000D01*
X150030571Y-146374000D01*
X148673428Y-145802571D02*
X149673428Y-145802571D01*
X149387714Y-145802571D02*
X149530571Y-145745428D01*
X149602000Y-145688285D01*
X149673428Y-145574000D01*
X149673428Y-145459714D01*
X148744857Y-144545428D02*
X148673428Y-144659714D01*
X148673428Y-144888285D01*
X148744857Y-145002571D01*
X148816285Y-145059714D01*
X148959142Y-145116857D01*
X149387714Y-145116857D01*
X149530571Y-145059714D01*
X149602000Y-145002571D01*
X149673428Y-144888285D01*
X149673428Y-144659714D01*
X149602000Y-144545428D01*
X149673428Y-143516857D02*
X148673428Y-143516857D01*
X149673428Y-144031142D02*
X148887714Y-144031142D01*
X148744857Y-143974000D01*
X148673428Y-143859714D01*
X148673428Y-143688285D01*
X148744857Y-143574000D01*
X148816285Y-143516857D01*
X148673428Y-142945428D02*
X149673428Y-142945428D01*
X150173428Y-142945428D02*
X150102000Y-143002571D01*
X150030571Y-142945428D01*
X150102000Y-142888285D01*
X150173428Y-142945428D01*
X150030571Y-142945428D01*
X149673428Y-142545428D02*
X149673428Y-142088285D01*
X150173428Y-142374000D02*
X148887714Y-142374000D01*
X148744857Y-142316857D01*
X148673428Y-142202571D01*
X148673428Y-142088285D01*
X137092428Y-148558142D02*
X137092428Y-148786714D01*
X137021000Y-148901000D01*
X136949571Y-148958142D01*
X136735285Y-149072428D01*
X136449571Y-149129571D01*
X135878142Y-149129571D01*
X135735285Y-149072428D01*
X135663857Y-149015285D01*
X135592428Y-148901000D01*
X135592428Y-148672428D01*
X135663857Y-148558142D01*
X135735285Y-148501000D01*
X135878142Y-148443857D01*
X136235285Y-148443857D01*
X136378142Y-148501000D01*
X136449571Y-148558142D01*
X136521000Y-148672428D01*
X136521000Y-148901000D01*
X136449571Y-149015285D01*
X136378142Y-149072428D01*
X136235285Y-149129571D01*
X137092428Y-148043857D02*
X137092428Y-147301000D01*
X136521000Y-147701000D01*
X136521000Y-147529571D01*
X136449571Y-147415285D01*
X136378142Y-147358142D01*
X136235285Y-147301000D01*
X135878142Y-147301000D01*
X135735285Y-147358142D01*
X135663857Y-147415285D01*
X135592428Y-147529571D01*
X135592428Y-147872428D01*
X135663857Y-147986714D01*
X135735285Y-148043857D01*
X136021000Y-146843857D02*
X136021000Y-146272428D01*
X135592428Y-146958142D02*
X137092428Y-146558142D01*
X135592428Y-146158142D01*
X124392428Y-149186714D02*
X124392428Y-148443857D01*
X123821000Y-148843857D01*
X123821000Y-148672428D01*
X123749571Y-148558142D01*
X123678142Y-148501000D01*
X123535285Y-148443857D01*
X123178142Y-148443857D01*
X123035285Y-148501000D01*
X122963857Y-148558142D01*
X122892428Y-148672428D01*
X122892428Y-149015285D01*
X122963857Y-149129571D01*
X123035285Y-149186714D01*
X124249571Y-147986714D02*
X124321000Y-147929571D01*
X124392428Y-147815285D01*
X124392428Y-147529571D01*
X124321000Y-147415285D01*
X124249571Y-147358142D01*
X124106714Y-147301000D01*
X123963857Y-147301000D01*
X123749571Y-147358142D01*
X122892428Y-148043857D01*
X122892428Y-147301000D01*
X123321000Y-146843857D02*
X123321000Y-146272428D01*
X122892428Y-146958142D02*
X124392428Y-146558142D01*
X122892428Y-146158142D01*
X111549571Y-148748571D02*
X111621000Y-148691428D01*
X111692428Y-148577142D01*
X111692428Y-148291428D01*
X111621000Y-148177142D01*
X111549571Y-148120000D01*
X111406714Y-148062857D01*
X111263857Y-148062857D01*
X111049571Y-148120000D01*
X110192428Y-148805714D01*
X110192428Y-148062857D01*
X111692428Y-147320000D02*
X111692428Y-147205714D01*
X111621000Y-147091428D01*
X111549571Y-147034285D01*
X111406714Y-146977142D01*
X111121000Y-146920000D01*
X110763857Y-146920000D01*
X110478142Y-146977142D01*
X110335285Y-147034285D01*
X110263857Y-147091428D01*
X110192428Y-147205714D01*
X110192428Y-147320000D01*
X110263857Y-147434285D01*
X110335285Y-147491428D01*
X110478142Y-147548571D01*
X110763857Y-147605714D01*
X111121000Y-147605714D01*
X111406714Y-147548571D01*
X111549571Y-147491428D01*
X111621000Y-147434285D01*
X111692428Y-147320000D01*
X110621000Y-146462857D02*
X110621000Y-145891428D01*
X110192428Y-146577142D02*
X111692428Y-146177142D01*
X110192428Y-145777142D01*
X97492428Y-148062857D02*
X97492428Y-148748571D01*
X97492428Y-148405714D02*
X98992428Y-148405714D01*
X98778142Y-148520000D01*
X98635285Y-148634285D01*
X98563857Y-148748571D01*
X98992428Y-147662857D02*
X98992428Y-146920000D01*
X98421000Y-147320000D01*
X98421000Y-147148571D01*
X98349571Y-147034285D01*
X98278142Y-146977142D01*
X98135285Y-146920000D01*
X97778142Y-146920000D01*
X97635285Y-146977142D01*
X97563857Y-147034285D01*
X97492428Y-147148571D01*
X97492428Y-147491428D01*
X97563857Y-147605714D01*
X97635285Y-147662857D01*
X97921000Y-146462857D02*
X97921000Y-145891428D01*
X97492428Y-146577142D02*
X98992428Y-146177142D01*
X97492428Y-145777142D01*
X118897285Y-155618571D02*
X118897285Y-154118571D01*
X118440142Y-154118571D01*
X118325857Y-154190000D01*
X118268714Y-154261428D01*
X118211571Y-154404285D01*
X118211571Y-154618571D01*
X118268714Y-154761428D01*
X118325857Y-154832857D01*
X118440142Y-154904285D01*
X118897285Y-154904285D01*
X117697285Y-155618571D02*
X117697285Y-154118571D01*
X117240142Y-154118571D01*
X117125857Y-154190000D01*
X117068714Y-154261428D01*
X117011571Y-154404285D01*
X117011571Y-154618571D01*
X117068714Y-154761428D01*
X117125857Y-154832857D01*
X117240142Y-154904285D01*
X117697285Y-154904285D01*
X97563857Y-134794285D02*
X97492428Y-134908571D01*
X97492428Y-135137142D01*
X97563857Y-135251428D01*
X97635285Y-135308571D01*
X97778142Y-135365714D01*
X98206714Y-135365714D01*
X98349571Y-135308571D01*
X98421000Y-135251428D01*
X98492428Y-135137142D01*
X98492428Y-134908571D01*
X98421000Y-134794285D01*
X97492428Y-134108571D02*
X97563857Y-134222857D01*
X97635285Y-134280000D01*
X97778142Y-134337142D01*
X98206714Y-134337142D01*
X98349571Y-134280000D01*
X98421000Y-134222857D01*
X98492428Y-134108571D01*
X98492428Y-133937142D01*
X98421000Y-133822857D01*
X98349571Y-133765714D01*
X98206714Y-133708571D01*
X97778142Y-133708571D01*
X97635285Y-133765714D01*
X97563857Y-133822857D01*
X97492428Y-133937142D01*
X97492428Y-134108571D01*
X98492428Y-133194285D02*
X97492428Y-133194285D01*
X98349571Y-133194285D02*
X98421000Y-133137142D01*
X98492428Y-133022857D01*
X98492428Y-132851428D01*
X98421000Y-132737142D01*
X98278142Y-132680000D01*
X97492428Y-132680000D01*
X98492428Y-132108571D02*
X97492428Y-132108571D01*
X98349571Y-132108571D02*
X98421000Y-132051428D01*
X98492428Y-131937142D01*
X98492428Y-131765714D01*
X98421000Y-131651428D01*
X98278142Y-131594285D01*
X97492428Y-131594285D01*
X97563857Y-130565714D02*
X97492428Y-130680000D01*
X97492428Y-130908571D01*
X97563857Y-131022857D01*
X97706714Y-131080000D01*
X98278142Y-131080000D01*
X98421000Y-131022857D01*
X98492428Y-130908571D01*
X98492428Y-130680000D01*
X98421000Y-130565714D01*
X98278142Y-130508571D01*
X98135285Y-130508571D01*
X97992428Y-131080000D01*
X97563857Y-129480000D02*
X97492428Y-129594285D01*
X97492428Y-129822857D01*
X97563857Y-129937142D01*
X97635285Y-129994285D01*
X97778142Y-130051428D01*
X98206714Y-130051428D01*
X98349571Y-129994285D01*
X98421000Y-129937142D01*
X98492428Y-129822857D01*
X98492428Y-129594285D01*
X98421000Y-129480000D01*
X98492428Y-129137142D02*
X98492428Y-128680000D01*
X98992428Y-128965714D02*
X97706714Y-128965714D01*
X97563857Y-128908571D01*
X97492428Y-128794285D01*
X97492428Y-128680000D01*
X124146428Y-135765714D02*
X123146428Y-135480000D01*
X124146428Y-135194285D01*
X123217857Y-134280000D02*
X123146428Y-134394285D01*
X123146428Y-134622857D01*
X123217857Y-134737142D01*
X123360714Y-134794285D01*
X123932142Y-134794285D01*
X124075000Y-134737142D01*
X124146428Y-134622857D01*
X124146428Y-134394285D01*
X124075000Y-134280000D01*
X123932142Y-134222857D01*
X123789285Y-134222857D01*
X123646428Y-134794285D01*
X124146428Y-133708571D02*
X123146428Y-133708571D01*
X124003571Y-133708571D02*
X124075000Y-133651428D01*
X124146428Y-133537142D01*
X124146428Y-133365714D01*
X124075000Y-133251428D01*
X123932142Y-133194285D01*
X123146428Y-133194285D01*
X124146428Y-132794285D02*
X124146428Y-132337142D01*
X124646428Y-132622857D02*
X123360714Y-132622857D01*
X123217857Y-132565714D01*
X123146428Y-132451428D01*
X123146428Y-132337142D01*
X123146428Y-131937142D02*
X124146428Y-131937142D01*
X124646428Y-131937142D02*
X124575000Y-131994285D01*
X124503571Y-131937142D01*
X124575000Y-131880000D01*
X124646428Y-131937142D01*
X124503571Y-131937142D01*
X123146428Y-131194285D02*
X123217857Y-131308571D01*
X123360714Y-131365714D01*
X124646428Y-131365714D01*
X123146428Y-130222857D02*
X123932142Y-130222857D01*
X124075000Y-130280000D01*
X124146428Y-130394285D01*
X124146428Y-130622857D01*
X124075000Y-130737142D01*
X123217857Y-130222857D02*
X123146428Y-130337142D01*
X123146428Y-130622857D01*
X123217857Y-130737142D01*
X123360714Y-130794285D01*
X123503571Y-130794285D01*
X123646428Y-130737142D01*
X123717857Y-130622857D01*
X123717857Y-130337142D01*
X123789285Y-130222857D01*
X124146428Y-129822857D02*
X124146428Y-129365714D01*
X124646428Y-129651428D02*
X123360714Y-129651428D01*
X123217857Y-129594285D01*
X123146428Y-129480000D01*
X123146428Y-129365714D01*
X123217857Y-128508571D02*
X123146428Y-128622857D01*
X123146428Y-128851428D01*
X123217857Y-128965714D01*
X123360714Y-129022857D01*
X123932142Y-129022857D01*
X124075000Y-128965714D01*
X124146428Y-128851428D01*
X124146428Y-128622857D01*
X124075000Y-128508571D01*
X123932142Y-128451428D01*
X123789285Y-128451428D01*
X123646428Y-129022857D01*
X110390857Y-134308571D02*
X110319428Y-134422857D01*
X110319428Y-134651428D01*
X110390857Y-134765714D01*
X110462285Y-134822857D01*
X110605142Y-134880000D01*
X111033714Y-134880000D01*
X111176571Y-134822857D01*
X111248000Y-134765714D01*
X111319428Y-134651428D01*
X111319428Y-134422857D01*
X111248000Y-134308571D01*
X110319428Y-133794285D02*
X111819428Y-133794285D01*
X110319428Y-133280000D02*
X111105142Y-133280000D01*
X111248000Y-133337142D01*
X111319428Y-133451428D01*
X111319428Y-133622857D01*
X111248000Y-133737142D01*
X111176571Y-133794285D01*
X110319428Y-132194285D02*
X111105142Y-132194285D01*
X111248000Y-132251428D01*
X111319428Y-132365714D01*
X111319428Y-132594285D01*
X111248000Y-132708571D01*
X110390857Y-132194285D02*
X110319428Y-132308571D01*
X110319428Y-132594285D01*
X110390857Y-132708571D01*
X110533714Y-132765714D01*
X110676571Y-132765714D01*
X110819428Y-132708571D01*
X110890857Y-132594285D01*
X110890857Y-132308571D01*
X110962285Y-132194285D01*
X110319428Y-131622857D02*
X111319428Y-131622857D01*
X111033714Y-131622857D02*
X111176571Y-131565714D01*
X111248000Y-131508571D01*
X111319428Y-131394285D01*
X111319428Y-131280000D01*
X111319428Y-130365714D02*
X110105142Y-130365714D01*
X109962285Y-130422857D01*
X109890857Y-130480000D01*
X109819428Y-130594285D01*
X109819428Y-130765714D01*
X109890857Y-130880000D01*
X110390857Y-130365714D02*
X110319428Y-130480000D01*
X110319428Y-130708571D01*
X110390857Y-130822857D01*
X110462285Y-130880000D01*
X110605142Y-130937142D01*
X111033714Y-130937142D01*
X111176571Y-130880000D01*
X111248000Y-130822857D01*
X111319428Y-130708571D01*
X111319428Y-130480000D01*
X111248000Y-130365714D01*
X110390857Y-129337142D02*
X110319428Y-129451428D01*
X110319428Y-129680000D01*
X110390857Y-129794285D01*
X110533714Y-129851428D01*
X111105142Y-129851428D01*
X111248000Y-129794285D01*
X111319428Y-129680000D01*
X111319428Y-129451428D01*
X111248000Y-129337142D01*
X111105142Y-129280000D01*
X110962285Y-129280000D01*
X110819428Y-129851428D01*
X155369714Y-124757571D02*
X155484000Y-124686142D01*
X155541142Y-124614714D01*
X155598285Y-124471857D01*
X155598285Y-124043285D01*
X155541142Y-123900428D01*
X155484000Y-123829000D01*
X155369714Y-123757571D01*
X155198285Y-123757571D01*
X155084000Y-123829000D01*
X155026857Y-123900428D01*
X154969714Y-124043285D01*
X154969714Y-124471857D01*
X155026857Y-124614714D01*
X155084000Y-124686142D01*
X155198285Y-124757571D01*
X155369714Y-124757571D01*
X154455428Y-123757571D02*
X154455428Y-125257571D01*
X154455428Y-123829000D02*
X154341142Y-123757571D01*
X154112571Y-123757571D01*
X153998285Y-123829000D01*
X153941142Y-123900428D01*
X153884000Y-124043285D01*
X153884000Y-124471857D01*
X153941142Y-124614714D01*
X153998285Y-124686142D01*
X154112571Y-124757571D01*
X154341142Y-124757571D01*
X154455428Y-124686142D01*
X152912571Y-124686142D02*
X153026857Y-124757571D01*
X153255428Y-124757571D01*
X153369714Y-124686142D01*
X153426857Y-124543285D01*
X153426857Y-123971857D01*
X153369714Y-123829000D01*
X153255428Y-123757571D01*
X153026857Y-123757571D01*
X152912571Y-123829000D01*
X152855428Y-123971857D01*
X152855428Y-124114714D01*
X153426857Y-124257571D01*
X152341142Y-123757571D02*
X152341142Y-124757571D01*
X152341142Y-123900428D02*
X152284000Y-123829000D01*
X152169714Y-123757571D01*
X151998285Y-123757571D01*
X151884000Y-123829000D01*
X151826857Y-123971857D01*
X151826857Y-124757571D01*
X151255428Y-123971857D02*
X150855428Y-123971857D01*
X150684000Y-124757571D02*
X151255428Y-124757571D01*
X151255428Y-123257571D01*
X150684000Y-123257571D01*
X150341142Y-123257571D02*
X149941142Y-124757571D01*
X149541142Y-123257571D01*
X148455428Y-124614714D02*
X148512571Y-124686142D01*
X148684000Y-124757571D01*
X148798285Y-124757571D01*
X148969714Y-124686142D01*
X149084000Y-124543285D01*
X149141142Y-124400428D01*
X149198285Y-124114714D01*
X149198285Y-123900428D01*
X149141142Y-123614714D01*
X149084000Y-123471857D01*
X148969714Y-123329000D01*
X148798285Y-123257571D01*
X148684000Y-123257571D01*
X148512571Y-123329000D01*
X148455428Y-123400428D01*
X147255428Y-124614714D02*
X147312571Y-124686142D01*
X147484000Y-124757571D01*
X147598285Y-124757571D01*
X147769714Y-124686142D01*
X147884000Y-124543285D01*
X147941142Y-124400428D01*
X147998285Y-124114714D01*
X147998285Y-123900428D01*
X147941142Y-123614714D01*
X147884000Y-123471857D01*
X147769714Y-123329000D01*
X147598285Y-123257571D01*
X147484000Y-123257571D01*
X147312571Y-123329000D01*
X147255428Y-123400428D01*
X145826857Y-124186142D02*
X144912571Y-124186142D01*
X142741142Y-124614714D02*
X142798285Y-124686142D01*
X142969714Y-124757571D01*
X143084000Y-124757571D01*
X143255428Y-124686142D01*
X143369714Y-124543285D01*
X143426857Y-124400428D01*
X143484000Y-124114714D01*
X143484000Y-123900428D01*
X143426857Y-123614714D01*
X143369714Y-123471857D01*
X143255428Y-123329000D01*
X143084000Y-123257571D01*
X142969714Y-123257571D01*
X142798285Y-123329000D01*
X142741142Y-123400428D01*
X142226857Y-124757571D02*
X142226857Y-123257571D01*
X141769714Y-123257571D01*
X141655428Y-123329000D01*
X141598285Y-123400428D01*
X141541142Y-123543285D01*
X141541142Y-123757571D01*
X141598285Y-123900428D01*
X141655428Y-123971857D01*
X141769714Y-124043285D01*
X142226857Y-124043285D01*
X141026857Y-124186142D02*
X140112571Y-124186142D01*
X139541142Y-124757571D02*
X139541142Y-123257571D01*
X139084000Y-123257571D01*
X138969714Y-123329000D01*
X138912571Y-123400428D01*
X138855428Y-123543285D01*
X138855428Y-123757571D01*
X138912571Y-123900428D01*
X138969714Y-123971857D01*
X139084000Y-124043285D01*
X139541142Y-124043285D01*
X138341142Y-124757571D02*
X138341142Y-123257571D01*
X137884000Y-123257571D01*
X137769714Y-123329000D01*
X137712571Y-123400428D01*
X137655428Y-123543285D01*
X137655428Y-123757571D01*
X137712571Y-123900428D01*
X137769714Y-123971857D01*
X137884000Y-124043285D01*
X138341142Y-124043285D01*
X137141142Y-124186142D02*
X136226857Y-124186142D01*
X135655428Y-124757571D02*
X135655428Y-123757571D01*
X135655428Y-123900428D02*
X135598285Y-123829000D01*
X135484000Y-123757571D01*
X135312571Y-123757571D01*
X135198285Y-123829000D01*
X135141142Y-123971857D01*
X135141142Y-124757571D01*
X135141142Y-123971857D02*
X135084000Y-123829000D01*
X134969714Y-123757571D01*
X134798285Y-123757571D01*
X134684000Y-123829000D01*
X134626857Y-123971857D01*
X134626857Y-124757571D01*
X134055428Y-124757571D02*
X134055428Y-123757571D01*
X134055428Y-123257571D02*
X134112571Y-123329000D01*
X134055428Y-123400428D01*
X133998285Y-123329000D01*
X134055428Y-123257571D01*
X134055428Y-123400428D01*
X133484000Y-123757571D02*
X133484000Y-124757571D01*
X133484000Y-123900428D02*
X133426857Y-123829000D01*
X133312571Y-123757571D01*
X133141142Y-123757571D01*
X133026857Y-123829000D01*
X132969714Y-123971857D01*
X132969714Y-124757571D01*
X132398285Y-124757571D02*
X132398285Y-123757571D01*
X132398285Y-123257571D02*
X132455428Y-123329000D01*
X132398285Y-123400428D01*
X132341142Y-123329000D01*
X132398285Y-123257571D01*
X132398285Y-123400428D01*
X131826857Y-123971857D02*
X131426857Y-123971857D01*
X131255428Y-124757571D02*
X131826857Y-124757571D01*
X131826857Y-123257571D01*
X131255428Y-123257571D01*
X130912571Y-123257571D02*
X130512571Y-124757571D01*
X130112571Y-123257571D01*
X129769714Y-124686142D02*
X129655428Y-124757571D01*
X129426857Y-124757571D01*
X129312571Y-124686142D01*
X129255428Y-124543285D01*
X129255428Y-124471857D01*
X129312571Y-124329000D01*
X129426857Y-124257571D01*
X129598285Y-124257571D01*
X129712571Y-124186142D01*
X129769714Y-124043285D01*
X129769714Y-123971857D01*
X129712571Y-123829000D01*
X129598285Y-123757571D01*
X129426857Y-123757571D01*
X129312571Y-123829000D01*
X128741142Y-124757571D02*
X128741142Y-123757571D01*
X128741142Y-123257571D02*
X128798285Y-123329000D01*
X128741142Y-123400428D01*
X128684000Y-123329000D01*
X128741142Y-123257571D01*
X128741142Y-123400428D01*
X128169714Y-124757571D02*
X128169714Y-123757571D01*
X128169714Y-123900428D02*
X128112571Y-123829000D01*
X127998285Y-123757571D01*
X127826857Y-123757571D01*
X127712571Y-123829000D01*
X127655428Y-123971857D01*
X127655428Y-124757571D01*
X127655428Y-123971857D02*
X127598285Y-123829000D01*
X127483999Y-123757571D01*
X127312571Y-123757571D01*
X127198285Y-123829000D01*
X127141142Y-123971857D01*
X127141142Y-124757571D01*
X126055428Y-123757571D02*
X126055428Y-124757571D01*
X126569714Y-123757571D02*
X126569714Y-124543285D01*
X126512571Y-124686142D01*
X126398285Y-124757571D01*
X126226857Y-124757571D01*
X126112571Y-124686142D01*
X126055428Y-124614714D01*
X125312571Y-124757571D02*
X125426857Y-124686142D01*
X125484000Y-124543285D01*
X125484000Y-123257571D01*
X124341142Y-124757571D02*
X124341142Y-123971857D01*
X124398285Y-123829000D01*
X124512571Y-123757571D01*
X124741142Y-123757571D01*
X124855428Y-123829000D01*
X124341142Y-124686142D02*
X124455428Y-124757571D01*
X124741142Y-124757571D01*
X124855428Y-124686142D01*
X124912571Y-124543285D01*
X124912571Y-124400428D01*
X124855428Y-124257571D01*
X124741142Y-124186142D01*
X124455428Y-124186142D01*
X124341142Y-124114714D01*
X123941142Y-123757571D02*
X123483999Y-123757571D01*
X123769714Y-123257571D02*
X123769714Y-124543285D01*
X123712571Y-124686142D01*
X123598285Y-124757571D01*
X123483999Y-124757571D01*
X122912571Y-124757571D02*
X123026857Y-124686142D01*
X123083999Y-124614714D01*
X123141142Y-124471857D01*
X123141142Y-124043285D01*
X123083999Y-123900428D01*
X123026857Y-123829000D01*
X122912571Y-123757571D01*
X122741142Y-123757571D01*
X122626857Y-123829000D01*
X122569714Y-123900428D01*
X122512571Y-124043285D01*
X122512571Y-124471857D01*
X122569714Y-124614714D01*
X122626857Y-124686142D01*
X122741142Y-124757571D01*
X122912571Y-124757571D01*
X121998285Y-124757571D02*
X121998285Y-123757571D01*
X121998285Y-124043285D02*
X121941142Y-123900428D01*
X121883999Y-123829000D01*
X121769714Y-123757571D01*
X121655428Y-123757571D01*
X148490857Y-137022857D02*
X148419428Y-136908571D01*
X148419428Y-136680000D01*
X148490857Y-136565714D01*
X148633714Y-136508571D01*
X148705142Y-136508571D01*
X148848000Y-136565714D01*
X148919428Y-136680000D01*
X148919428Y-136851428D01*
X148990857Y-136965714D01*
X149133714Y-137022857D01*
X149205142Y-137022857D01*
X149348000Y-136965714D01*
X149419428Y-136851428D01*
X149419428Y-136680000D01*
X149348000Y-136565714D01*
X148419428Y-135994285D02*
X149919428Y-135994285D01*
X148419428Y-135480000D02*
X149205142Y-135480000D01*
X149348000Y-135537142D01*
X149419428Y-135651428D01*
X149419428Y-135822857D01*
X149348000Y-135937142D01*
X149276571Y-135994285D01*
X148419428Y-134737142D02*
X148490857Y-134851428D01*
X148562285Y-134908571D01*
X148705142Y-134965714D01*
X149133714Y-134965714D01*
X149276571Y-134908571D01*
X149348000Y-134851428D01*
X149419428Y-134737142D01*
X149419428Y-134565714D01*
X149348000Y-134451428D01*
X149276571Y-134394285D01*
X149133714Y-134337142D01*
X148705142Y-134337142D01*
X148562285Y-134394285D01*
X148490857Y-134451428D01*
X148419428Y-134565714D01*
X148419428Y-134737142D01*
X148419428Y-133822857D02*
X149419428Y-133822857D01*
X149133714Y-133822857D02*
X149276571Y-133765714D01*
X149348000Y-133708571D01*
X149419428Y-133594285D01*
X149419428Y-133480000D01*
X149419428Y-133251428D02*
X149419428Y-132794285D01*
X149919428Y-133080000D02*
X148633714Y-133080000D01*
X148490857Y-133022857D01*
X148419428Y-132908571D01*
X148419428Y-132794285D01*
X148419428Y-130965714D02*
X149919428Y-130965714D01*
X148490857Y-130965714D02*
X148419428Y-131080000D01*
X148419428Y-131308571D01*
X148490857Y-131422857D01*
X148562285Y-131480000D01*
X148705142Y-131537142D01*
X149133714Y-131537142D01*
X149276571Y-131480000D01*
X149348000Y-131422857D01*
X149419428Y-131308571D01*
X149419428Y-131080000D01*
X149348000Y-130965714D01*
X148419428Y-130394285D02*
X149419428Y-130394285D01*
X149919428Y-130394285D02*
X149848000Y-130451428D01*
X149776571Y-130394285D01*
X149848000Y-130337142D01*
X149919428Y-130394285D01*
X149776571Y-130394285D01*
X148419428Y-129651428D02*
X148490857Y-129765714D01*
X148562285Y-129822857D01*
X148705142Y-129880000D01*
X149133714Y-129880000D01*
X149276571Y-129822857D01*
X149348000Y-129765714D01*
X149419428Y-129651428D01*
X149419428Y-129480000D01*
X149348000Y-129365714D01*
X149276571Y-129308571D01*
X149133714Y-129251428D01*
X148705142Y-129251428D01*
X148562285Y-129308571D01*
X148490857Y-129365714D01*
X148419428Y-129480000D01*
X148419428Y-129651428D01*
X148419428Y-128222857D02*
X149919428Y-128222857D01*
X148490857Y-128222857D02*
X148419428Y-128337142D01*
X148419428Y-128565714D01*
X148490857Y-128680000D01*
X148562285Y-128737142D01*
X148705142Y-128794285D01*
X149133714Y-128794285D01*
X149276571Y-128737142D01*
X149348000Y-128680000D01*
X149419428Y-128565714D01*
X149419428Y-128337142D01*
X149348000Y-128222857D01*
X148490857Y-127194285D02*
X148419428Y-127308571D01*
X148419428Y-127537142D01*
X148490857Y-127651428D01*
X148633714Y-127708571D01*
X149205142Y-127708571D01*
X149348000Y-127651428D01*
X149419428Y-127537142D01*
X149419428Y-127308571D01*
X149348000Y-127194285D01*
X149205142Y-127137142D01*
X149062285Y-127137142D01*
X148919428Y-127708571D01*
X135663857Y-137451428D02*
X135592428Y-137337142D01*
X135592428Y-137108571D01*
X135663857Y-136994285D01*
X135806714Y-136937142D01*
X135878142Y-136937142D01*
X136021000Y-136994285D01*
X136092428Y-137108571D01*
X136092428Y-137280000D01*
X136163857Y-137394285D01*
X136306714Y-137451428D01*
X136378142Y-137451428D01*
X136521000Y-137394285D01*
X136592428Y-137280000D01*
X136592428Y-137108571D01*
X136521000Y-136994285D01*
X135592428Y-136422857D02*
X137092428Y-136422857D01*
X135592428Y-135908571D02*
X136378142Y-135908571D01*
X136521000Y-135965714D01*
X136592428Y-136080000D01*
X136592428Y-136251428D01*
X136521000Y-136365714D01*
X136449571Y-136422857D01*
X135592428Y-135165714D02*
X135663857Y-135280000D01*
X135735285Y-135337142D01*
X135878142Y-135394285D01*
X136306714Y-135394285D01*
X136449571Y-135337142D01*
X136521000Y-135280000D01*
X136592428Y-135165714D01*
X136592428Y-134994285D01*
X136521000Y-134880000D01*
X136449571Y-134822857D01*
X136306714Y-134765714D01*
X135878142Y-134765714D01*
X135735285Y-134822857D01*
X135663857Y-134880000D01*
X135592428Y-134994285D01*
X135592428Y-135165714D01*
X135592428Y-134251428D02*
X136592428Y-134251428D01*
X136306714Y-134251428D02*
X136449571Y-134194285D01*
X136521000Y-134137142D01*
X136592428Y-134022857D01*
X136592428Y-133908571D01*
X136592428Y-133680000D02*
X136592428Y-133222857D01*
X137092428Y-133508571D02*
X135806714Y-133508571D01*
X135663857Y-133451428D01*
X135592428Y-133337142D01*
X135592428Y-133222857D01*
X135663857Y-131394285D02*
X135592428Y-131508571D01*
X135592428Y-131737142D01*
X135663857Y-131851428D01*
X135735285Y-131908571D01*
X135878142Y-131965714D01*
X136306714Y-131965714D01*
X136449571Y-131908571D01*
X136521000Y-131851428D01*
X136592428Y-131737142D01*
X136592428Y-131508571D01*
X136521000Y-131394285D01*
X135592428Y-130880000D02*
X136592428Y-130880000D01*
X137092428Y-130880000D02*
X137021000Y-130937142D01*
X136949571Y-130880000D01*
X137021000Y-130822857D01*
X137092428Y-130880000D01*
X136949571Y-130880000D01*
X135592428Y-130308571D02*
X136592428Y-130308571D01*
X136306714Y-130308571D02*
X136449571Y-130251428D01*
X136521000Y-130194285D01*
X136592428Y-130080000D01*
X136592428Y-129965714D01*
X135663857Y-129051428D02*
X135592428Y-129165714D01*
X135592428Y-129394285D01*
X135663857Y-129508571D01*
X135735285Y-129565714D01*
X135878142Y-129622857D01*
X136306714Y-129622857D01*
X136449571Y-129565714D01*
X136521000Y-129508571D01*
X136592428Y-129394285D01*
X136592428Y-129165714D01*
X136521000Y-129051428D01*
X136592428Y-128022857D02*
X135592428Y-128022857D01*
X136592428Y-128537142D02*
X135806714Y-128537142D01*
X135663857Y-128480000D01*
X135592428Y-128365714D01*
X135592428Y-128194285D01*
X135663857Y-128080000D01*
X135735285Y-128022857D01*
X135592428Y-127451428D02*
X136592428Y-127451428D01*
X137092428Y-127451428D02*
X137021000Y-127508571D01*
X136949571Y-127451428D01*
X137021000Y-127394285D01*
X137092428Y-127451428D01*
X136949571Y-127451428D01*
X136592428Y-127051428D02*
X136592428Y-126594285D01*
X137092428Y-126880000D02*
X135806714Y-126880000D01*
X135663857Y-126822857D01*
X135592428Y-126708571D01*
X135592428Y-126594285D01*
X118211571Y-124995714D02*
X118268714Y-125067142D01*
X118440142Y-125138571D01*
X118554428Y-125138571D01*
X118725857Y-125067142D01*
X118840142Y-124924285D01*
X118897285Y-124781428D01*
X118954428Y-124495714D01*
X118954428Y-124281428D01*
X118897285Y-123995714D01*
X118840142Y-123852857D01*
X118725857Y-123710000D01*
X118554428Y-123638571D01*
X118440142Y-123638571D01*
X118268714Y-123710000D01*
X118211571Y-123781428D01*
X117697285Y-125138571D02*
X117697285Y-123638571D01*
X117240142Y-123638571D01*
X117125857Y-123710000D01*
X117068714Y-123781428D01*
X117011571Y-123924285D01*
X117011571Y-124138571D01*
X117068714Y-124281428D01*
X117125857Y-124352857D01*
X117240142Y-124424285D01*
X117697285Y-124424285D01*
X118782999Y-140378571D02*
X118782999Y-138878571D01*
X118325857Y-138878571D01*
X118211571Y-138950000D01*
X118154428Y-139021428D01*
X118097285Y-139164285D01*
X118097285Y-139378571D01*
X118154428Y-139521428D01*
X118211571Y-139592857D01*
X118325857Y-139664285D01*
X118782999Y-139664285D01*
X117582999Y-139592857D02*
X117182999Y-139592857D01*
X117011571Y-140378571D02*
X117582999Y-140378571D01*
X117582999Y-138878571D01*
X117011571Y-138878571D01*
D11*
%TO.C,J3*%
X114310000Y-153830000D02*
X104680000Y-153830000D01*
X114310000Y-156050000D02*
X104680000Y-156050000D01*
%TO.C,J1*%
X114310000Y-125570000D02*
X104680000Y-125570000D01*
X114310000Y-123350000D02*
X104680000Y-123350000D01*
%TO.C,J2*%
X114310000Y-140810000D02*
X104680000Y-140810000D01*
X114310000Y-138590000D02*
X104680000Y-138590000D01*
D12*
%TO.C,G\u002A\u002A\u002A*%
G36*
X157073727Y-137500220D02*
G01*
X157020747Y-137517002D01*
X157017617Y-137518486D01*
X156962785Y-137554026D01*
X156914661Y-137602525D01*
X156877538Y-137659591D01*
X156875332Y-137664061D01*
X156854741Y-137725433D01*
X156848303Y-137791453D01*
X156856075Y-137856864D01*
X156872706Y-137905534D01*
X156909871Y-137966806D01*
X156957949Y-138016575D01*
X157014556Y-138053682D01*
X157077304Y-138076970D01*
X157143809Y-138085281D01*
X157211683Y-138077456D01*
X157221621Y-138074879D01*
X157288057Y-138047530D01*
X157345683Y-138005608D01*
X157392710Y-137950589D01*
X157412213Y-137917620D01*
X157431579Y-137863701D01*
X157438748Y-137810663D01*
X157320366Y-137810663D01*
X157306617Y-137857794D01*
X157277583Y-137902441D01*
X157275723Y-137904543D01*
X157232904Y-137940672D01*
X157184911Y-137960384D01*
X157133408Y-137963391D01*
X157080054Y-137949405D01*
X157063077Y-137941406D01*
X157020086Y-137909865D01*
X156989383Y-137868421D01*
X156972154Y-137820458D01*
X156969590Y-137769362D01*
X156982878Y-137718518D01*
X156983955Y-137716097D01*
X157013632Y-137671065D01*
X157055243Y-137637016D01*
X157105202Y-137616839D01*
X157107957Y-137616224D01*
X157161429Y-137612399D01*
X157209559Y-137623177D01*
X157250927Y-137646115D01*
X157284112Y-137678774D01*
X157307693Y-137718712D01*
X157320252Y-137763488D01*
X157320366Y-137810663D01*
X157438748Y-137810663D01*
X157439900Y-137802142D01*
X157436909Y-137739114D01*
X157422493Y-137681202D01*
X157393599Y-137626651D01*
X157351669Y-137576805D01*
X157301129Y-137536091D01*
X157252211Y-137511013D01*
X157195942Y-137497019D01*
X157134287Y-137493490D01*
X157073727Y-137500220D01*
G37*
X157073727Y-137500220D02*
X157020747Y-137517002D01*
X157017617Y-137518486D01*
X156962785Y-137554026D01*
X156914661Y-137602525D01*
X156877538Y-137659591D01*
X156875332Y-137664061D01*
X156854741Y-137725433D01*
X156848303Y-137791453D01*
X156856075Y-137856864D01*
X156872706Y-137905534D01*
X156909871Y-137966806D01*
X156957949Y-138016575D01*
X157014556Y-138053682D01*
X157077304Y-138076970D01*
X157143809Y-138085281D01*
X157211683Y-138077456D01*
X157221621Y-138074879D01*
X157288057Y-138047530D01*
X157345683Y-138005608D01*
X157392710Y-137950589D01*
X157412213Y-137917620D01*
X157431579Y-137863701D01*
X157438748Y-137810663D01*
X157320366Y-137810663D01*
X157306617Y-137857794D01*
X157277583Y-137902441D01*
X157275723Y-137904543D01*
X157232904Y-137940672D01*
X157184911Y-137960384D01*
X157133408Y-137963391D01*
X157080054Y-137949405D01*
X157063077Y-137941406D01*
X157020086Y-137909865D01*
X156989383Y-137868421D01*
X156972154Y-137820458D01*
X156969590Y-137769362D01*
X156982878Y-137718518D01*
X156983955Y-137716097D01*
X157013632Y-137671065D01*
X157055243Y-137637016D01*
X157105202Y-137616839D01*
X157107957Y-137616224D01*
X157161429Y-137612399D01*
X157209559Y-137623177D01*
X157250927Y-137646115D01*
X157284112Y-137678774D01*
X157307693Y-137718712D01*
X157320252Y-137763488D01*
X157320366Y-137810663D01*
X157438748Y-137810663D01*
X157439900Y-137802142D01*
X157436909Y-137739114D01*
X157422493Y-137681202D01*
X157393599Y-137626651D01*
X157351669Y-137576805D01*
X157301129Y-137536091D01*
X157252211Y-137511013D01*
X157195942Y-137497019D01*
X157134287Y-137493490D01*
X157073727Y-137500220D01*
G36*
X157862713Y-137494392D02*
G01*
X157796447Y-137502860D01*
X157740774Y-137522576D01*
X157691411Y-137555540D01*
X157654782Y-137591457D01*
X157615560Y-137644992D01*
X157591791Y-137702501D01*
X157582379Y-137767208D01*
X157582742Y-137803758D01*
X157590324Y-137863981D01*
X157607753Y-137915780D01*
X157637697Y-137966570D01*
X157644942Y-137976611D01*
X157674127Y-138006472D01*
X157714674Y-138035375D01*
X157760637Y-138059638D01*
X157803719Y-138074987D01*
X157850197Y-138084786D01*
X157888975Y-138086971D01*
X157928090Y-138081621D01*
X157949205Y-138076437D01*
X158016658Y-138049583D01*
X158074384Y-138008371D01*
X158121487Y-137953570D01*
X158148902Y-137904882D01*
X158161586Y-137873340D01*
X158168596Y-137842656D01*
X158171384Y-137805261D01*
X158171601Y-137789339D01*
X158053689Y-137789339D01*
X158048568Y-137821468D01*
X158034843Y-137859018D01*
X158029302Y-137870337D01*
X158010035Y-137901780D01*
X157987832Y-137923530D01*
X157958233Y-137941406D01*
X157915132Y-137959535D01*
X157875385Y-137964981D01*
X157831207Y-137958580D01*
X157821586Y-137956070D01*
X157783092Y-137937565D01*
X157747723Y-137906510D01*
X157719974Y-137867819D01*
X157704734Y-137828319D01*
X157700725Y-137773182D01*
X157711684Y-137722978D01*
X157735465Y-137679723D01*
X157769920Y-137645431D01*
X157812900Y-137622117D01*
X157862258Y-137611795D01*
X157915846Y-137616481D01*
X157927325Y-137619527D01*
X157974623Y-137642230D01*
X158013051Y-137677807D01*
X158040019Y-137722778D01*
X158052940Y-137773666D01*
X158053689Y-137789339D01*
X158171601Y-137789339D01*
X158171644Y-137786241D01*
X158170720Y-137746468D01*
X158166643Y-137716672D01*
X158157873Y-137689385D01*
X158146543Y-137664549D01*
X158107687Y-137603011D01*
X158057128Y-137554044D01*
X157995417Y-137517190D01*
X157966026Y-137504185D01*
X157942342Y-137496632D01*
X157917855Y-137493413D01*
X157886056Y-137493410D01*
X157862713Y-137494392D01*
G37*
X157862713Y-137494392D02*
X157796447Y-137502860D01*
X157740774Y-137522576D01*
X157691411Y-137555540D01*
X157654782Y-137591457D01*
X157615560Y-137644992D01*
X157591791Y-137702501D01*
X157582379Y-137767208D01*
X157582742Y-137803758D01*
X157590324Y-137863981D01*
X157607753Y-137915780D01*
X157637697Y-137966570D01*
X157644942Y-137976611D01*
X157674127Y-138006472D01*
X157714674Y-138035375D01*
X157760637Y-138059638D01*
X157803719Y-138074987D01*
X157850197Y-138084786D01*
X157888975Y-138086971D01*
X157928090Y-138081621D01*
X157949205Y-138076437D01*
X158016658Y-138049583D01*
X158074384Y-138008371D01*
X158121487Y-137953570D01*
X158148902Y-137904882D01*
X158161586Y-137873340D01*
X158168596Y-137842656D01*
X158171384Y-137805261D01*
X158171601Y-137789339D01*
X158053689Y-137789339D01*
X158048568Y-137821468D01*
X158034843Y-137859018D01*
X158029302Y-137870337D01*
X158010035Y-137901780D01*
X157987832Y-137923530D01*
X157958233Y-137941406D01*
X157915132Y-137959535D01*
X157875385Y-137964981D01*
X157831207Y-137958580D01*
X157821586Y-137956070D01*
X157783092Y-137937565D01*
X157747723Y-137906510D01*
X157719974Y-137867819D01*
X157704734Y-137828319D01*
X157700725Y-137773182D01*
X157711684Y-137722978D01*
X157735465Y-137679723D01*
X157769920Y-137645431D01*
X157812900Y-137622117D01*
X157862258Y-137611795D01*
X157915846Y-137616481D01*
X157927325Y-137619527D01*
X157974623Y-137642230D01*
X158013051Y-137677807D01*
X158040019Y-137722778D01*
X158052940Y-137773666D01*
X158053689Y-137789339D01*
X158171601Y-137789339D01*
X158171644Y-137786241D01*
X158170720Y-137746468D01*
X158166643Y-137716672D01*
X158157873Y-137689385D01*
X158146543Y-137664549D01*
X158107687Y-137603011D01*
X158057128Y-137554044D01*
X157995417Y-137517190D01*
X157966026Y-137504185D01*
X157942342Y-137496632D01*
X157917855Y-137493413D01*
X157886056Y-137493410D01*
X157862713Y-137494392D01*
G36*
X156755279Y-138146615D02*
G01*
X156723589Y-138151357D01*
X156694216Y-138161042D01*
X156677535Y-138168432D01*
X156613400Y-138207231D01*
X156562896Y-138256987D01*
X156526258Y-138317403D01*
X156503770Y-138387945D01*
X156499053Y-138453167D01*
X156510156Y-138517978D01*
X156535565Y-138579427D01*
X156573769Y-138634560D01*
X156623254Y-138680427D01*
X156667373Y-138707222D01*
X156715207Y-138723956D01*
X156770972Y-138733189D01*
X156827529Y-138734357D01*
X156877735Y-138726897D01*
X156885954Y-138724462D01*
X156947900Y-138695740D01*
X157001034Y-138654355D01*
X157043735Y-138602943D01*
X157074384Y-138544139D01*
X157091361Y-138480580D01*
X157092863Y-138422072D01*
X156973496Y-138422072D01*
X156970186Y-138472373D01*
X156968352Y-138479834D01*
X156946433Y-138530728D01*
X156912635Y-138570732D01*
X156869738Y-138598549D01*
X156820521Y-138612882D01*
X156767762Y-138612433D01*
X156716983Y-138597174D01*
X156675231Y-138569614D01*
X156645388Y-138532365D01*
X156627449Y-138488582D01*
X156621408Y-138441417D01*
X156627260Y-138394025D01*
X156645002Y-138349558D01*
X156674626Y-138311171D01*
X156716129Y-138282016D01*
X156717494Y-138281348D01*
X156767347Y-138265645D01*
X156816733Y-138265011D01*
X156863275Y-138277565D01*
X156904598Y-138301428D01*
X156938326Y-138334720D01*
X156962084Y-138375561D01*
X156973496Y-138422072D01*
X157092863Y-138422072D01*
X157093048Y-138414901D01*
X157089856Y-138392587D01*
X157068322Y-138321139D01*
X157032692Y-138260067D01*
X156983220Y-138209696D01*
X156920159Y-138170354D01*
X156916120Y-138168432D01*
X156885000Y-138155633D01*
X156855444Y-138148528D01*
X156819912Y-138145660D01*
X156796827Y-138145358D01*
X156755279Y-138146615D01*
G37*
X156755279Y-138146615D02*
X156723589Y-138151357D01*
X156694216Y-138161042D01*
X156677535Y-138168432D01*
X156613400Y-138207231D01*
X156562896Y-138256987D01*
X156526258Y-138317403D01*
X156503770Y-138387945D01*
X156499053Y-138453167D01*
X156510156Y-138517978D01*
X156535565Y-138579427D01*
X156573769Y-138634560D01*
X156623254Y-138680427D01*
X156667373Y-138707222D01*
X156715207Y-138723956D01*
X156770972Y-138733189D01*
X156827529Y-138734357D01*
X156877735Y-138726897D01*
X156885954Y-138724462D01*
X156947900Y-138695740D01*
X157001034Y-138654355D01*
X157043735Y-138602943D01*
X157074384Y-138544139D01*
X157091361Y-138480580D01*
X157092863Y-138422072D01*
X156973496Y-138422072D01*
X156970186Y-138472373D01*
X156968352Y-138479834D01*
X156946433Y-138530728D01*
X156912635Y-138570732D01*
X156869738Y-138598549D01*
X156820521Y-138612882D01*
X156767762Y-138612433D01*
X156716983Y-138597174D01*
X156675231Y-138569614D01*
X156645388Y-138532365D01*
X156627449Y-138488582D01*
X156621408Y-138441417D01*
X156627260Y-138394025D01*
X156645002Y-138349558D01*
X156674626Y-138311171D01*
X156716129Y-138282016D01*
X156717494Y-138281348D01*
X156767347Y-138265645D01*
X156816733Y-138265011D01*
X156863275Y-138277565D01*
X156904598Y-138301428D01*
X156938326Y-138334720D01*
X156962084Y-138375561D01*
X156973496Y-138422072D01*
X157092863Y-138422072D01*
X157093048Y-138414901D01*
X157089856Y-138392587D01*
X157068322Y-138321139D01*
X157032692Y-138260067D01*
X156983220Y-138209696D01*
X156920159Y-138170354D01*
X156916120Y-138168432D01*
X156885000Y-138155633D01*
X156855444Y-138148528D01*
X156819912Y-138145660D01*
X156796827Y-138145358D01*
X156755279Y-138146615D01*
G36*
X157469975Y-138146249D02*
G01*
X157440026Y-138149835D01*
X157414078Y-138157415D01*
X157387254Y-138169385D01*
X157327480Y-138208059D01*
X157276766Y-138259613D01*
X157240929Y-138316079D01*
X157228544Y-138344178D01*
X157221330Y-138370217D01*
X157217995Y-138400891D01*
X157217241Y-138438758D01*
X157223330Y-138508462D01*
X157242433Y-138568354D01*
X157275807Y-138621608D01*
X157300448Y-138648965D01*
X157352835Y-138690061D01*
X157413271Y-138718560D01*
X157478066Y-138733673D01*
X157543528Y-138734613D01*
X157605966Y-138720590D01*
X157616455Y-138716477D01*
X157677189Y-138684932D01*
X157724498Y-138646164D01*
X157755962Y-138606705D01*
X157787309Y-138544835D01*
X157804083Y-138478000D01*
X157805070Y-138441297D01*
X157685635Y-138441297D01*
X157677525Y-138494208D01*
X157653599Y-138541536D01*
X157615224Y-138581117D01*
X157585103Y-138600640D01*
X157559124Y-138609563D01*
X157523173Y-138612495D01*
X157500200Y-138611912D01*
X157465365Y-138608992D01*
X157441054Y-138602894D01*
X157420300Y-138591366D01*
X157408235Y-138582185D01*
X157367735Y-138540135D01*
X157343450Y-138492626D01*
X157335819Y-138443138D01*
X157343665Y-138387989D01*
X157365675Y-138340361D01*
X157399748Y-138302412D01*
X157443784Y-138276300D01*
X157495683Y-138264179D01*
X157510655Y-138263586D01*
X157564163Y-138271621D01*
X157610558Y-138294236D01*
X157647640Y-138329197D01*
X157673211Y-138374272D01*
X157685071Y-138427225D01*
X157685635Y-138441297D01*
X157805070Y-138441297D01*
X157805914Y-138409930D01*
X157792438Y-138344360D01*
X157783933Y-138322458D01*
X157756558Y-138276411D01*
X157717510Y-138231302D01*
X157672059Y-138192518D01*
X157634366Y-138169537D01*
X157605924Y-138156928D01*
X157579942Y-138149572D01*
X157549673Y-138146151D01*
X157510655Y-138145345D01*
X157469975Y-138146249D01*
G37*
X157469975Y-138146249D02*
X157440026Y-138149835D01*
X157414078Y-138157415D01*
X157387254Y-138169385D01*
X157327480Y-138208059D01*
X157276766Y-138259613D01*
X157240929Y-138316079D01*
X157228544Y-138344178D01*
X157221330Y-138370217D01*
X157217995Y-138400891D01*
X157217241Y-138438758D01*
X157223330Y-138508462D01*
X157242433Y-138568354D01*
X157275807Y-138621608D01*
X157300448Y-138648965D01*
X157352835Y-138690061D01*
X157413271Y-138718560D01*
X157478066Y-138733673D01*
X157543528Y-138734613D01*
X157605966Y-138720590D01*
X157616455Y-138716477D01*
X157677189Y-138684932D01*
X157724498Y-138646164D01*
X157755962Y-138606705D01*
X157787309Y-138544835D01*
X157804083Y-138478000D01*
X157805070Y-138441297D01*
X157685635Y-138441297D01*
X157677525Y-138494208D01*
X157653599Y-138541536D01*
X157615224Y-138581117D01*
X157585103Y-138600640D01*
X157559124Y-138609563D01*
X157523173Y-138612495D01*
X157500200Y-138611912D01*
X157465365Y-138608992D01*
X157441054Y-138602894D01*
X157420300Y-138591366D01*
X157408235Y-138582185D01*
X157367735Y-138540135D01*
X157343450Y-138492626D01*
X157335819Y-138443138D01*
X157343665Y-138387989D01*
X157365675Y-138340361D01*
X157399748Y-138302412D01*
X157443784Y-138276300D01*
X157495683Y-138264179D01*
X157510655Y-138263586D01*
X157564163Y-138271621D01*
X157610558Y-138294236D01*
X157647640Y-138329197D01*
X157673211Y-138374272D01*
X157685071Y-138427225D01*
X157685635Y-138441297D01*
X157805070Y-138441297D01*
X157805914Y-138409930D01*
X157792438Y-138344360D01*
X157783933Y-138322458D01*
X157756558Y-138276411D01*
X157717510Y-138231302D01*
X157672059Y-138192518D01*
X157634366Y-138169537D01*
X157605924Y-138156928D01*
X157579942Y-138149572D01*
X157549673Y-138146151D01*
X157510655Y-138145345D01*
X157469975Y-138146249D01*
G36*
X158182934Y-138146615D02*
G01*
X158151244Y-138151357D01*
X158121871Y-138161042D01*
X158105190Y-138168432D01*
X158042604Y-138206554D01*
X157992561Y-138255387D01*
X157956137Y-138312962D01*
X157934406Y-138377309D01*
X157928443Y-138446458D01*
X157932215Y-138485461D01*
X157951657Y-138553739D01*
X157985854Y-138614830D01*
X158032927Y-138666174D01*
X158090998Y-138705210D01*
X158095029Y-138707222D01*
X158142862Y-138723956D01*
X158198628Y-138733189D01*
X158255184Y-138734357D01*
X158305390Y-138726897D01*
X158313609Y-138724462D01*
X158377757Y-138694493D01*
X158433053Y-138650011D01*
X158477990Y-138592409D01*
X158498619Y-138553739D01*
X158511735Y-138520349D01*
X158518686Y-138487787D01*
X158520202Y-138462281D01*
X158399710Y-138462281D01*
X158385019Y-138511706D01*
X158357796Y-138555820D01*
X158320309Y-138589990D01*
X158309409Y-138596540D01*
X158268770Y-138610062D01*
X158221048Y-138612977D01*
X158172784Y-138605687D01*
X158130522Y-138588592D01*
X158125153Y-138585238D01*
X158086923Y-138550128D01*
X158061601Y-138506008D01*
X158049931Y-138456472D01*
X158052658Y-138405115D01*
X158070527Y-138355533D01*
X158075732Y-138346550D01*
X158109766Y-138306007D01*
X158150974Y-138279263D01*
X158196516Y-138265742D01*
X158243554Y-138264869D01*
X158289249Y-138276068D01*
X158330761Y-138298765D01*
X158365252Y-138332384D01*
X158389882Y-138376350D01*
X158399604Y-138412179D01*
X158399710Y-138462281D01*
X158520202Y-138462281D01*
X158521059Y-138447868D01*
X158521123Y-138437472D01*
X158519973Y-138398392D01*
X158515271Y-138368432D01*
X158505139Y-138339273D01*
X158493149Y-138313536D01*
X158454428Y-138252643D01*
X158403845Y-138204139D01*
X158343775Y-138168432D01*
X158312655Y-138155633D01*
X158283099Y-138148528D01*
X158247567Y-138145660D01*
X158224483Y-138145358D01*
X158182934Y-138146615D01*
G37*
X158182934Y-138146615D02*
X158151244Y-138151357D01*
X158121871Y-138161042D01*
X158105190Y-138168432D01*
X158042604Y-138206554D01*
X157992561Y-138255387D01*
X157956137Y-138312962D01*
X157934406Y-138377309D01*
X157928443Y-138446458D01*
X157932215Y-138485461D01*
X157951657Y-138553739D01*
X157985854Y-138614830D01*
X158032927Y-138666174D01*
X158090998Y-138705210D01*
X158095029Y-138707222D01*
X158142862Y-138723956D01*
X158198628Y-138733189D01*
X158255184Y-138734357D01*
X158305390Y-138726897D01*
X158313609Y-138724462D01*
X158377757Y-138694493D01*
X158433053Y-138650011D01*
X158477990Y-138592409D01*
X158498619Y-138553739D01*
X158511735Y-138520349D01*
X158518686Y-138487787D01*
X158520202Y-138462281D01*
X158399710Y-138462281D01*
X158385019Y-138511706D01*
X158357796Y-138555820D01*
X158320309Y-138589990D01*
X158309409Y-138596540D01*
X158268770Y-138610062D01*
X158221048Y-138612977D01*
X158172784Y-138605687D01*
X158130522Y-138588592D01*
X158125153Y-138585238D01*
X158086923Y-138550128D01*
X158061601Y-138506008D01*
X158049931Y-138456472D01*
X158052658Y-138405115D01*
X158070527Y-138355533D01*
X158075732Y-138346550D01*
X158109766Y-138306007D01*
X158150974Y-138279263D01*
X158196516Y-138265742D01*
X158243554Y-138264869D01*
X158289249Y-138276068D01*
X158330761Y-138298765D01*
X158365252Y-138332384D01*
X158389882Y-138376350D01*
X158399604Y-138412179D01*
X158399710Y-138462281D01*
X158520202Y-138462281D01*
X158521059Y-138447868D01*
X158521123Y-138437472D01*
X158519973Y-138398392D01*
X158515271Y-138368432D01*
X158505139Y-138339273D01*
X158493149Y-138313536D01*
X158454428Y-138252643D01*
X158403845Y-138204139D01*
X158343775Y-138168432D01*
X158312655Y-138155633D01*
X158283099Y-138148528D01*
X158247567Y-138145660D01*
X158224483Y-138145358D01*
X158182934Y-138146615D01*
G36*
X157095309Y-138729727D02*
G01*
X157045145Y-138749712D01*
X157000693Y-138780858D01*
X156964297Y-138822105D01*
X156938298Y-138872394D01*
X156925039Y-138930666D01*
X156923827Y-138955517D01*
X156931747Y-139016583D01*
X156953989Y-139071088D01*
X156988280Y-139117274D01*
X157032344Y-139153385D01*
X157083908Y-139177662D01*
X157140698Y-139188347D01*
X157200439Y-139183684D01*
X157214563Y-139180198D01*
X157241318Y-139171729D01*
X157262638Y-139161599D01*
X157284144Y-139146379D01*
X157311460Y-139122641D01*
X157316543Y-139118008D01*
X157350939Y-139079710D01*
X157372106Y-139037879D01*
X157381959Y-138987854D01*
X157383249Y-138955517D01*
X157382797Y-138949253D01*
X157265285Y-138949253D01*
X157259561Y-138992324D01*
X157241298Y-139025466D01*
X157213629Y-139049409D01*
X157175782Y-139066370D01*
X157136084Y-139066593D01*
X157101331Y-139054682D01*
X157069995Y-139031029D01*
X157050151Y-138997945D01*
X157042462Y-138959770D01*
X157047591Y-138920843D01*
X157066202Y-138885503D01*
X157074109Y-138876652D01*
X157108050Y-138853088D01*
X157145499Y-138843598D01*
X157183006Y-138846869D01*
X157217121Y-138861592D01*
X157244393Y-138886456D01*
X157261371Y-138920151D01*
X157265285Y-138949253D01*
X157382797Y-138949253D01*
X157379369Y-138901844D01*
X157366104Y-138858086D01*
X157341013Y-138818764D01*
X157306239Y-138782581D01*
X157256651Y-138747330D01*
X157203404Y-138727476D01*
X157148843Y-138721962D01*
X157095309Y-138729727D01*
G37*
X157095309Y-138729727D02*
X157045145Y-138749712D01*
X157000693Y-138780858D01*
X156964297Y-138822105D01*
X156938298Y-138872394D01*
X156925039Y-138930666D01*
X156923827Y-138955517D01*
X156931747Y-139016583D01*
X156953989Y-139071088D01*
X156988280Y-139117274D01*
X157032344Y-139153385D01*
X157083908Y-139177662D01*
X157140698Y-139188347D01*
X157200439Y-139183684D01*
X157214563Y-139180198D01*
X157241318Y-139171729D01*
X157262638Y-139161599D01*
X157284144Y-139146379D01*
X157311460Y-139122641D01*
X157316543Y-139118008D01*
X157350939Y-139079710D01*
X157372106Y-139037879D01*
X157381959Y-138987854D01*
X157383249Y-138955517D01*
X157382797Y-138949253D01*
X157265285Y-138949253D01*
X157259561Y-138992324D01*
X157241298Y-139025466D01*
X157213629Y-139049409D01*
X157175782Y-139066370D01*
X157136084Y-139066593D01*
X157101331Y-139054682D01*
X157069995Y-139031029D01*
X157050151Y-138997945D01*
X157042462Y-138959770D01*
X157047591Y-138920843D01*
X157066202Y-138885503D01*
X157074109Y-138876652D01*
X157108050Y-138853088D01*
X157145499Y-138843598D01*
X157183006Y-138846869D01*
X157217121Y-138861592D01*
X157244393Y-138886456D01*
X157261371Y-138920151D01*
X157265285Y-138949253D01*
X157382797Y-138949253D01*
X157379369Y-138901844D01*
X157366104Y-138858086D01*
X157341013Y-138818764D01*
X157306239Y-138782581D01*
X157256651Y-138747330D01*
X157203404Y-138727476D01*
X157148843Y-138721962D01*
X157095309Y-138729727D01*
G36*
X157815727Y-138727472D02*
G01*
X157756680Y-138746717D01*
X157753114Y-138748434D01*
X157702347Y-138782277D01*
X157663938Y-138826151D01*
X157638342Y-138877233D01*
X157626013Y-138932702D01*
X157627407Y-138989738D01*
X157642976Y-139045518D01*
X157673177Y-139097222D01*
X157693249Y-139120010D01*
X157740291Y-139155657D01*
X157795213Y-139178573D01*
X157853515Y-139187526D01*
X157910699Y-139181285D01*
X157913985Y-139180404D01*
X157973616Y-139155553D01*
X158022450Y-139118208D01*
X158058939Y-139070362D01*
X158081534Y-139014009D01*
X158088347Y-138958386D01*
X157966103Y-138958386D01*
X157958516Y-138999595D01*
X157937977Y-139032970D01*
X157907818Y-139056435D01*
X157871372Y-139067914D01*
X157831973Y-139065329D01*
X157808787Y-139056416D01*
X157773409Y-139030111D01*
X157753086Y-138995086D01*
X157747138Y-138954207D01*
X157754878Y-138911797D01*
X157776388Y-138877203D01*
X157809099Y-138853458D01*
X157840079Y-138844504D01*
X157884568Y-138846116D01*
X157921425Y-138862422D01*
X157948500Y-138891477D01*
X157963639Y-138931336D01*
X157966103Y-138958386D01*
X158088347Y-138958386D01*
X158088724Y-138955311D01*
X158080854Y-138893839D01*
X158058775Y-138839645D01*
X158024787Y-138794149D01*
X157981190Y-138758766D01*
X157930281Y-138734914D01*
X157874361Y-138724011D01*
X157815727Y-138727472D01*
G37*
X157815727Y-138727472D02*
X157756680Y-138746717D01*
X157753114Y-138748434D01*
X157702347Y-138782277D01*
X157663938Y-138826151D01*
X157638342Y-138877233D01*
X157626013Y-138932702D01*
X157627407Y-138989738D01*
X157642976Y-139045518D01*
X157673177Y-139097222D01*
X157693249Y-139120010D01*
X157740291Y-139155657D01*
X157795213Y-139178573D01*
X157853515Y-139187526D01*
X157910699Y-139181285D01*
X157913985Y-139180404D01*
X157973616Y-139155553D01*
X158022450Y-139118208D01*
X158058939Y-139070362D01*
X158081534Y-139014009D01*
X158088347Y-138958386D01*
X157966103Y-138958386D01*
X157958516Y-138999595D01*
X157937977Y-139032970D01*
X157907818Y-139056435D01*
X157871372Y-139067914D01*
X157831973Y-139065329D01*
X157808787Y-139056416D01*
X157773409Y-139030111D01*
X157753086Y-138995086D01*
X157747138Y-138954207D01*
X157754878Y-138911797D01*
X157776388Y-138877203D01*
X157809099Y-138853458D01*
X157840079Y-138844504D01*
X157884568Y-138846116D01*
X157921425Y-138862422D01*
X157948500Y-138891477D01*
X157963639Y-138931336D01*
X157966103Y-138958386D01*
X158088347Y-138958386D01*
X158088724Y-138955311D01*
X158080854Y-138893839D01*
X158058775Y-138839645D01*
X158024787Y-138794149D01*
X157981190Y-138758766D01*
X157930281Y-138734914D01*
X157874361Y-138724011D01*
X157815727Y-138727472D01*
G36*
X157416376Y-136889740D02*
G01*
X157365346Y-136891682D01*
X157319163Y-136895446D01*
X157273909Y-136901150D01*
X157106972Y-136933989D01*
X156946387Y-136982587D01*
X156793042Y-137046154D01*
X156647829Y-137123897D01*
X156511638Y-137215028D01*
X156385359Y-137318754D01*
X156269883Y-137434284D01*
X156166101Y-137560829D01*
X156074903Y-137697596D01*
X155997178Y-137843796D01*
X155933819Y-137998636D01*
X155894591Y-138126233D01*
X155887024Y-138154610D01*
X155880246Y-138180108D01*
X155874209Y-138203796D01*
X155868864Y-138226743D01*
X155864165Y-138250018D01*
X155860064Y-138274689D01*
X155856512Y-138301826D01*
X155853461Y-138332496D01*
X155850864Y-138367770D01*
X155848673Y-138408715D01*
X155846839Y-138456401D01*
X155845316Y-138511897D01*
X155844055Y-138576271D01*
X155843008Y-138650591D01*
X155842128Y-138735928D01*
X155841366Y-138833350D01*
X155840674Y-138943925D01*
X155840006Y-139068723D01*
X155839312Y-139208812D01*
X155838546Y-139365261D01*
X155838478Y-139378883D01*
X155833379Y-140402214D01*
X155808805Y-140423348D01*
X155775642Y-140441243D01*
X155738774Y-140444138D01*
X155703545Y-140432033D01*
X155691540Y-140423364D01*
X155666965Y-140402245D01*
X155661877Y-140136519D01*
X155660313Y-140059739D01*
X155658773Y-139998203D01*
X155657087Y-139949640D01*
X155655088Y-139911779D01*
X155652607Y-139882348D01*
X155649478Y-139859074D01*
X155645532Y-139839687D01*
X155640600Y-139821915D01*
X155638022Y-139813862D01*
X155600961Y-139727794D01*
X155550403Y-139651326D01*
X155487913Y-139585917D01*
X155415052Y-139533023D01*
X155333386Y-139494102D01*
X155276744Y-139477085D01*
X155248933Y-139472742D01*
X155207823Y-139469178D01*
X155156779Y-139466422D01*
X155099165Y-139464505D01*
X155038348Y-139463456D01*
X154977691Y-139463304D01*
X154920560Y-139464080D01*
X154870321Y-139465812D01*
X154830338Y-139468531D01*
X154803976Y-139472265D01*
X154801432Y-139472907D01*
X154766962Y-139488967D01*
X154731251Y-139516072D01*
X154700055Y-139549206D01*
X154682170Y-139576782D01*
X154663594Y-139631856D01*
X154661196Y-139687736D01*
X154674029Y-139741545D01*
X154701144Y-139790409D01*
X154741594Y-139831451D01*
X154772757Y-139851602D01*
X154785979Y-139858068D01*
X154799989Y-139862955D01*
X154817464Y-139866528D01*
X154841081Y-139869047D01*
X154873517Y-139870775D01*
X154917449Y-139871974D01*
X154975554Y-139872906D01*
X154992552Y-139873128D01*
X155048740Y-139874037D01*
X155099946Y-139875233D01*
X155143228Y-139876618D01*
X155175644Y-139878094D01*
X155194249Y-139879563D01*
X155196461Y-139879932D01*
X155214185Y-139890140D01*
X155231524Y-139909331D01*
X155233653Y-139912631D01*
X155238769Y-139922065D01*
X155242762Y-139933029D01*
X155245771Y-139947689D01*
X155247933Y-139968206D01*
X155249387Y-139996744D01*
X155250271Y-140035467D01*
X155250724Y-140086537D01*
X155250885Y-140152118D01*
X155250898Y-140182073D01*
X155251144Y-140263501D01*
X155252088Y-140329939D01*
X155254073Y-140383913D01*
X155257443Y-140427945D01*
X155262544Y-140464561D01*
X155269717Y-140496284D01*
X155279309Y-140525640D01*
X155291662Y-140555152D01*
X155305767Y-140584620D01*
X155336898Y-140634928D01*
X155379541Y-140686711D01*
X155429055Y-140735338D01*
X155480801Y-140776182D01*
X155522911Y-140801243D01*
X155611805Y-140835553D01*
X155701857Y-140852984D01*
X155791410Y-140853808D01*
X155878805Y-140838298D01*
X155962384Y-140806726D01*
X156040489Y-140759365D01*
X156102159Y-140706071D01*
X156151761Y-140646965D01*
X156193547Y-140578969D01*
X156224562Y-140507582D01*
X156240052Y-140449443D01*
X156242560Y-140426697D01*
X156244809Y-140389308D01*
X156246711Y-140340151D01*
X156248172Y-140282100D01*
X156249104Y-140218028D01*
X156249414Y-140153839D01*
X156249414Y-139910207D01*
X156573483Y-139910207D01*
X156573450Y-140731327D01*
X156573437Y-140869716D01*
X156573395Y-140991669D01*
X156573301Y-141098267D01*
X156573134Y-141190593D01*
X156572871Y-141269727D01*
X156572489Y-141336752D01*
X156571967Y-141392749D01*
X156571282Y-141438799D01*
X156570412Y-141475984D01*
X156569334Y-141505385D01*
X156568026Y-141528084D01*
X156566467Y-141545162D01*
X156564632Y-141557701D01*
X156562502Y-141566783D01*
X156560052Y-141573488D01*
X156557261Y-141578899D01*
X156555929Y-141581132D01*
X156530046Y-141608897D01*
X156497344Y-141622968D01*
X156462238Y-141622856D01*
X156429138Y-141608072D01*
X156416193Y-141596630D01*
X156405294Y-141581406D01*
X156397632Y-141560351D01*
X156391948Y-141529073D01*
X156388659Y-141500607D01*
X156382776Y-141458094D01*
X156374246Y-141414922D01*
X156364782Y-141379590D01*
X156363521Y-141375868D01*
X156325479Y-141292987D01*
X156273501Y-141218583D01*
X156209604Y-141154527D01*
X156135804Y-141102692D01*
X156054120Y-141064947D01*
X156015617Y-141053134D01*
X155989096Y-141048624D01*
X155949539Y-141044984D01*
X155900049Y-141042221D01*
X155843722Y-141040342D01*
X155783661Y-141039356D01*
X155722963Y-141039271D01*
X155664729Y-141040094D01*
X155612058Y-141041834D01*
X155568050Y-141044497D01*
X155535804Y-141048093D01*
X155519977Y-141051879D01*
X155473530Y-141080002D01*
X155434975Y-141120170D01*
X155407104Y-141168270D01*
X155392707Y-141220185D01*
X155391347Y-141241517D01*
X155399931Y-141296847D01*
X155424079Y-141348601D01*
X155461839Y-141393463D01*
X155496023Y-141419426D01*
X155507035Y-141425640D01*
X155519185Y-141430437D01*
X155534938Y-141434070D01*
X155556760Y-141436789D01*
X155587117Y-141438845D01*
X155628472Y-141440490D01*
X155683292Y-141441977D01*
X155726818Y-141442965D01*
X155926809Y-141447345D01*
X155951096Y-141474542D01*
X155965095Y-141493445D01*
X155973921Y-141515451D01*
X155979571Y-141546460D01*
X155981578Y-141564611D01*
X155997266Y-141657095D01*
X156025694Y-141739008D01*
X156068071Y-141812968D01*
X156125608Y-141881591D01*
X156130202Y-141886230D01*
X156201888Y-141946652D01*
X156280233Y-141992041D01*
X156363479Y-142021841D01*
X156449865Y-142035495D01*
X156537634Y-142032447D01*
X156573174Y-142026334D01*
X156664825Y-141998276D01*
X156747747Y-141955481D01*
X156820723Y-141899037D01*
X156882537Y-141830032D01*
X156931970Y-141749556D01*
X156961176Y-141679448D01*
X156980543Y-141622517D01*
X156985865Y-139910207D01*
X157300448Y-139910207D01*
X157300448Y-140933376D01*
X157300462Y-141093602D01*
X157300470Y-141237260D01*
X157300423Y-141365302D01*
X157300274Y-141478677D01*
X157299972Y-141578335D01*
X157299468Y-141665226D01*
X157298714Y-141740301D01*
X157297661Y-141804508D01*
X157296260Y-141858800D01*
X157294462Y-141904124D01*
X157292217Y-141941432D01*
X157289478Y-141971674D01*
X157286194Y-141995799D01*
X157282317Y-142014758D01*
X157277798Y-142029501D01*
X157272589Y-142040978D01*
X157266639Y-142050139D01*
X157259901Y-142057934D01*
X157252324Y-142065313D01*
X157243861Y-142073226D01*
X157241593Y-142075407D01*
X157215228Y-142098171D01*
X157188252Y-142113899D01*
X157155549Y-142124671D01*
X157112008Y-142132566D01*
X157095751Y-142134724D01*
X157034632Y-142149883D01*
X156983936Y-142177921D01*
X156945040Y-142217491D01*
X156919322Y-142267250D01*
X156908770Y-142317417D01*
X156911095Y-142377260D01*
X156928356Y-142430098D01*
X156958881Y-142474497D01*
X157001000Y-142509025D01*
X157053041Y-142532248D01*
X157113331Y-142542732D01*
X157169069Y-142540653D01*
X157269904Y-142519514D01*
X157364909Y-142483111D01*
X157451944Y-142432596D01*
X157528872Y-142369121D01*
X157569890Y-142324568D01*
X157605618Y-142274822D01*
X157640079Y-142215278D01*
X157669590Y-142153015D01*
X157690470Y-142095108D01*
X157691867Y-142090104D01*
X157694146Y-142080675D01*
X157696193Y-142069461D01*
X157698025Y-142055501D01*
X157699656Y-142037835D01*
X157701103Y-142015501D01*
X157702380Y-141987540D01*
X157703503Y-141952989D01*
X157704488Y-141910888D01*
X157705349Y-141860276D01*
X157706103Y-141800192D01*
X157706765Y-141729676D01*
X157707350Y-141647766D01*
X157707874Y-141553501D01*
X157708351Y-141445921D01*
X157708799Y-141324065D01*
X157709231Y-141186971D01*
X157709664Y-141033680D01*
X157709828Y-140972189D01*
X157712638Y-139910207D01*
X158027414Y-139910207D01*
X158027414Y-140613875D01*
X158027429Y-140741781D01*
X158027494Y-140853412D01*
X158027636Y-140950007D01*
X158027883Y-141032809D01*
X158028263Y-141103057D01*
X158028803Y-141161994D01*
X158029532Y-141210859D01*
X158030477Y-141250895D01*
X158031666Y-141283342D01*
X158033127Y-141309441D01*
X158034887Y-141330434D01*
X158036975Y-141347561D01*
X158039418Y-141362064D01*
X158042243Y-141375183D01*
X158044686Y-141385075D01*
X158077864Y-141480444D01*
X158125902Y-141567687D01*
X158187487Y-141645410D01*
X158261305Y-141712219D01*
X158346044Y-141766720D01*
X158440391Y-141807518D01*
X158443448Y-141808547D01*
X158463783Y-141815171D01*
X158482189Y-141820439D01*
X158501001Y-141824535D01*
X158522554Y-141827645D01*
X158549183Y-141829953D01*
X158583223Y-141831644D01*
X158627007Y-141832904D01*
X158682871Y-141833917D01*
X158753150Y-141834869D01*
X158779782Y-141835199D01*
X158856753Y-141836049D01*
X158918316Y-141836442D01*
X158966574Y-141836298D01*
X159003633Y-141835538D01*
X159031596Y-141834081D01*
X159052568Y-141831847D01*
X159068654Y-141828756D01*
X159081958Y-141824727D01*
X159085065Y-141823576D01*
X159137237Y-141795483D01*
X159177000Y-141757536D01*
X159204181Y-141712412D01*
X159218609Y-141662791D01*
X159220112Y-141611351D01*
X159208518Y-141560772D01*
X159183656Y-141513731D01*
X159145353Y-141472908D01*
X159109103Y-141448732D01*
X159098030Y-141443230D01*
X159086060Y-141438851D01*
X159071041Y-141435420D01*
X159050819Y-141432764D01*
X159023243Y-141430710D01*
X158986158Y-141429084D01*
X158937413Y-141427713D01*
X158874854Y-141426423D01*
X158820069Y-141425448D01*
X158742607Y-141424035D01*
X158680548Y-141422509D01*
X158631779Y-141420494D01*
X158594188Y-141417618D01*
X158565662Y-141413506D01*
X158544088Y-141407786D01*
X158527355Y-141400081D01*
X158513348Y-141390020D01*
X158499956Y-141377227D01*
X158490431Y-141367109D01*
X158481195Y-141357415D01*
X158473135Y-141348756D01*
X158466171Y-141339937D01*
X158460224Y-141329762D01*
X158455213Y-141317037D01*
X158451059Y-141300564D01*
X158447682Y-141279149D01*
X158445001Y-141251597D01*
X158442938Y-141216711D01*
X158441412Y-141173296D01*
X158440343Y-141120156D01*
X158439651Y-141056097D01*
X158439257Y-140979921D01*
X158439081Y-140890435D01*
X158439043Y-140786441D01*
X158439062Y-140666745D01*
X158439069Y-140598193D01*
X158439069Y-139910207D01*
X158763138Y-139910207D01*
X158763138Y-140317051D01*
X158763363Y-140426691D01*
X158764029Y-140522606D01*
X158765121Y-140604134D01*
X158766626Y-140670616D01*
X158768530Y-140721392D01*
X158770819Y-140755802D01*
X158772746Y-140770310D01*
X158797576Y-140849209D01*
X158837967Y-140925141D01*
X158891974Y-140994622D01*
X158906779Y-141009985D01*
X158966606Y-141063423D01*
X159026000Y-141102953D01*
X159089732Y-141131392D01*
X159135881Y-141145300D01*
X159228087Y-141160204D01*
X159319157Y-141158097D01*
X159407295Y-141139470D01*
X159490703Y-141104818D01*
X159567582Y-141054634D01*
X159612553Y-141014567D01*
X159659923Y-140961374D01*
X159697077Y-140905583D01*
X159724893Y-140844566D01*
X159744251Y-140775695D01*
X159756031Y-140696341D01*
X159761111Y-140603874D01*
X159761468Y-140569431D01*
X159761621Y-140436000D01*
X159787164Y-140407397D01*
X159812707Y-140378793D01*
X160109043Y-140374414D01*
X160192434Y-140373152D01*
X160260263Y-140371867D01*
X160314481Y-140370240D01*
X160357039Y-140367949D01*
X160389890Y-140364675D01*
X160414987Y-140360098D01*
X160434279Y-140353896D01*
X160449721Y-140345751D01*
X160463262Y-140335341D01*
X160476856Y-140322347D01*
X160486523Y-140312488D01*
X160520445Y-140269171D01*
X160539142Y-140222250D01*
X160544594Y-140167652D01*
X160536035Y-140110692D01*
X160512337Y-140060064D01*
X160475401Y-140018047D01*
X160427131Y-139986922D01*
X160380646Y-139971174D01*
X160356930Y-139967942D01*
X160318664Y-139965633D01*
X160265208Y-139964236D01*
X160195920Y-139963738D01*
X160110161Y-139964127D01*
X160050655Y-139964779D01*
X159966487Y-139965961D01*
X159897538Y-139967344D01*
X159841510Y-139969268D01*
X159796105Y-139972073D01*
X159759024Y-139976100D01*
X159727971Y-139981687D01*
X159700646Y-139989175D01*
X159674752Y-139998904D01*
X159647991Y-140011213D01*
X159618065Y-140026443D01*
X159611875Y-140029672D01*
X159543924Y-140074248D01*
X159482083Y-140132390D01*
X159429446Y-140200408D01*
X159389110Y-140274610D01*
X159374655Y-140312471D01*
X159367336Y-140337592D01*
X159361921Y-140364021D01*
X159358038Y-140395296D01*
X159355315Y-140434958D01*
X159353379Y-140486545D01*
X159352470Y-140523310D01*
X159350834Y-140575152D01*
X159348400Y-140622429D01*
X159345419Y-140661709D01*
X159342139Y-140689559D01*
X159339555Y-140701085D01*
X159320397Y-140728649D01*
X159291714Y-140745275D01*
X159258296Y-140750126D01*
X159224930Y-140742364D01*
X159200395Y-140725432D01*
X159174793Y-140699830D01*
X159174793Y-139596498D01*
X159174769Y-139426515D01*
X159174680Y-139273056D01*
X159174505Y-139135127D01*
X159174219Y-139011735D01*
X159173801Y-138901886D01*
X159173226Y-138804588D01*
X159172473Y-138718846D01*
X159171517Y-138643667D01*
X159170336Y-138578059D01*
X159168907Y-138521026D01*
X159168757Y-138516651D01*
X158723761Y-138516651D01*
X158710419Y-138660834D01*
X158681339Y-138806624D01*
X158636399Y-138953042D01*
X158575476Y-139099112D01*
X158570244Y-139110056D01*
X158521724Y-139194286D01*
X158464715Y-139263539D01*
X158399457Y-139317551D01*
X158363446Y-139338949D01*
X158345687Y-139348237D01*
X158329313Y-139356371D01*
X158313093Y-139363430D01*
X158295792Y-139369491D01*
X158276177Y-139374632D01*
X158253016Y-139378931D01*
X158225075Y-139382465D01*
X158191122Y-139385312D01*
X158149923Y-139387549D01*
X158100245Y-139389255D01*
X158040855Y-139390507D01*
X157970520Y-139391382D01*
X157888007Y-139391958D01*
X157792082Y-139392314D01*
X157681514Y-139392525D01*
X157555068Y-139392671D01*
X157509661Y-139392718D01*
X157372569Y-139392745D01*
X157247596Y-139392532D01*
X157135401Y-139392085D01*
X157036642Y-139391413D01*
X156951977Y-139390521D01*
X156882066Y-139389418D01*
X156827565Y-139388111D01*
X156789134Y-139386607D01*
X156767431Y-139384913D01*
X156765178Y-139384556D01*
X156717288Y-139371100D01*
X156663921Y-139349115D01*
X156612044Y-139321961D01*
X156568624Y-139292999D01*
X156559078Y-139285152D01*
X156520619Y-139243789D01*
X156481719Y-139187264D01*
X156443402Y-139117870D01*
X156406695Y-139037902D01*
X156372620Y-138949654D01*
X156342204Y-138855418D01*
X156316471Y-138757489D01*
X156309604Y-138726738D01*
X156298469Y-138657586D01*
X156291438Y-138577040D01*
X156288518Y-138490379D01*
X156289711Y-138402882D01*
X156295024Y-138319830D01*
X156304460Y-138246502D01*
X156309162Y-138222125D01*
X156347584Y-138083813D01*
X156400736Y-137953890D01*
X156467599Y-137833081D01*
X156547152Y-137722111D01*
X156638375Y-137621703D01*
X156740247Y-137532582D01*
X156851748Y-137455474D01*
X156971858Y-137391102D01*
X157099556Y-137340190D01*
X157233822Y-137303464D01*
X157373635Y-137281648D01*
X157517975Y-137275466D01*
X157633276Y-137281987D01*
X157781917Y-137305117D01*
X157922924Y-137343921D01*
X158056023Y-137398272D01*
X158180943Y-137468042D01*
X158297413Y-137553105D01*
X158386673Y-137634430D01*
X158480100Y-137740008D01*
X158558639Y-137854032D01*
X158622169Y-137975526D01*
X158670567Y-138103512D01*
X158703713Y-138237013D01*
X158721485Y-138375052D01*
X158723761Y-138516651D01*
X159168757Y-138516651D01*
X159167206Y-138471577D01*
X159165212Y-138428717D01*
X159162900Y-138391454D01*
X159160248Y-138358793D01*
X159157233Y-138329741D01*
X159153831Y-138303306D01*
X159150020Y-138278493D01*
X159145777Y-138254308D01*
X159143399Y-138241689D01*
X159103047Y-138076812D01*
X159046991Y-137918711D01*
X158976037Y-137768300D01*
X158890989Y-137626492D01*
X158792651Y-137494202D01*
X158681827Y-137372343D01*
X158559322Y-137261829D01*
X158425940Y-137163574D01*
X158282486Y-137078493D01*
X158129764Y-137007498D01*
X158022555Y-136968234D01*
X157940791Y-136942925D01*
X157866394Y-136923658D01*
X157794332Y-136909607D01*
X157719571Y-136899949D01*
X157637079Y-136893856D01*
X157549806Y-136890685D01*
X157476461Y-136889461D01*
X157416376Y-136889740D01*
G37*
X157416376Y-136889740D02*
X157365346Y-136891682D01*
X157319163Y-136895446D01*
X157273909Y-136901150D01*
X157106972Y-136933989D01*
X156946387Y-136982587D01*
X156793042Y-137046154D01*
X156647829Y-137123897D01*
X156511638Y-137215028D01*
X156385359Y-137318754D01*
X156269883Y-137434284D01*
X156166101Y-137560829D01*
X156074903Y-137697596D01*
X155997178Y-137843796D01*
X155933819Y-137998636D01*
X155894591Y-138126233D01*
X155887024Y-138154610D01*
X155880246Y-138180108D01*
X155874209Y-138203796D01*
X155868864Y-138226743D01*
X155864165Y-138250018D01*
X155860064Y-138274689D01*
X155856512Y-138301826D01*
X155853461Y-138332496D01*
X155850864Y-138367770D01*
X155848673Y-138408715D01*
X155846839Y-138456401D01*
X155845316Y-138511897D01*
X155844055Y-138576271D01*
X155843008Y-138650591D01*
X155842128Y-138735928D01*
X155841366Y-138833350D01*
X155840674Y-138943925D01*
X155840006Y-139068723D01*
X155839312Y-139208812D01*
X155838546Y-139365261D01*
X155838478Y-139378883D01*
X155833379Y-140402214D01*
X155808805Y-140423348D01*
X155775642Y-140441243D01*
X155738774Y-140444138D01*
X155703545Y-140432033D01*
X155691540Y-140423364D01*
X155666965Y-140402245D01*
X155661877Y-140136519D01*
X155660313Y-140059739D01*
X155658773Y-139998203D01*
X155657087Y-139949640D01*
X155655088Y-139911779D01*
X155652607Y-139882348D01*
X155649478Y-139859074D01*
X155645532Y-139839687D01*
X155640600Y-139821915D01*
X155638022Y-139813862D01*
X155600961Y-139727794D01*
X155550403Y-139651326D01*
X155487913Y-139585917D01*
X155415052Y-139533023D01*
X155333386Y-139494102D01*
X155276744Y-139477085D01*
X155248933Y-139472742D01*
X155207823Y-139469178D01*
X155156779Y-139466422D01*
X155099165Y-139464505D01*
X155038348Y-139463456D01*
X154977691Y-139463304D01*
X154920560Y-139464080D01*
X154870321Y-139465812D01*
X154830338Y-139468531D01*
X154803976Y-139472265D01*
X154801432Y-139472907D01*
X154766962Y-139488967D01*
X154731251Y-139516072D01*
X154700055Y-139549206D01*
X154682170Y-139576782D01*
X154663594Y-139631856D01*
X154661196Y-139687736D01*
X154674029Y-139741545D01*
X154701144Y-139790409D01*
X154741594Y-139831451D01*
X154772757Y-139851602D01*
X154785979Y-139858068D01*
X154799989Y-139862955D01*
X154817464Y-139866528D01*
X154841081Y-139869047D01*
X154873517Y-139870775D01*
X154917449Y-139871974D01*
X154975554Y-139872906D01*
X154992552Y-139873128D01*
X155048740Y-139874037D01*
X155099946Y-139875233D01*
X155143228Y-139876618D01*
X155175644Y-139878094D01*
X155194249Y-139879563D01*
X155196461Y-139879932D01*
X155214185Y-139890140D01*
X155231524Y-139909331D01*
X155233653Y-139912631D01*
X155238769Y-139922065D01*
X155242762Y-139933029D01*
X155245771Y-139947689D01*
X155247933Y-139968206D01*
X155249387Y-139996744D01*
X155250271Y-140035467D01*
X155250724Y-140086537D01*
X155250885Y-140152118D01*
X155250898Y-140182073D01*
X155251144Y-140263501D01*
X155252088Y-140329939D01*
X155254073Y-140383913D01*
X155257443Y-140427945D01*
X155262544Y-140464561D01*
X155269717Y-140496284D01*
X155279309Y-140525640D01*
X155291662Y-140555152D01*
X155305767Y-140584620D01*
X155336898Y-140634928D01*
X155379541Y-140686711D01*
X155429055Y-140735338D01*
X155480801Y-140776182D01*
X155522911Y-140801243D01*
X155611805Y-140835553D01*
X155701857Y-140852984D01*
X155791410Y-140853808D01*
X155878805Y-140838298D01*
X155962384Y-140806726D01*
X156040489Y-140759365D01*
X156102159Y-140706071D01*
X156151761Y-140646965D01*
X156193547Y-140578969D01*
X156224562Y-140507582D01*
X156240052Y-140449443D01*
X156242560Y-140426697D01*
X156244809Y-140389308D01*
X156246711Y-140340151D01*
X156248172Y-140282100D01*
X156249104Y-140218028D01*
X156249414Y-140153839D01*
X156249414Y-139910207D01*
X156573483Y-139910207D01*
X156573450Y-140731327D01*
X156573437Y-140869716D01*
X156573395Y-140991669D01*
X156573301Y-141098267D01*
X156573134Y-141190593D01*
X156572871Y-141269727D01*
X156572489Y-141336752D01*
X156571967Y-141392749D01*
X156571282Y-141438799D01*
X156570412Y-141475984D01*
X156569334Y-141505385D01*
X156568026Y-141528084D01*
X156566467Y-141545162D01*
X156564632Y-141557701D01*
X156562502Y-141566783D01*
X156560052Y-141573488D01*
X156557261Y-141578899D01*
X156555929Y-141581132D01*
X156530046Y-141608897D01*
X156497344Y-141622968D01*
X156462238Y-141622856D01*
X156429138Y-141608072D01*
X156416193Y-141596630D01*
X156405294Y-141581406D01*
X156397632Y-141560351D01*
X156391948Y-141529073D01*
X156388659Y-141500607D01*
X156382776Y-141458094D01*
X156374246Y-141414922D01*
X156364782Y-141379590D01*
X156363521Y-141375868D01*
X156325479Y-141292987D01*
X156273501Y-141218583D01*
X156209604Y-141154527D01*
X156135804Y-141102692D01*
X156054120Y-141064947D01*
X156015617Y-141053134D01*
X155989096Y-141048624D01*
X155949539Y-141044984D01*
X155900049Y-141042221D01*
X155843722Y-141040342D01*
X155783661Y-141039356D01*
X155722963Y-141039271D01*
X155664729Y-141040094D01*
X155612058Y-141041834D01*
X155568050Y-141044497D01*
X155535804Y-141048093D01*
X155519977Y-141051879D01*
X155473530Y-141080002D01*
X155434975Y-141120170D01*
X155407104Y-141168270D01*
X155392707Y-141220185D01*
X155391347Y-141241517D01*
X155399931Y-141296847D01*
X155424079Y-141348601D01*
X155461839Y-141393463D01*
X155496023Y-141419426D01*
X155507035Y-141425640D01*
X155519185Y-141430437D01*
X155534938Y-141434070D01*
X155556760Y-141436789D01*
X155587117Y-141438845D01*
X155628472Y-141440490D01*
X155683292Y-141441977D01*
X155726818Y-141442965D01*
X155926809Y-141447345D01*
X155951096Y-141474542D01*
X155965095Y-141493445D01*
X155973921Y-141515451D01*
X155979571Y-141546460D01*
X155981578Y-141564611D01*
X155997266Y-141657095D01*
X156025694Y-141739008D01*
X156068071Y-141812968D01*
X156125608Y-141881591D01*
X156130202Y-141886230D01*
X156201888Y-141946652D01*
X156280233Y-141992041D01*
X156363479Y-142021841D01*
X156449865Y-142035495D01*
X156537634Y-142032447D01*
X156573174Y-142026334D01*
X156664825Y-141998276D01*
X156747747Y-141955481D01*
X156820723Y-141899037D01*
X156882537Y-141830032D01*
X156931970Y-141749556D01*
X156961176Y-141679448D01*
X156980543Y-141622517D01*
X156985865Y-139910207D01*
X157300448Y-139910207D01*
X157300448Y-140933376D01*
X157300462Y-141093602D01*
X157300470Y-141237260D01*
X157300423Y-141365302D01*
X157300274Y-141478677D01*
X157299972Y-141578335D01*
X157299468Y-141665226D01*
X157298714Y-141740301D01*
X157297661Y-141804508D01*
X157296260Y-141858800D01*
X157294462Y-141904124D01*
X157292217Y-141941432D01*
X157289478Y-141971674D01*
X157286194Y-141995799D01*
X157282317Y-142014758D01*
X157277798Y-142029501D01*
X157272589Y-142040978D01*
X157266639Y-142050139D01*
X157259901Y-142057934D01*
X157252324Y-142065313D01*
X157243861Y-142073226D01*
X157241593Y-142075407D01*
X157215228Y-142098171D01*
X157188252Y-142113899D01*
X157155549Y-142124671D01*
X157112008Y-142132566D01*
X157095751Y-142134724D01*
X157034632Y-142149883D01*
X156983936Y-142177921D01*
X156945040Y-142217491D01*
X156919322Y-142267250D01*
X156908770Y-142317417D01*
X156911095Y-142377260D01*
X156928356Y-142430098D01*
X156958881Y-142474497D01*
X157001000Y-142509025D01*
X157053041Y-142532248D01*
X157113331Y-142542732D01*
X157169069Y-142540653D01*
X157269904Y-142519514D01*
X157364909Y-142483111D01*
X157451944Y-142432596D01*
X157528872Y-142369121D01*
X157569890Y-142324568D01*
X157605618Y-142274822D01*
X157640079Y-142215278D01*
X157669590Y-142153015D01*
X157690470Y-142095108D01*
X157691867Y-142090104D01*
X157694146Y-142080675D01*
X157696193Y-142069461D01*
X157698025Y-142055501D01*
X157699656Y-142037835D01*
X157701103Y-142015501D01*
X157702380Y-141987540D01*
X157703503Y-141952989D01*
X157704488Y-141910888D01*
X157705349Y-141860276D01*
X157706103Y-141800192D01*
X157706765Y-141729676D01*
X157707350Y-141647766D01*
X157707874Y-141553501D01*
X157708351Y-141445921D01*
X157708799Y-141324065D01*
X157709231Y-141186971D01*
X157709664Y-141033680D01*
X157709828Y-140972189D01*
X157712638Y-139910207D01*
X158027414Y-139910207D01*
X158027414Y-140613875D01*
X158027429Y-140741781D01*
X158027494Y-140853412D01*
X158027636Y-140950007D01*
X158027883Y-141032809D01*
X158028263Y-141103057D01*
X158028803Y-141161994D01*
X158029532Y-141210859D01*
X158030477Y-141250895D01*
X158031666Y-141283342D01*
X158033127Y-141309441D01*
X158034887Y-141330434D01*
X158036975Y-141347561D01*
X158039418Y-141362064D01*
X158042243Y-141375183D01*
X158044686Y-141385075D01*
X158077864Y-141480444D01*
X158125902Y-141567687D01*
X158187487Y-141645410D01*
X158261305Y-141712219D01*
X158346044Y-141766720D01*
X158440391Y-141807518D01*
X158443448Y-141808547D01*
X158463783Y-141815171D01*
X158482189Y-141820439D01*
X158501001Y-141824535D01*
X158522554Y-141827645D01*
X158549183Y-141829953D01*
X158583223Y-141831644D01*
X158627007Y-141832904D01*
X158682871Y-141833917D01*
X158753150Y-141834869D01*
X158779782Y-141835199D01*
X158856753Y-141836049D01*
X158918316Y-141836442D01*
X158966574Y-141836298D01*
X159003633Y-141835538D01*
X159031596Y-141834081D01*
X159052568Y-141831847D01*
X159068654Y-141828756D01*
X159081958Y-141824727D01*
X159085065Y-141823576D01*
X159137237Y-141795483D01*
X159177000Y-141757536D01*
X159204181Y-141712412D01*
X159218609Y-141662791D01*
X159220112Y-141611351D01*
X159208518Y-141560772D01*
X159183656Y-141513731D01*
X159145353Y-141472908D01*
X159109103Y-141448732D01*
X159098030Y-141443230D01*
X159086060Y-141438851D01*
X159071041Y-141435420D01*
X159050819Y-141432764D01*
X159023243Y-141430710D01*
X158986158Y-141429084D01*
X158937413Y-141427713D01*
X158874854Y-141426423D01*
X158820069Y-141425448D01*
X158742607Y-141424035D01*
X158680548Y-141422509D01*
X158631779Y-141420494D01*
X158594188Y-141417618D01*
X158565662Y-141413506D01*
X158544088Y-141407786D01*
X158527355Y-141400081D01*
X158513348Y-141390020D01*
X158499956Y-141377227D01*
X158490431Y-141367109D01*
X158481195Y-141357415D01*
X158473135Y-141348756D01*
X158466171Y-141339937D01*
X158460224Y-141329762D01*
X158455213Y-141317037D01*
X158451059Y-141300564D01*
X158447682Y-141279149D01*
X158445001Y-141251597D01*
X158442938Y-141216711D01*
X158441412Y-141173296D01*
X158440343Y-141120156D01*
X158439651Y-141056097D01*
X158439257Y-140979921D01*
X158439081Y-140890435D01*
X158439043Y-140786441D01*
X158439062Y-140666745D01*
X158439069Y-140598193D01*
X158439069Y-139910207D01*
X158763138Y-139910207D01*
X158763138Y-140317051D01*
X158763363Y-140426691D01*
X158764029Y-140522606D01*
X158765121Y-140604134D01*
X158766626Y-140670616D01*
X158768530Y-140721392D01*
X158770819Y-140755802D01*
X158772746Y-140770310D01*
X158797576Y-140849209D01*
X158837967Y-140925141D01*
X158891974Y-140994622D01*
X158906779Y-141009985D01*
X158966606Y-141063423D01*
X159026000Y-141102953D01*
X159089732Y-141131392D01*
X159135881Y-141145300D01*
X159228087Y-141160204D01*
X159319157Y-141158097D01*
X159407295Y-141139470D01*
X159490703Y-141104818D01*
X159567582Y-141054634D01*
X159612553Y-141014567D01*
X159659923Y-140961374D01*
X159697077Y-140905583D01*
X159724893Y-140844566D01*
X159744251Y-140775695D01*
X159756031Y-140696341D01*
X159761111Y-140603874D01*
X159761468Y-140569431D01*
X159761621Y-140436000D01*
X159787164Y-140407397D01*
X159812707Y-140378793D01*
X160109043Y-140374414D01*
X160192434Y-140373152D01*
X160260263Y-140371867D01*
X160314481Y-140370240D01*
X160357039Y-140367949D01*
X160389890Y-140364675D01*
X160414987Y-140360098D01*
X160434279Y-140353896D01*
X160449721Y-140345751D01*
X160463262Y-140335341D01*
X160476856Y-140322347D01*
X160486523Y-140312488D01*
X160520445Y-140269171D01*
X160539142Y-140222250D01*
X160544594Y-140167652D01*
X160536035Y-140110692D01*
X160512337Y-140060064D01*
X160475401Y-140018047D01*
X160427131Y-139986922D01*
X160380646Y-139971174D01*
X160356930Y-139967942D01*
X160318664Y-139965633D01*
X160265208Y-139964236D01*
X160195920Y-139963738D01*
X160110161Y-139964127D01*
X160050655Y-139964779D01*
X159966487Y-139965961D01*
X159897538Y-139967344D01*
X159841510Y-139969268D01*
X159796105Y-139972073D01*
X159759024Y-139976100D01*
X159727971Y-139981687D01*
X159700646Y-139989175D01*
X159674752Y-139998904D01*
X159647991Y-140011213D01*
X159618065Y-140026443D01*
X159611875Y-140029672D01*
X159543924Y-140074248D01*
X159482083Y-140132390D01*
X159429446Y-140200408D01*
X159389110Y-140274610D01*
X159374655Y-140312471D01*
X159367336Y-140337592D01*
X159361921Y-140364021D01*
X159358038Y-140395296D01*
X159355315Y-140434958D01*
X159353379Y-140486545D01*
X159352470Y-140523310D01*
X159350834Y-140575152D01*
X159348400Y-140622429D01*
X159345419Y-140661709D01*
X159342139Y-140689559D01*
X159339555Y-140701085D01*
X159320397Y-140728649D01*
X159291714Y-140745275D01*
X159258296Y-140750126D01*
X159224930Y-140742364D01*
X159200395Y-140725432D01*
X159174793Y-140699830D01*
X159174793Y-139596498D01*
X159174769Y-139426515D01*
X159174680Y-139273056D01*
X159174505Y-139135127D01*
X159174219Y-139011735D01*
X159173801Y-138901886D01*
X159173226Y-138804588D01*
X159172473Y-138718846D01*
X159171517Y-138643667D01*
X159170336Y-138578059D01*
X159168907Y-138521026D01*
X159168757Y-138516651D01*
X158723761Y-138516651D01*
X158710419Y-138660834D01*
X158681339Y-138806624D01*
X158636399Y-138953042D01*
X158575476Y-139099112D01*
X158570244Y-139110056D01*
X158521724Y-139194286D01*
X158464715Y-139263539D01*
X158399457Y-139317551D01*
X158363446Y-139338949D01*
X158345687Y-139348237D01*
X158329313Y-139356371D01*
X158313093Y-139363430D01*
X158295792Y-139369491D01*
X158276177Y-139374632D01*
X158253016Y-139378931D01*
X158225075Y-139382465D01*
X158191122Y-139385312D01*
X158149923Y-139387549D01*
X158100245Y-139389255D01*
X158040855Y-139390507D01*
X157970520Y-139391382D01*
X157888007Y-139391958D01*
X157792082Y-139392314D01*
X157681514Y-139392525D01*
X157555068Y-139392671D01*
X157509661Y-139392718D01*
X157372569Y-139392745D01*
X157247596Y-139392532D01*
X157135401Y-139392085D01*
X157036642Y-139391413D01*
X156951977Y-139390521D01*
X156882066Y-139389418D01*
X156827565Y-139388111D01*
X156789134Y-139386607D01*
X156767431Y-139384913D01*
X156765178Y-139384556D01*
X156717288Y-139371100D01*
X156663921Y-139349115D01*
X156612044Y-139321961D01*
X156568624Y-139292999D01*
X156559078Y-139285152D01*
X156520619Y-139243789D01*
X156481719Y-139187264D01*
X156443402Y-139117870D01*
X156406695Y-139037902D01*
X156372620Y-138949654D01*
X156342204Y-138855418D01*
X156316471Y-138757489D01*
X156309604Y-138726738D01*
X156298469Y-138657586D01*
X156291438Y-138577040D01*
X156288518Y-138490379D01*
X156289711Y-138402882D01*
X156295024Y-138319830D01*
X156304460Y-138246502D01*
X156309162Y-138222125D01*
X156347584Y-138083813D01*
X156400736Y-137953890D01*
X156467599Y-137833081D01*
X156547152Y-137722111D01*
X156638375Y-137621703D01*
X156740247Y-137532582D01*
X156851748Y-137455474D01*
X156971858Y-137391102D01*
X157099556Y-137340190D01*
X157233822Y-137303464D01*
X157373635Y-137281648D01*
X157517975Y-137275466D01*
X157633276Y-137281987D01*
X157781917Y-137305117D01*
X157922924Y-137343921D01*
X158056023Y-137398272D01*
X158180943Y-137468042D01*
X158297413Y-137553105D01*
X158386673Y-137634430D01*
X158480100Y-137740008D01*
X158558639Y-137854032D01*
X158622169Y-137975526D01*
X158670567Y-138103512D01*
X158703713Y-138237013D01*
X158721485Y-138375052D01*
X158723761Y-138516651D01*
X159168757Y-138516651D01*
X159167206Y-138471577D01*
X159165212Y-138428717D01*
X159162900Y-138391454D01*
X159160248Y-138358793D01*
X159157233Y-138329741D01*
X159153831Y-138303306D01*
X159150020Y-138278493D01*
X159145777Y-138254308D01*
X159143399Y-138241689D01*
X159103047Y-138076812D01*
X159046991Y-137918711D01*
X158976037Y-137768300D01*
X158890989Y-137626492D01*
X158792651Y-137494202D01*
X158681827Y-137372343D01*
X158559322Y-137261829D01*
X158425940Y-137163574D01*
X158282486Y-137078493D01*
X158129764Y-137007498D01*
X158022555Y-136968234D01*
X157940791Y-136942925D01*
X157866394Y-136923658D01*
X157794332Y-136909607D01*
X157719571Y-136899949D01*
X157637079Y-136893856D01*
X157549806Y-136890685D01*
X157476461Y-136889461D01*
X157416376Y-136889740D01*
G36*
X134951571Y-138921426D02*
G01*
X134931372Y-138932284D01*
X134903334Y-138960847D01*
X134881152Y-139001753D01*
X134868493Y-139046291D01*
X134868256Y-139082185D01*
X134885150Y-139124111D01*
X134916152Y-139163271D01*
X134954792Y-139192588D01*
X134978059Y-139202267D01*
X135004564Y-139209398D01*
X135020834Y-139211389D01*
X135037142Y-139208348D01*
X135054832Y-139203052D01*
X135104252Y-139178611D01*
X135140692Y-139141655D01*
X135162609Y-139096372D01*
X135168458Y-139046949D01*
X135156696Y-138997573D01*
X135140754Y-138969998D01*
X135102831Y-138934886D01*
X135054639Y-138914362D01*
X135002209Y-138909513D01*
X134951571Y-138921426D01*
G37*
X134951571Y-138921426D02*
X134931372Y-138932284D01*
X134903334Y-138960847D01*
X134881152Y-139001753D01*
X134868493Y-139046291D01*
X134868256Y-139082185D01*
X134885150Y-139124111D01*
X134916152Y-139163271D01*
X134954792Y-139192588D01*
X134978059Y-139202267D01*
X135004564Y-139209398D01*
X135020834Y-139211389D01*
X135037142Y-139208348D01*
X135054832Y-139203052D01*
X135104252Y-139178611D01*
X135140692Y-139141655D01*
X135162609Y-139096372D01*
X135168458Y-139046949D01*
X135156696Y-138997573D01*
X135140754Y-138969998D01*
X135102831Y-138934886D01*
X135054639Y-138914362D01*
X135002209Y-138909513D01*
X134951571Y-138921426D01*
G36*
X136604024Y-138938492D02*
G01*
X136594070Y-138940788D01*
X136582445Y-138946115D01*
X136567785Y-138955702D01*
X136548728Y-138970777D01*
X136523908Y-138992567D01*
X136491963Y-139022301D01*
X136451529Y-139061207D01*
X136401242Y-139110513D01*
X136339739Y-139171447D01*
X136265655Y-139245238D01*
X136202358Y-139308417D01*
X136129092Y-139381370D01*
X136060213Y-139449560D01*
X135997191Y-139511557D01*
X135941498Y-139565932D01*
X135894607Y-139611257D01*
X135857990Y-139646101D01*
X135833117Y-139669036D01*
X135821460Y-139678631D01*
X135820910Y-139678834D01*
X135810965Y-139671625D01*
X135788167Y-139651282D01*
X135754538Y-139619732D01*
X135712098Y-139578898D01*
X135662871Y-139530708D01*
X135608876Y-139477086D01*
X135604253Y-139472461D01*
X135538133Y-139406632D01*
X135484714Y-139354671D01*
X135441986Y-139315232D01*
X135407937Y-139286964D01*
X135380556Y-139268520D01*
X135357833Y-139258552D01*
X135337757Y-139255711D01*
X135318316Y-139258648D01*
X135297500Y-139266016D01*
X135296799Y-139266305D01*
X135257699Y-139292991D01*
X135232056Y-139331973D01*
X135221833Y-139377773D01*
X135228995Y-139424912D01*
X135234961Y-139438758D01*
X135245362Y-139452249D01*
X135268678Y-139478428D01*
X135302804Y-139515068D01*
X135345638Y-139559939D01*
X135395076Y-139610812D01*
X135446606Y-139663036D01*
X135646541Y-139864198D01*
X135276138Y-140234487D01*
X135188865Y-140321786D01*
X135115469Y-140395529D01*
X135054860Y-140457124D01*
X135005948Y-140507980D01*
X134967642Y-140549506D01*
X134938850Y-140583112D01*
X134918483Y-140610206D01*
X134905449Y-140632196D01*
X134898658Y-140650494D01*
X134897019Y-140666506D01*
X134899441Y-140681642D01*
X134904835Y-140697311D01*
X134909352Y-140708295D01*
X134935156Y-140744954D01*
X134973272Y-140769324D01*
X135017628Y-140779552D01*
X135062158Y-140773786D01*
X135085958Y-140762195D01*
X135098611Y-140751367D01*
X135124620Y-140727119D01*
X135162385Y-140691008D01*
X135210305Y-140644590D01*
X135266781Y-140589422D01*
X135330210Y-140527062D01*
X135398993Y-140459067D01*
X135466726Y-140391778D01*
X135821326Y-140038665D01*
X136175809Y-140393902D01*
X136248077Y-140466046D01*
X136316596Y-140533912D01*
X136379761Y-140595951D01*
X136435970Y-140650613D01*
X136483618Y-140696345D01*
X136521103Y-140731599D01*
X136546822Y-140754823D01*
X136558871Y-140764319D01*
X136606058Y-140778131D01*
X136656089Y-140773843D01*
X136690597Y-140759113D01*
X136723188Y-140727751D01*
X136740658Y-140686006D01*
X136740672Y-140640360D01*
X136737538Y-140628680D01*
X136727609Y-140612614D01*
X136704155Y-140584008D01*
X136666871Y-140542538D01*
X136615451Y-140487878D01*
X136549587Y-140419705D01*
X136468976Y-140337694D01*
X136373310Y-140241520D01*
X136361146Y-140229354D01*
X135996108Y-139864431D01*
X136365530Y-139493820D01*
X136451065Y-139407864D01*
X136522734Y-139335459D01*
X136581742Y-139275294D01*
X136629296Y-139226059D01*
X136666602Y-139186444D01*
X136694865Y-139155137D01*
X136715292Y-139130829D01*
X136729087Y-139112208D01*
X136737458Y-139097963D01*
X136741609Y-139086785D01*
X136742086Y-139084550D01*
X136741428Y-139035913D01*
X136722957Y-138993428D01*
X136689876Y-138960752D01*
X136645393Y-138941542D01*
X136613672Y-138938000D01*
X136604024Y-138938492D01*
G37*
X136604024Y-138938492D02*
X136594070Y-138940788D01*
X136582445Y-138946115D01*
X136567785Y-138955702D01*
X136548728Y-138970777D01*
X136523908Y-138992567D01*
X136491963Y-139022301D01*
X136451529Y-139061207D01*
X136401242Y-139110513D01*
X136339739Y-139171447D01*
X136265655Y-139245238D01*
X136202358Y-139308417D01*
X136129092Y-139381370D01*
X136060213Y-139449560D01*
X135997191Y-139511557D01*
X135941498Y-139565932D01*
X135894607Y-139611257D01*
X135857990Y-139646101D01*
X135833117Y-139669036D01*
X135821460Y-139678631D01*
X135820910Y-139678834D01*
X135810965Y-139671625D01*
X135788167Y-139651282D01*
X135754538Y-139619732D01*
X135712098Y-139578898D01*
X135662871Y-139530708D01*
X135608876Y-139477086D01*
X135604253Y-139472461D01*
X135538133Y-139406632D01*
X135484714Y-139354671D01*
X135441986Y-139315232D01*
X135407937Y-139286964D01*
X135380556Y-139268520D01*
X135357833Y-139258552D01*
X135337757Y-139255711D01*
X135318316Y-139258648D01*
X135297500Y-139266016D01*
X135296799Y-139266305D01*
X135257699Y-139292991D01*
X135232056Y-139331973D01*
X135221833Y-139377773D01*
X135228995Y-139424912D01*
X135234961Y-139438758D01*
X135245362Y-139452249D01*
X135268678Y-139478428D01*
X135302804Y-139515068D01*
X135345638Y-139559939D01*
X135395076Y-139610812D01*
X135446606Y-139663036D01*
X135646541Y-139864198D01*
X135276138Y-140234487D01*
X135188865Y-140321786D01*
X135115469Y-140395529D01*
X135054860Y-140457124D01*
X135005948Y-140507980D01*
X134967642Y-140549506D01*
X134938850Y-140583112D01*
X134918483Y-140610206D01*
X134905449Y-140632196D01*
X134898658Y-140650494D01*
X134897019Y-140666506D01*
X134899441Y-140681642D01*
X134904835Y-140697311D01*
X134909352Y-140708295D01*
X134935156Y-140744954D01*
X134973272Y-140769324D01*
X135017628Y-140779552D01*
X135062158Y-140773786D01*
X135085958Y-140762195D01*
X135098611Y-140751367D01*
X135124620Y-140727119D01*
X135162385Y-140691008D01*
X135210305Y-140644590D01*
X135266781Y-140589422D01*
X135330210Y-140527062D01*
X135398993Y-140459067D01*
X135466726Y-140391778D01*
X135821326Y-140038665D01*
X136175809Y-140393902D01*
X136248077Y-140466046D01*
X136316596Y-140533912D01*
X136379761Y-140595951D01*
X136435970Y-140650613D01*
X136483618Y-140696345D01*
X136521103Y-140731599D01*
X136546822Y-140754823D01*
X136558871Y-140764319D01*
X136606058Y-140778131D01*
X136656089Y-140773843D01*
X136690597Y-140759113D01*
X136723188Y-140727751D01*
X136740658Y-140686006D01*
X136740672Y-140640360D01*
X136737538Y-140628680D01*
X136727609Y-140612614D01*
X136704155Y-140584008D01*
X136666871Y-140542538D01*
X136615451Y-140487878D01*
X136549587Y-140419705D01*
X136468976Y-140337694D01*
X136373310Y-140241520D01*
X136361146Y-140229354D01*
X135996108Y-139864431D01*
X136365530Y-139493820D01*
X136451065Y-139407864D01*
X136522734Y-139335459D01*
X136581742Y-139275294D01*
X136629296Y-139226059D01*
X136666602Y-139186444D01*
X136694865Y-139155137D01*
X136715292Y-139130829D01*
X136729087Y-139112208D01*
X136737458Y-139097963D01*
X136741609Y-139086785D01*
X136742086Y-139084550D01*
X136741428Y-139035913D01*
X136722957Y-138993428D01*
X136689876Y-138960752D01*
X136645393Y-138941542D01*
X136613672Y-138938000D01*
X136604024Y-138938492D01*
G36*
X137141349Y-138942173D02*
G01*
X137104670Y-138950060D01*
X137098905Y-138952632D01*
X137061296Y-138982890D01*
X137039466Y-139023847D01*
X137034889Y-139070599D01*
X137049043Y-139118241D01*
X137049055Y-139118263D01*
X137068844Y-139145272D01*
X137098121Y-139164360D01*
X137140635Y-139177155D01*
X137200135Y-139185284D01*
X137204354Y-139185661D01*
X137317578Y-139203671D01*
X137419589Y-139237773D01*
X137513611Y-139289493D01*
X137602870Y-139360356D01*
X137631160Y-139387531D01*
X137682851Y-139442810D01*
X137721535Y-139493224D01*
X137752093Y-139545225D01*
X137755423Y-139551834D01*
X137772086Y-139585772D01*
X137786061Y-139616148D01*
X137797604Y-139645175D01*
X137806972Y-139675062D01*
X137814422Y-139708022D01*
X137820212Y-139746266D01*
X137824597Y-139792005D01*
X137827837Y-139847451D01*
X137830186Y-139914814D01*
X137831903Y-139996307D01*
X137833244Y-140094140D01*
X137834467Y-140210525D01*
X137834697Y-140233888D01*
X137839367Y-140709567D01*
X137874334Y-140744534D01*
X137915264Y-140772257D01*
X137961030Y-140779870D01*
X138009197Y-140767141D01*
X138024612Y-140758800D01*
X138037711Y-140750160D01*
X138048666Y-140740367D01*
X138057650Y-140727589D01*
X138064835Y-140709991D01*
X138070393Y-140685741D01*
X138074495Y-140653005D01*
X138077314Y-140609950D01*
X138079022Y-140554742D01*
X138079790Y-140485547D01*
X138079792Y-140400533D01*
X138079198Y-140297866D01*
X138078279Y-140186834D01*
X138077234Y-140073712D01*
X138076198Y-139979584D01*
X138075065Y-139902275D01*
X138073730Y-139839613D01*
X138072088Y-139789423D01*
X138070035Y-139749532D01*
X138067464Y-139717767D01*
X138064272Y-139691954D01*
X138060351Y-139669921D01*
X138055599Y-139649492D01*
X138051559Y-139634400D01*
X138004849Y-139502768D01*
X137940813Y-139379963D01*
X137861156Y-139268415D01*
X137767582Y-139170555D01*
X137675126Y-139097722D01*
X137619156Y-139063971D01*
X137551061Y-139029550D01*
X137479170Y-138998225D01*
X137411814Y-138973767D01*
X137382250Y-138965241D01*
X137317694Y-138951718D01*
X137252759Y-138943220D01*
X137192345Y-138939966D01*
X137141349Y-138942173D01*
G37*
X137141349Y-138942173D02*
X137104670Y-138950060D01*
X137098905Y-138952632D01*
X137061296Y-138982890D01*
X137039466Y-139023847D01*
X137034889Y-139070599D01*
X137049043Y-139118241D01*
X137049055Y-139118263D01*
X137068844Y-139145272D01*
X137098121Y-139164360D01*
X137140635Y-139177155D01*
X137200135Y-139185284D01*
X137204354Y-139185661D01*
X137317578Y-139203671D01*
X137419589Y-139237773D01*
X137513611Y-139289493D01*
X137602870Y-139360356D01*
X137631160Y-139387531D01*
X137682851Y-139442810D01*
X137721535Y-139493224D01*
X137752093Y-139545225D01*
X137755423Y-139551834D01*
X137772086Y-139585772D01*
X137786061Y-139616148D01*
X137797604Y-139645175D01*
X137806972Y-139675062D01*
X137814422Y-139708022D01*
X137820212Y-139746266D01*
X137824597Y-139792005D01*
X137827837Y-139847451D01*
X137830186Y-139914814D01*
X137831903Y-139996307D01*
X137833244Y-140094140D01*
X137834467Y-140210525D01*
X137834697Y-140233888D01*
X137839367Y-140709567D01*
X137874334Y-140744534D01*
X137915264Y-140772257D01*
X137961030Y-140779870D01*
X138009197Y-140767141D01*
X138024612Y-140758800D01*
X138037711Y-140750160D01*
X138048666Y-140740367D01*
X138057650Y-140727589D01*
X138064835Y-140709991D01*
X138070393Y-140685741D01*
X138074495Y-140653005D01*
X138077314Y-140609950D01*
X138079022Y-140554742D01*
X138079790Y-140485547D01*
X138079792Y-140400533D01*
X138079198Y-140297866D01*
X138078279Y-140186834D01*
X138077234Y-140073712D01*
X138076198Y-139979584D01*
X138075065Y-139902275D01*
X138073730Y-139839613D01*
X138072088Y-139789423D01*
X138070035Y-139749532D01*
X138067464Y-139717767D01*
X138064272Y-139691954D01*
X138060351Y-139669921D01*
X138055599Y-139649492D01*
X138051559Y-139634400D01*
X138004849Y-139502768D01*
X137940813Y-139379963D01*
X137861156Y-139268415D01*
X137767582Y-139170555D01*
X137675126Y-139097722D01*
X137619156Y-139063971D01*
X137551061Y-139029550D01*
X137479170Y-138998225D01*
X137411814Y-138973767D01*
X137382250Y-138965241D01*
X137317694Y-138951718D01*
X137252759Y-138943220D01*
X137192345Y-138939966D01*
X137141349Y-138942173D01*
G36*
X139473896Y-138939566D02*
G01*
X139346112Y-138939821D01*
X139199112Y-138940243D01*
X139133086Y-138940459D01*
X138290675Y-138943292D01*
X138259796Y-138977855D01*
X138233832Y-139021146D01*
X138227479Y-139068036D01*
X138240738Y-139114158D01*
X138259788Y-139141562D01*
X138290659Y-139176125D01*
X138656663Y-139179167D01*
X139022667Y-139182208D01*
X139022667Y-139928277D01*
X139022670Y-140077530D01*
X139022753Y-140207073D01*
X139023022Y-140318364D01*
X139023587Y-140412860D01*
X139024557Y-140492018D01*
X139026039Y-140557297D01*
X139028143Y-140610152D01*
X139030976Y-140652041D01*
X139034648Y-140684422D01*
X139039267Y-140708752D01*
X139044941Y-140726488D01*
X139051779Y-140739087D01*
X139059889Y-140748006D01*
X139069380Y-140754704D01*
X139080360Y-140760636D01*
X139084808Y-140762922D01*
X139129164Y-140776770D01*
X139175785Y-140776798D01*
X139210613Y-140765475D01*
X139234894Y-140746579D01*
X139252946Y-140726162D01*
X139256486Y-140719982D01*
X139259558Y-140711154D01*
X139262203Y-140698196D01*
X139264462Y-140679626D01*
X139266374Y-140653962D01*
X139267981Y-140619721D01*
X139269322Y-140575421D01*
X139270438Y-140519581D01*
X139271369Y-140450718D01*
X139272156Y-140367350D01*
X139272840Y-140267995D01*
X139273460Y-140151171D01*
X139274056Y-140015396D01*
X139274356Y-139940771D01*
X139277336Y-139181417D01*
X139626777Y-139181417D01*
X139728722Y-139181312D01*
X139811672Y-139180783D01*
X139877797Y-139179510D01*
X139929270Y-139177173D01*
X139968261Y-139173449D01*
X139996941Y-139168019D01*
X140017481Y-139160562D01*
X140032054Y-139150757D01*
X140042829Y-139138285D01*
X140051978Y-139122822D01*
X140054363Y-139118263D01*
X140068330Y-139071296D01*
X140064206Y-139024829D01*
X140043496Y-138984086D01*
X140007711Y-138954290D01*
X140006902Y-138953868D01*
X139999190Y-138950882D01*
X139987480Y-138948297D01*
X139970388Y-138946092D01*
X139946531Y-138944245D01*
X139914525Y-138942735D01*
X139872987Y-138941541D01*
X139820534Y-138940642D01*
X139755782Y-138940016D01*
X139677347Y-138939642D01*
X139583846Y-138939499D01*
X139473896Y-138939566D01*
G37*
X139473896Y-138939566D02*
X139346112Y-138939821D01*
X139199112Y-138940243D01*
X139133086Y-138940459D01*
X138290675Y-138943292D01*
X138259796Y-138977855D01*
X138233832Y-139021146D01*
X138227479Y-139068036D01*
X138240738Y-139114158D01*
X138259788Y-139141562D01*
X138290659Y-139176125D01*
X138656663Y-139179167D01*
X139022667Y-139182208D01*
X139022667Y-139928277D01*
X139022670Y-140077530D01*
X139022753Y-140207073D01*
X139023022Y-140318364D01*
X139023587Y-140412860D01*
X139024557Y-140492018D01*
X139026039Y-140557297D01*
X139028143Y-140610152D01*
X139030976Y-140652041D01*
X139034648Y-140684422D01*
X139039267Y-140708752D01*
X139044941Y-140726488D01*
X139051779Y-140739087D01*
X139059889Y-140748006D01*
X139069380Y-140754704D01*
X139080360Y-140760636D01*
X139084808Y-140762922D01*
X139129164Y-140776770D01*
X139175785Y-140776798D01*
X139210613Y-140765475D01*
X139234894Y-140746579D01*
X139252946Y-140726162D01*
X139256486Y-140719982D01*
X139259558Y-140711154D01*
X139262203Y-140698196D01*
X139264462Y-140679626D01*
X139266374Y-140653962D01*
X139267981Y-140619721D01*
X139269322Y-140575421D01*
X139270438Y-140519581D01*
X139271369Y-140450718D01*
X139272156Y-140367350D01*
X139272840Y-140267995D01*
X139273460Y-140151171D01*
X139274056Y-140015396D01*
X139274356Y-139940771D01*
X139277336Y-139181417D01*
X139626777Y-139181417D01*
X139728722Y-139181312D01*
X139811672Y-139180783D01*
X139877797Y-139179510D01*
X139929270Y-139177173D01*
X139968261Y-139173449D01*
X139996941Y-139168019D01*
X140017481Y-139160562D01*
X140032054Y-139150757D01*
X140042829Y-139138285D01*
X140051978Y-139122822D01*
X140054363Y-139118263D01*
X140068330Y-139071296D01*
X140064206Y-139024829D01*
X140043496Y-138984086D01*
X140007711Y-138954290D01*
X140006902Y-138953868D01*
X139999190Y-138950882D01*
X139987480Y-138948297D01*
X139970388Y-138946092D01*
X139946531Y-138944245D01*
X139914525Y-138942735D01*
X139872987Y-138941541D01*
X139820534Y-138940642D01*
X139755782Y-138940016D01*
X139677347Y-138939642D01*
X139583846Y-138939499D01*
X139473896Y-138939566D01*
G36*
X144661100Y-137827272D02*
G01*
X144619121Y-137855342D01*
X144615167Y-137859324D01*
X144584209Y-137891634D01*
X144573625Y-140340292D01*
X144550740Y-140382625D01*
X144511062Y-140438108D01*
X144458251Y-140486681D01*
X144420167Y-140511086D01*
X144412319Y-140514816D01*
X144402788Y-140518043D01*
X144390082Y-140520806D01*
X144372708Y-140523139D01*
X144349174Y-140525079D01*
X144317987Y-140526661D01*
X144277656Y-140527922D01*
X144226688Y-140528899D01*
X144163590Y-140529626D01*
X144086869Y-140530141D01*
X143995034Y-140530478D01*
X143886592Y-140530675D01*
X143760051Y-140530768D01*
X143613918Y-140530792D01*
X142827375Y-140530792D01*
X142784320Y-140507746D01*
X142723431Y-140464606D01*
X142678173Y-140410870D01*
X142648538Y-140349726D01*
X142634512Y-140284364D01*
X142636086Y-140217970D01*
X142653247Y-140153736D01*
X142685984Y-140094849D01*
X142734287Y-140044499D01*
X142786064Y-140011539D01*
X142796940Y-140006695D01*
X142809644Y-140002632D01*
X142826134Y-139999252D01*
X142848366Y-139996459D01*
X142878298Y-139994154D01*
X142917886Y-139992242D01*
X142969087Y-139990625D01*
X143033857Y-139989205D01*
X143114155Y-139987887D01*
X143211936Y-139986572D01*
X143314209Y-139985338D01*
X143429090Y-139983948D01*
X143524866Y-139982640D01*
X143603599Y-139981308D01*
X143667351Y-139979850D01*
X143718181Y-139978160D01*
X143758152Y-139976135D01*
X143789324Y-139973669D01*
X143813760Y-139970659D01*
X143833520Y-139967001D01*
X143850666Y-139962589D01*
X143867168Y-139957350D01*
X143961278Y-139915125D01*
X144043727Y-139857043D01*
X144112925Y-139785491D01*
X144167282Y-139702854D01*
X144205208Y-139611517D01*
X144225113Y-139513868D01*
X144226011Y-139418923D01*
X144207131Y-139316695D01*
X144169378Y-139221811D01*
X144114415Y-139136481D01*
X144043904Y-139062915D01*
X143959506Y-139003325D01*
X143887719Y-138968986D01*
X143822209Y-138943292D01*
X142255875Y-138940319D01*
X142037437Y-138939888D01*
X141839125Y-138939492D01*
X141659902Y-138939169D01*
X141498728Y-138938961D01*
X141354563Y-138938907D01*
X141226370Y-138939048D01*
X141113108Y-138939422D01*
X141013738Y-138940071D01*
X140927222Y-138941035D01*
X140852519Y-138942353D01*
X140788591Y-138944066D01*
X140734399Y-138946213D01*
X140688903Y-138948836D01*
X140651064Y-138951972D01*
X140619844Y-138955664D01*
X140594202Y-138959951D01*
X140573099Y-138964872D01*
X140555497Y-138970469D01*
X140540357Y-138976781D01*
X140526638Y-138983847D01*
X140513302Y-138991709D01*
X140499310Y-139000406D01*
X140486032Y-139008541D01*
X140400068Y-139070917D01*
X140330914Y-139145499D01*
X140276965Y-139234169D01*
X140258661Y-139275553D01*
X140253096Y-139290011D01*
X140248443Y-139304530D01*
X140244595Y-139321126D01*
X140241443Y-139341816D01*
X140238881Y-139368615D01*
X140236801Y-139403539D01*
X140235094Y-139448604D01*
X140233654Y-139505827D01*
X140232372Y-139577222D01*
X140231141Y-139664806D01*
X140229852Y-139770596D01*
X140229198Y-139827000D01*
X140227814Y-139945987D01*
X140226484Y-140045803D01*
X140224983Y-140128444D01*
X140223086Y-140195904D01*
X140220567Y-140250176D01*
X140217200Y-140293257D01*
X140212759Y-140327139D01*
X140207019Y-140353818D01*
X140199754Y-140375289D01*
X140190738Y-140393545D01*
X140179745Y-140410582D01*
X140166551Y-140428393D01*
X140160196Y-140436718D01*
X140129845Y-140465557D01*
X140086463Y-140493645D01*
X140037591Y-140517191D01*
X139990771Y-140532410D01*
X139962368Y-140536084D01*
X139908303Y-140544948D01*
X139866325Y-140570144D01*
X139838569Y-140609577D01*
X139827170Y-140661152D01*
X139827000Y-140668908D01*
X139831603Y-140699872D01*
X139848265Y-140727581D01*
X139862984Y-140743517D01*
X139885821Y-140764212D01*
X139906645Y-140774964D01*
X139934090Y-140778934D01*
X139960880Y-140779375D01*
X140056414Y-140769827D01*
X140147661Y-140741080D01*
X140236585Y-140692383D01*
X140289124Y-140653693D01*
X140353810Y-140601569D01*
X140393507Y-140642222D01*
X140443146Y-140683222D01*
X140506866Y-140721172D01*
X140577601Y-140752131D01*
X140609442Y-140762616D01*
X140634965Y-140766871D01*
X140678968Y-140770585D01*
X140738815Y-140773756D01*
X140811868Y-140776380D01*
X140895489Y-140778455D01*
X140987044Y-140779976D01*
X141083893Y-140780941D01*
X141183400Y-140781347D01*
X141282928Y-140781191D01*
X141379840Y-140780470D01*
X141471499Y-140779180D01*
X141555268Y-140777319D01*
X141628509Y-140774884D01*
X141688586Y-140771870D01*
X141732862Y-140768277D01*
X141758699Y-140764099D01*
X141759184Y-140763958D01*
X141844573Y-140727764D01*
X141920962Y-140673804D01*
X141985886Y-140604448D01*
X142036881Y-140522063D01*
X142055375Y-140479412D01*
X142076343Y-140404726D01*
X142088485Y-140319240D01*
X142090548Y-140254993D01*
X141900952Y-140254993D01*
X141893336Y-140321637D01*
X141869995Y-140384811D01*
X141831761Y-140441343D01*
X141779466Y-140488060D01*
X141713942Y-140521793D01*
X141700319Y-140526393D01*
X141684605Y-140528022D01*
X141649928Y-140529464D01*
X141598491Y-140530692D01*
X141532496Y-140531680D01*
X141454146Y-140532403D01*
X141365645Y-140532833D01*
X141269196Y-140532944D01*
X141171084Y-140532726D01*
X141054883Y-140532256D01*
X140957924Y-140531762D01*
X140878278Y-140531155D01*
X140814021Y-140530347D01*
X140763226Y-140529252D01*
X140723967Y-140527781D01*
X140694318Y-140525846D01*
X140672353Y-140523361D01*
X140656146Y-140520236D01*
X140643770Y-140516386D01*
X140633300Y-140511721D01*
X140626042Y-140507907D01*
X140564560Y-140463289D01*
X140515176Y-140404349D01*
X140494582Y-140366750D01*
X140486983Y-140347985D01*
X140481387Y-140327839D01*
X140477490Y-140302797D01*
X140474986Y-140269344D01*
X140473573Y-140223966D01*
X140472945Y-140163150D01*
X140472816Y-140115396D01*
X140473026Y-140052346D01*
X140473748Y-139997229D01*
X140474895Y-139953274D01*
X140476380Y-139923710D01*
X140478117Y-139911768D01*
X140478297Y-139911667D01*
X140490352Y-139916071D01*
X140514210Y-139927201D01*
X140527044Y-139933621D01*
X140551106Y-139945120D01*
X140575769Y-139954795D01*
X140603032Y-139962802D01*
X140634892Y-139969299D01*
X140673350Y-139974439D01*
X140720403Y-139978379D01*
X140778050Y-139981276D01*
X140848289Y-139983285D01*
X140933121Y-139984561D01*
X141034542Y-139985262D01*
X141154553Y-139985542D01*
X141193011Y-139985566D01*
X141314643Y-139985653D01*
X141417056Y-139985980D01*
X141502195Y-139986794D01*
X141572007Y-139988347D01*
X141628440Y-139990887D01*
X141673440Y-139994662D01*
X141708954Y-139999923D01*
X141736927Y-140006918D01*
X141759308Y-140015897D01*
X141778043Y-140027109D01*
X141795079Y-140040802D01*
X141812361Y-140057227D01*
X141821123Y-140065961D01*
X141865677Y-140123983D01*
X141892009Y-140188052D01*
X141900952Y-140254993D01*
X142090548Y-140254993D01*
X142091310Y-140231275D01*
X142084330Y-140149152D01*
X142076944Y-140112618D01*
X142042066Y-140010908D01*
X141993168Y-139924073D01*
X141931055Y-139852879D01*
X141856533Y-139798092D01*
X141770409Y-139760479D01*
X141687733Y-139742459D01*
X141660706Y-139740321D01*
X141615145Y-139738322D01*
X141553686Y-139736514D01*
X141478961Y-139734946D01*
X141393605Y-139733670D01*
X141300252Y-139732735D01*
X141201535Y-139732192D01*
X141144058Y-139732077D01*
X140677823Y-139731750D01*
X140622812Y-139704337D01*
X140562573Y-139663567D01*
X140517393Y-139610950D01*
X140487681Y-139549915D01*
X140473848Y-139483895D01*
X140476304Y-139416321D01*
X140495458Y-139350623D01*
X140531720Y-139290232D01*
X140568755Y-139251875D01*
X140579484Y-139242338D01*
X140589000Y-139233693D01*
X140598342Y-139225898D01*
X140608544Y-139218912D01*
X140620644Y-139212692D01*
X140635678Y-139207196D01*
X140654681Y-139202384D01*
X140678691Y-139198212D01*
X140708743Y-139194639D01*
X140745873Y-139191623D01*
X140791118Y-139189122D01*
X140845515Y-139187094D01*
X140910098Y-139185498D01*
X140985906Y-139184292D01*
X141073972Y-139183433D01*
X141175335Y-139182880D01*
X141291031Y-139182591D01*
X141422094Y-139182524D01*
X141569563Y-139182637D01*
X141734472Y-139182889D01*
X141917859Y-139183237D01*
X142120760Y-139183639D01*
X142251249Y-139183887D01*
X143779875Y-139186709D01*
X143837268Y-139218459D01*
X143898139Y-139263097D01*
X143942833Y-139318740D01*
X143970812Y-139382127D01*
X143981536Y-139449999D01*
X143974470Y-139519097D01*
X143949073Y-139586162D01*
X143907655Y-139644827D01*
X143891194Y-139663061D01*
X143876288Y-139678349D01*
X143860989Y-139690976D01*
X143843345Y-139701223D01*
X143821408Y-139709374D01*
X143793229Y-139715712D01*
X143756856Y-139720519D01*
X143710342Y-139724079D01*
X143651736Y-139726674D01*
X143579088Y-139728587D01*
X143490450Y-139730102D01*
X143383871Y-139731501D01*
X143303625Y-139732488D01*
X143188794Y-139733953D01*
X143093055Y-139735321D01*
X143014339Y-139736700D01*
X142950572Y-139738197D01*
X142899683Y-139739918D01*
X142859600Y-139741971D01*
X142828250Y-139744464D01*
X142803563Y-139747502D01*
X142783465Y-139751194D01*
X142765885Y-139755646D01*
X142748751Y-139760965D01*
X142748000Y-139761212D01*
X142651800Y-139803618D01*
X142567234Y-139862626D01*
X142496236Y-139936254D01*
X142440743Y-140022523D01*
X142404629Y-140112750D01*
X142391288Y-140181356D01*
X142387173Y-140259733D01*
X142392132Y-140338786D01*
X142406016Y-140409422D01*
X142409728Y-140421372D01*
X142451977Y-140515450D01*
X142511193Y-140598930D01*
X142584939Y-140669517D01*
X142670779Y-140724916D01*
X142766279Y-140762831D01*
X142774459Y-140765093D01*
X142788923Y-140767886D01*
X142810870Y-140770304D01*
X142841629Y-140772370D01*
X142882532Y-140774106D01*
X142934909Y-140775532D01*
X143000092Y-140776671D01*
X143079410Y-140777545D01*
X143174195Y-140778176D01*
X143285778Y-140778585D01*
X143415489Y-140778794D01*
X143564659Y-140778826D01*
X143610542Y-140778805D01*
X143759048Y-140778692D01*
X143887911Y-140778506D01*
X143998653Y-140778215D01*
X144092797Y-140777784D01*
X144171866Y-140777176D01*
X144237383Y-140776358D01*
X144290872Y-140775294D01*
X144333855Y-140773950D01*
X144367854Y-140772291D01*
X144394394Y-140770281D01*
X144414997Y-140767887D01*
X144431186Y-140765073D01*
X144444484Y-140761804D01*
X144451917Y-140759543D01*
X144551829Y-140716795D01*
X144638472Y-140657717D01*
X144711103Y-140582958D01*
X144768978Y-140493163D01*
X144777462Y-140476102D01*
X144817042Y-140393209D01*
X144819900Y-139145487D01*
X144820368Y-138953736D01*
X144820807Y-138782024D01*
X144821161Y-138629224D01*
X144821373Y-138494208D01*
X144821389Y-138375849D01*
X144821150Y-138273019D01*
X144820601Y-138184592D01*
X144819686Y-138109439D01*
X144818347Y-138046433D01*
X144816530Y-137994448D01*
X144814177Y-137952354D01*
X144811232Y-137919026D01*
X144807640Y-137893335D01*
X144803342Y-137874154D01*
X144798285Y-137860355D01*
X144792410Y-137850812D01*
X144785661Y-137844396D01*
X144777983Y-137839981D01*
X144769319Y-137836439D01*
X144759613Y-137832642D01*
X144754202Y-137830225D01*
X144707331Y-137818648D01*
X144661100Y-137827272D01*
G37*
X144661100Y-137827272D02*
X144619121Y-137855342D01*
X144615167Y-137859324D01*
X144584209Y-137891634D01*
X144573625Y-140340292D01*
X144550740Y-140382625D01*
X144511062Y-140438108D01*
X144458251Y-140486681D01*
X144420167Y-140511086D01*
X144412319Y-140514816D01*
X144402788Y-140518043D01*
X144390082Y-140520806D01*
X144372708Y-140523139D01*
X144349174Y-140525079D01*
X144317987Y-140526661D01*
X144277656Y-140527922D01*
X144226688Y-140528899D01*
X144163590Y-140529626D01*
X144086869Y-140530141D01*
X143995034Y-140530478D01*
X143886592Y-140530675D01*
X143760051Y-140530768D01*
X143613918Y-140530792D01*
X142827375Y-140530792D01*
X142784320Y-140507746D01*
X142723431Y-140464606D01*
X142678173Y-140410870D01*
X142648538Y-140349726D01*
X142634512Y-140284364D01*
X142636086Y-140217970D01*
X142653247Y-140153736D01*
X142685984Y-140094849D01*
X142734287Y-140044499D01*
X142786064Y-140011539D01*
X142796940Y-140006695D01*
X142809644Y-140002632D01*
X142826134Y-139999252D01*
X142848366Y-139996459D01*
X142878298Y-139994154D01*
X142917886Y-139992242D01*
X142969087Y-139990625D01*
X143033857Y-139989205D01*
X143114155Y-139987887D01*
X143211936Y-139986572D01*
X143314209Y-139985338D01*
X143429090Y-139983948D01*
X143524866Y-139982640D01*
X143603599Y-139981308D01*
X143667351Y-139979850D01*
X143718181Y-139978160D01*
X143758152Y-139976135D01*
X143789324Y-139973669D01*
X143813760Y-139970659D01*
X143833520Y-139967001D01*
X143850666Y-139962589D01*
X143867168Y-139957350D01*
X143961278Y-139915125D01*
X144043727Y-139857043D01*
X144112925Y-139785491D01*
X144167282Y-139702854D01*
X144205208Y-139611517D01*
X144225113Y-139513868D01*
X144226011Y-139418923D01*
X144207131Y-139316695D01*
X144169378Y-139221811D01*
X144114415Y-139136481D01*
X144043904Y-139062915D01*
X143959506Y-139003325D01*
X143887719Y-138968986D01*
X143822209Y-138943292D01*
X142255875Y-138940319D01*
X142037437Y-138939888D01*
X141839125Y-138939492D01*
X141659902Y-138939169D01*
X141498728Y-138938961D01*
X141354563Y-138938907D01*
X141226370Y-138939048D01*
X141113108Y-138939422D01*
X141013738Y-138940071D01*
X140927222Y-138941035D01*
X140852519Y-138942353D01*
X140788591Y-138944066D01*
X140734399Y-138946213D01*
X140688903Y-138948836D01*
X140651064Y-138951972D01*
X140619844Y-138955664D01*
X140594202Y-138959951D01*
X140573099Y-138964872D01*
X140555497Y-138970469D01*
X140540357Y-138976781D01*
X140526638Y-138983847D01*
X140513302Y-138991709D01*
X140499310Y-139000406D01*
X140486032Y-139008541D01*
X140400068Y-139070917D01*
X140330914Y-139145499D01*
X140276965Y-139234169D01*
X140258661Y-139275553D01*
X140253096Y-139290011D01*
X140248443Y-139304530D01*
X140244595Y-139321126D01*
X140241443Y-139341816D01*
X140238881Y-139368615D01*
X140236801Y-139403539D01*
X140235094Y-139448604D01*
X140233654Y-139505827D01*
X140232372Y-139577222D01*
X140231141Y-139664806D01*
X140229852Y-139770596D01*
X140229198Y-139827000D01*
X140227814Y-139945987D01*
X140226484Y-140045803D01*
X140224983Y-140128444D01*
X140223086Y-140195904D01*
X140220567Y-140250176D01*
X140217200Y-140293257D01*
X140212759Y-140327139D01*
X140207019Y-140353818D01*
X140199754Y-140375289D01*
X140190738Y-140393545D01*
X140179745Y-140410582D01*
X140166551Y-140428393D01*
X140160196Y-140436718D01*
X140129845Y-140465557D01*
X140086463Y-140493645D01*
X140037591Y-140517191D01*
X139990771Y-140532410D01*
X139962368Y-140536084D01*
X139908303Y-140544948D01*
X139866325Y-140570144D01*
X139838569Y-140609577D01*
X139827170Y-140661152D01*
X139827000Y-140668908D01*
X139831603Y-140699872D01*
X139848265Y-140727581D01*
X139862984Y-140743517D01*
X139885821Y-140764212D01*
X139906645Y-140774964D01*
X139934090Y-140778934D01*
X139960880Y-140779375D01*
X140056414Y-140769827D01*
X140147661Y-140741080D01*
X140236585Y-140692383D01*
X140289124Y-140653693D01*
X140353810Y-140601569D01*
X140393507Y-140642222D01*
X140443146Y-140683222D01*
X140506866Y-140721172D01*
X140577601Y-140752131D01*
X140609442Y-140762616D01*
X140634965Y-140766871D01*
X140678968Y-140770585D01*
X140738815Y-140773756D01*
X140811868Y-140776380D01*
X140895489Y-140778455D01*
X140987044Y-140779976D01*
X141083893Y-140780941D01*
X141183400Y-140781347D01*
X141282928Y-140781191D01*
X141379840Y-140780470D01*
X141471499Y-140779180D01*
X141555268Y-140777319D01*
X141628509Y-140774884D01*
X141688586Y-140771870D01*
X141732862Y-140768277D01*
X141758699Y-140764099D01*
X141759184Y-140763958D01*
X141844573Y-140727764D01*
X141920962Y-140673804D01*
X141985886Y-140604448D01*
X142036881Y-140522063D01*
X142055375Y-140479412D01*
X142076343Y-140404726D01*
X142088485Y-140319240D01*
X142090548Y-140254993D01*
X141900952Y-140254993D01*
X141893336Y-140321637D01*
X141869995Y-140384811D01*
X141831761Y-140441343D01*
X141779466Y-140488060D01*
X141713942Y-140521793D01*
X141700319Y-140526393D01*
X141684605Y-140528022D01*
X141649928Y-140529464D01*
X141598491Y-140530692D01*
X141532496Y-140531680D01*
X141454146Y-140532403D01*
X141365645Y-140532833D01*
X141269196Y-140532944D01*
X141171084Y-140532726D01*
X141054883Y-140532256D01*
X140957924Y-140531762D01*
X140878278Y-140531155D01*
X140814021Y-140530347D01*
X140763226Y-140529252D01*
X140723967Y-140527781D01*
X140694318Y-140525846D01*
X140672353Y-140523361D01*
X140656146Y-140520236D01*
X140643770Y-140516386D01*
X140633300Y-140511721D01*
X140626042Y-140507907D01*
X140564560Y-140463289D01*
X140515176Y-140404349D01*
X140494582Y-140366750D01*
X140486983Y-140347985D01*
X140481387Y-140327839D01*
X140477490Y-140302797D01*
X140474986Y-140269344D01*
X140473573Y-140223966D01*
X140472945Y-140163150D01*
X140472816Y-140115396D01*
X140473026Y-140052346D01*
X140473748Y-139997229D01*
X140474895Y-139953274D01*
X140476380Y-139923710D01*
X140478117Y-139911768D01*
X140478297Y-139911667D01*
X140490352Y-139916071D01*
X140514210Y-139927201D01*
X140527044Y-139933621D01*
X140551106Y-139945120D01*
X140575769Y-139954795D01*
X140603032Y-139962802D01*
X140634892Y-139969299D01*
X140673350Y-139974439D01*
X140720403Y-139978379D01*
X140778050Y-139981276D01*
X140848289Y-139983285D01*
X140933121Y-139984561D01*
X141034542Y-139985262D01*
X141154553Y-139985542D01*
X141193011Y-139985566D01*
X141314643Y-139985653D01*
X141417056Y-139985980D01*
X141502195Y-139986794D01*
X141572007Y-139988347D01*
X141628440Y-139990887D01*
X141673440Y-139994662D01*
X141708954Y-139999923D01*
X141736927Y-140006918D01*
X141759308Y-140015897D01*
X141778043Y-140027109D01*
X141795079Y-140040802D01*
X141812361Y-140057227D01*
X141821123Y-140065961D01*
X141865677Y-140123983D01*
X141892009Y-140188052D01*
X141900952Y-140254993D01*
X142090548Y-140254993D01*
X142091310Y-140231275D01*
X142084330Y-140149152D01*
X142076944Y-140112618D01*
X142042066Y-140010908D01*
X141993168Y-139924073D01*
X141931055Y-139852879D01*
X141856533Y-139798092D01*
X141770409Y-139760479D01*
X141687733Y-139742459D01*
X141660706Y-139740321D01*
X141615145Y-139738322D01*
X141553686Y-139736514D01*
X141478961Y-139734946D01*
X141393605Y-139733670D01*
X141300252Y-139732735D01*
X141201535Y-139732192D01*
X141144058Y-139732077D01*
X140677823Y-139731750D01*
X140622812Y-139704337D01*
X140562573Y-139663567D01*
X140517393Y-139610950D01*
X140487681Y-139549915D01*
X140473848Y-139483895D01*
X140476304Y-139416321D01*
X140495458Y-139350623D01*
X140531720Y-139290232D01*
X140568755Y-139251875D01*
X140579484Y-139242338D01*
X140589000Y-139233693D01*
X140598342Y-139225898D01*
X140608544Y-139218912D01*
X140620644Y-139212692D01*
X140635678Y-139207196D01*
X140654681Y-139202384D01*
X140678691Y-139198212D01*
X140708743Y-139194639D01*
X140745873Y-139191623D01*
X140791118Y-139189122D01*
X140845515Y-139187094D01*
X140910098Y-139185498D01*
X140985906Y-139184292D01*
X141073972Y-139183433D01*
X141175335Y-139182880D01*
X141291031Y-139182591D01*
X141422094Y-139182524D01*
X141569563Y-139182637D01*
X141734472Y-139182889D01*
X141917859Y-139183237D01*
X142120760Y-139183639D01*
X142251249Y-139183887D01*
X143779875Y-139186709D01*
X143837268Y-139218459D01*
X143898139Y-139263097D01*
X143942833Y-139318740D01*
X143970812Y-139382127D01*
X143981536Y-139449999D01*
X143974470Y-139519097D01*
X143949073Y-139586162D01*
X143907655Y-139644827D01*
X143891194Y-139663061D01*
X143876288Y-139678349D01*
X143860989Y-139690976D01*
X143843345Y-139701223D01*
X143821408Y-139709374D01*
X143793229Y-139715712D01*
X143756856Y-139720519D01*
X143710342Y-139724079D01*
X143651736Y-139726674D01*
X143579088Y-139728587D01*
X143490450Y-139730102D01*
X143383871Y-139731501D01*
X143303625Y-139732488D01*
X143188794Y-139733953D01*
X143093055Y-139735321D01*
X143014339Y-139736700D01*
X142950572Y-139738197D01*
X142899683Y-139739918D01*
X142859600Y-139741971D01*
X142828250Y-139744464D01*
X142803563Y-139747502D01*
X142783465Y-139751194D01*
X142765885Y-139755646D01*
X142748751Y-139760965D01*
X142748000Y-139761212D01*
X142651800Y-139803618D01*
X142567234Y-139862626D01*
X142496236Y-139936254D01*
X142440743Y-140022523D01*
X142404629Y-140112750D01*
X142391288Y-140181356D01*
X142387173Y-140259733D01*
X142392132Y-140338786D01*
X142406016Y-140409422D01*
X142409728Y-140421372D01*
X142451977Y-140515450D01*
X142511193Y-140598930D01*
X142584939Y-140669517D01*
X142670779Y-140724916D01*
X142766279Y-140762831D01*
X142774459Y-140765093D01*
X142788923Y-140767886D01*
X142810870Y-140770304D01*
X142841629Y-140772370D01*
X142882532Y-140774106D01*
X142934909Y-140775532D01*
X143000092Y-140776671D01*
X143079410Y-140777545D01*
X143174195Y-140778176D01*
X143285778Y-140778585D01*
X143415489Y-140778794D01*
X143564659Y-140778826D01*
X143610542Y-140778805D01*
X143759048Y-140778692D01*
X143887911Y-140778506D01*
X143998653Y-140778215D01*
X144092797Y-140777784D01*
X144171866Y-140777176D01*
X144237383Y-140776358D01*
X144290872Y-140775294D01*
X144333855Y-140773950D01*
X144367854Y-140772291D01*
X144394394Y-140770281D01*
X144414997Y-140767887D01*
X144431186Y-140765073D01*
X144444484Y-140761804D01*
X144451917Y-140759543D01*
X144551829Y-140716795D01*
X144638472Y-140657717D01*
X144711103Y-140582958D01*
X144768978Y-140493163D01*
X144777462Y-140476102D01*
X144817042Y-140393209D01*
X144819900Y-139145487D01*
X144820368Y-138953736D01*
X144820807Y-138782024D01*
X144821161Y-138629224D01*
X144821373Y-138494208D01*
X144821389Y-138375849D01*
X144821150Y-138273019D01*
X144820601Y-138184592D01*
X144819686Y-138109439D01*
X144818347Y-138046433D01*
X144816530Y-137994448D01*
X144814177Y-137952354D01*
X144811232Y-137919026D01*
X144807640Y-137893335D01*
X144803342Y-137874154D01*
X144798285Y-137860355D01*
X144792410Y-137850812D01*
X144785661Y-137844396D01*
X144777983Y-137839981D01*
X144769319Y-137836439D01*
X144759613Y-137832642D01*
X144754202Y-137830225D01*
X144707331Y-137818648D01*
X144661100Y-137827272D01*
G36*
X145282309Y-138941776D02*
G01*
X145241913Y-138961113D01*
X145209925Y-138995429D01*
X145190053Y-139042719D01*
X145187347Y-139056768D01*
X145185886Y-139077754D01*
X145184758Y-139117382D01*
X145183976Y-139173127D01*
X145183552Y-139242468D01*
X145183497Y-139322881D01*
X145183824Y-139411843D01*
X145184545Y-139506832D01*
X145184972Y-139548255D01*
X145186278Y-139658709D01*
X145187583Y-139750252D01*
X145188999Y-139825139D01*
X145190640Y-139885624D01*
X145192617Y-139933962D01*
X145195042Y-139972409D01*
X145198028Y-140003219D01*
X145201686Y-140028648D01*
X145206129Y-140050950D01*
X145210946Y-140070417D01*
X145249475Y-140191559D01*
X145297811Y-140297766D01*
X145358709Y-140394059D01*
X145434921Y-140485459D01*
X145443556Y-140494591D01*
X145547469Y-140588851D01*
X145661559Y-140665236D01*
X145784357Y-140722933D01*
X145914395Y-140761129D01*
X145931170Y-140764508D01*
X145983940Y-140771683D01*
X146048862Y-140776182D01*
X146118980Y-140777936D01*
X146187336Y-140776876D01*
X146246971Y-140772934D01*
X146282107Y-140767982D01*
X146409311Y-140732940D01*
X146530555Y-140679861D01*
X146643434Y-140610671D01*
X146745544Y-140527298D01*
X146834480Y-140431671D01*
X146907840Y-140325716D01*
X146957053Y-140226797D01*
X146972964Y-140187949D01*
X146986292Y-140153745D01*
X146997283Y-140121895D01*
X147006180Y-140090109D01*
X147013230Y-140056095D01*
X147018677Y-140017565D01*
X147022767Y-139972227D01*
X147025745Y-139917790D01*
X147027856Y-139851965D01*
X147029346Y-139772461D01*
X147030458Y-139676987D01*
X147031440Y-139563254D01*
X147031712Y-139529279D01*
X147032635Y-139408379D01*
X147033166Y-139306826D01*
X147033112Y-139222805D01*
X147032278Y-139154496D01*
X147030467Y-139100084D01*
X147027486Y-139057749D01*
X147023137Y-139025676D01*
X147017228Y-139002045D01*
X147009561Y-138985040D01*
X146999943Y-138972843D01*
X146988177Y-138963637D01*
X146974068Y-138955604D01*
X146969862Y-138953416D01*
X146924216Y-138940547D01*
X146876557Y-138944807D01*
X146834378Y-138965115D01*
X146823615Y-138974474D01*
X146796125Y-139001945D01*
X146789835Y-139485910D01*
X146788226Y-139602951D01*
X146786647Y-139700840D01*
X146785006Y-139781589D01*
X146783213Y-139847213D01*
X146781177Y-139899724D01*
X146778807Y-139941137D01*
X146776012Y-139973466D01*
X146772702Y-139998722D01*
X146768786Y-140018921D01*
X146765152Y-140032799D01*
X146721883Y-140144833D01*
X146661413Y-140246693D01*
X146585614Y-140336418D01*
X146496359Y-140412051D01*
X146395519Y-140471631D01*
X146314584Y-140504220D01*
X146228425Y-140524584D01*
X146133351Y-140533688D01*
X146038646Y-140531083D01*
X145971981Y-140520851D01*
X145861593Y-140486057D01*
X145759316Y-140433677D01*
X145667313Y-140365807D01*
X145587748Y-140284545D01*
X145522785Y-140191987D01*
X145474587Y-140090232D01*
X145452645Y-140017500D01*
X145448533Y-139996434D01*
X145445145Y-139970131D01*
X145442417Y-139936543D01*
X145440284Y-139893626D01*
X145438683Y-139839331D01*
X145437550Y-139771615D01*
X145436821Y-139688429D01*
X145436432Y-139587728D01*
X145436324Y-139495225D01*
X145436233Y-139379166D01*
X145435900Y-139282368D01*
X145435102Y-139202923D01*
X145433618Y-139138925D01*
X145431225Y-139088466D01*
X145427701Y-139049640D01*
X145422824Y-139020541D01*
X145416372Y-138999261D01*
X145408123Y-138983894D01*
X145397854Y-138972533D01*
X145385344Y-138963272D01*
X145373509Y-138956056D01*
X145327410Y-138939422D01*
X145282309Y-138941776D01*
G37*
X145282309Y-138941776D02*
X145241913Y-138961113D01*
X145209925Y-138995429D01*
X145190053Y-139042719D01*
X145187347Y-139056768D01*
X145185886Y-139077754D01*
X145184758Y-139117382D01*
X145183976Y-139173127D01*
X145183552Y-139242468D01*
X145183497Y-139322881D01*
X145183824Y-139411843D01*
X145184545Y-139506832D01*
X145184972Y-139548255D01*
X145186278Y-139658709D01*
X145187583Y-139750252D01*
X145188999Y-139825139D01*
X145190640Y-139885624D01*
X145192617Y-139933962D01*
X145195042Y-139972409D01*
X145198028Y-140003219D01*
X145201686Y-140028648D01*
X145206129Y-140050950D01*
X145210946Y-140070417D01*
X145249475Y-140191559D01*
X145297811Y-140297766D01*
X145358709Y-140394059D01*
X145434921Y-140485459D01*
X145443556Y-140494591D01*
X145547469Y-140588851D01*
X145661559Y-140665236D01*
X145784357Y-140722933D01*
X145914395Y-140761129D01*
X145931170Y-140764508D01*
X145983940Y-140771683D01*
X146048862Y-140776182D01*
X146118980Y-140777936D01*
X146187336Y-140776876D01*
X146246971Y-140772934D01*
X146282107Y-140767982D01*
X146409311Y-140732940D01*
X146530555Y-140679861D01*
X146643434Y-140610671D01*
X146745544Y-140527298D01*
X146834480Y-140431671D01*
X146907840Y-140325716D01*
X146957053Y-140226797D01*
X146972964Y-140187949D01*
X146986292Y-140153745D01*
X146997283Y-140121895D01*
X147006180Y-140090109D01*
X147013230Y-140056095D01*
X147018677Y-140017565D01*
X147022767Y-139972227D01*
X147025745Y-139917790D01*
X147027856Y-139851965D01*
X147029346Y-139772461D01*
X147030458Y-139676987D01*
X147031440Y-139563254D01*
X147031712Y-139529279D01*
X147032635Y-139408379D01*
X147033166Y-139306826D01*
X147033112Y-139222805D01*
X147032278Y-139154496D01*
X147030467Y-139100084D01*
X147027486Y-139057749D01*
X147023137Y-139025676D01*
X147017228Y-139002045D01*
X147009561Y-138985040D01*
X146999943Y-138972843D01*
X146988177Y-138963637D01*
X146974068Y-138955604D01*
X146969862Y-138953416D01*
X146924216Y-138940547D01*
X146876557Y-138944807D01*
X146834378Y-138965115D01*
X146823615Y-138974474D01*
X146796125Y-139001945D01*
X146789835Y-139485910D01*
X146788226Y-139602951D01*
X146786647Y-139700840D01*
X146785006Y-139781589D01*
X146783213Y-139847213D01*
X146781177Y-139899724D01*
X146778807Y-139941137D01*
X146776012Y-139973466D01*
X146772702Y-139998722D01*
X146768786Y-140018921D01*
X146765152Y-140032799D01*
X146721883Y-140144833D01*
X146661413Y-140246693D01*
X146585614Y-140336418D01*
X146496359Y-140412051D01*
X146395519Y-140471631D01*
X146314584Y-140504220D01*
X146228425Y-140524584D01*
X146133351Y-140533688D01*
X146038646Y-140531083D01*
X145971981Y-140520851D01*
X145861593Y-140486057D01*
X145759316Y-140433677D01*
X145667313Y-140365807D01*
X145587748Y-140284545D01*
X145522785Y-140191987D01*
X145474587Y-140090232D01*
X145452645Y-140017500D01*
X145448533Y-139996434D01*
X145445145Y-139970131D01*
X145442417Y-139936543D01*
X145440284Y-139893626D01*
X145438683Y-139839331D01*
X145437550Y-139771615D01*
X145436821Y-139688429D01*
X145436432Y-139587728D01*
X145436324Y-139495225D01*
X145436233Y-139379166D01*
X145435900Y-139282368D01*
X145435102Y-139202923D01*
X145433618Y-139138925D01*
X145431225Y-139088466D01*
X145427701Y-139049640D01*
X145422824Y-139020541D01*
X145416372Y-138999261D01*
X145408123Y-138983894D01*
X145397854Y-138972533D01*
X145385344Y-138963272D01*
X145373509Y-138956056D01*
X145327410Y-138939422D01*
X145282309Y-138941776D01*
G36*
X148157704Y-138945629D02*
G01*
X148083687Y-138952285D01*
X148017420Y-138965036D01*
X147952329Y-138985241D01*
X147881842Y-139014256D01*
X147863208Y-139022767D01*
X147738465Y-139091670D01*
X147628473Y-139175601D01*
X147533814Y-139273861D01*
X147455071Y-139385752D01*
X147392827Y-139510576D01*
X147350377Y-139637207D01*
X147334583Y-139720101D01*
X147326761Y-139814509D01*
X147326910Y-139912592D01*
X147335026Y-140006512D01*
X147350527Y-140086292D01*
X147396141Y-140217470D01*
X147459083Y-140338668D01*
X147537748Y-140448372D01*
X147630533Y-140545068D01*
X147735832Y-140627242D01*
X147852042Y-140693377D01*
X147977557Y-140741961D01*
X148069003Y-140764508D01*
X148098135Y-140768886D01*
X148136409Y-140772411D01*
X148185836Y-140775146D01*
X148248429Y-140777158D01*
X148326200Y-140778511D01*
X148421161Y-140779270D01*
X148532083Y-140779500D01*
X148916804Y-140779500D01*
X148920090Y-141136688D01*
X148921073Y-141237637D01*
X148922203Y-141319629D01*
X148923815Y-141384874D01*
X148926244Y-141435580D01*
X148929826Y-141473955D01*
X148934897Y-141502210D01*
X148941793Y-141522553D01*
X148950849Y-141537193D01*
X148962401Y-141548339D01*
X148976784Y-141558200D01*
X148984905Y-141563194D01*
X149032132Y-141581206D01*
X149079592Y-141578311D01*
X149092709Y-141573737D01*
X149114294Y-141560071D01*
X149138377Y-141538578D01*
X149140334Y-141536509D01*
X149166792Y-141508036D01*
X149166792Y-140617247D01*
X149166765Y-140457965D01*
X149166663Y-140318413D01*
X149166461Y-140197155D01*
X149166304Y-140147411D01*
X148918084Y-140147411D01*
X148918084Y-140537458D01*
X148119042Y-140530622D01*
X148039667Y-140502460D01*
X147965843Y-140473457D01*
X147904960Y-140442073D01*
X147849846Y-140403743D01*
X147793328Y-140353902D01*
X147769406Y-140330406D01*
X147693115Y-140243001D01*
X147636775Y-140152765D01*
X147599260Y-140056804D01*
X147579447Y-139952220D01*
X147576212Y-139836116D01*
X147576347Y-139832731D01*
X147590018Y-139713466D01*
X147621184Y-139605464D01*
X147670667Y-139506945D01*
X147739291Y-139416127D01*
X147795072Y-139359904D01*
X147877166Y-139297137D01*
X147971865Y-139245790D01*
X148073595Y-139208064D01*
X148176778Y-139186159D01*
X148247419Y-139181417D01*
X148320863Y-139187616D01*
X148403074Y-139204885D01*
X148486162Y-139231229D01*
X148547667Y-139257352D01*
X148631482Y-139307522D01*
X148710695Y-139373042D01*
X148780237Y-139448914D01*
X148835041Y-139530143D01*
X148846402Y-139551834D01*
X148863914Y-139588189D01*
X148878317Y-139620862D01*
X148889913Y-139652373D01*
X148899007Y-139685245D01*
X148905901Y-139722000D01*
X148910900Y-139765159D01*
X148914307Y-139817245D01*
X148916425Y-139880780D01*
X148917558Y-139958285D01*
X148918009Y-140052283D01*
X148918084Y-140147411D01*
X149166304Y-140147411D01*
X149166130Y-140092754D01*
X149165642Y-140003773D01*
X149164969Y-139928776D01*
X149164085Y-139866327D01*
X149162961Y-139814989D01*
X149161569Y-139773325D01*
X149159883Y-139739898D01*
X149157874Y-139713274D01*
X149155514Y-139692014D01*
X149152776Y-139674682D01*
X149149632Y-139659842D01*
X149148230Y-139654186D01*
X149102689Y-139516730D01*
X149040059Y-139391057D01*
X148961127Y-139278123D01*
X148866676Y-139178885D01*
X148757495Y-139094302D01*
X148634367Y-139025331D01*
X148630678Y-139023611D01*
X148557450Y-138991996D01*
X148491548Y-138969585D01*
X148426361Y-138955003D01*
X148355282Y-138946879D01*
X148271701Y-138943839D01*
X148246042Y-138943712D01*
X148157704Y-138945629D01*
G37*
X148157704Y-138945629D02*
X148083687Y-138952285D01*
X148017420Y-138965036D01*
X147952329Y-138985241D01*
X147881842Y-139014256D01*
X147863208Y-139022767D01*
X147738465Y-139091670D01*
X147628473Y-139175601D01*
X147533814Y-139273861D01*
X147455071Y-139385752D01*
X147392827Y-139510576D01*
X147350377Y-139637207D01*
X147334583Y-139720101D01*
X147326761Y-139814509D01*
X147326910Y-139912592D01*
X147335026Y-140006512D01*
X147350527Y-140086292D01*
X147396141Y-140217470D01*
X147459083Y-140338668D01*
X147537748Y-140448372D01*
X147630533Y-140545068D01*
X147735832Y-140627242D01*
X147852042Y-140693377D01*
X147977557Y-140741961D01*
X148069003Y-140764508D01*
X148098135Y-140768886D01*
X148136409Y-140772411D01*
X148185836Y-140775146D01*
X148248429Y-140777158D01*
X148326200Y-140778511D01*
X148421161Y-140779270D01*
X148532083Y-140779500D01*
X148916804Y-140779500D01*
X148920090Y-141136688D01*
X148921073Y-141237637D01*
X148922203Y-141319629D01*
X148923815Y-141384874D01*
X148926244Y-141435580D01*
X148929826Y-141473955D01*
X148934897Y-141502210D01*
X148941793Y-141522553D01*
X148950849Y-141537193D01*
X148962401Y-141548339D01*
X148976784Y-141558200D01*
X148984905Y-141563194D01*
X149032132Y-141581206D01*
X149079592Y-141578311D01*
X149092709Y-141573737D01*
X149114294Y-141560071D01*
X149138377Y-141538578D01*
X149140334Y-141536509D01*
X149166792Y-141508036D01*
X149166792Y-140617247D01*
X149166765Y-140457965D01*
X149166663Y-140318413D01*
X149166461Y-140197155D01*
X149166304Y-140147411D01*
X148918084Y-140147411D01*
X148918084Y-140537458D01*
X148119042Y-140530622D01*
X148039667Y-140502460D01*
X147965843Y-140473457D01*
X147904960Y-140442073D01*
X147849846Y-140403743D01*
X147793328Y-140353902D01*
X147769406Y-140330406D01*
X147693115Y-140243001D01*
X147636775Y-140152765D01*
X147599260Y-140056804D01*
X147579447Y-139952220D01*
X147576212Y-139836116D01*
X147576347Y-139832731D01*
X147590018Y-139713466D01*
X147621184Y-139605464D01*
X147670667Y-139506945D01*
X147739291Y-139416127D01*
X147795072Y-139359904D01*
X147877166Y-139297137D01*
X147971865Y-139245790D01*
X148073595Y-139208064D01*
X148176778Y-139186159D01*
X148247419Y-139181417D01*
X148320863Y-139187616D01*
X148403074Y-139204885D01*
X148486162Y-139231229D01*
X148547667Y-139257352D01*
X148631482Y-139307522D01*
X148710695Y-139373042D01*
X148780237Y-139448914D01*
X148835041Y-139530143D01*
X148846402Y-139551834D01*
X148863914Y-139588189D01*
X148878317Y-139620862D01*
X148889913Y-139652373D01*
X148899007Y-139685245D01*
X148905901Y-139722000D01*
X148910900Y-139765159D01*
X148914307Y-139817245D01*
X148916425Y-139880780D01*
X148917558Y-139958285D01*
X148918009Y-140052283D01*
X148918084Y-140147411D01*
X149166304Y-140147411D01*
X149166130Y-140092754D01*
X149165642Y-140003773D01*
X149164969Y-139928776D01*
X149164085Y-139866327D01*
X149162961Y-139814989D01*
X149161569Y-139773325D01*
X149159883Y-139739898D01*
X149157874Y-139713274D01*
X149155514Y-139692014D01*
X149152776Y-139674682D01*
X149149632Y-139659842D01*
X149148230Y-139654186D01*
X149102689Y-139516730D01*
X149040059Y-139391057D01*
X148961127Y-139278123D01*
X148866676Y-139178885D01*
X148757495Y-139094302D01*
X148634367Y-139025331D01*
X148630678Y-139023611D01*
X148557450Y-138991996D01*
X148491548Y-138969585D01*
X148426361Y-138955003D01*
X148355282Y-138946879D01*
X148271701Y-138943839D01*
X148246042Y-138943712D01*
X148157704Y-138945629D01*
%TO.C,J3*%
D13*
X113363333Y-154519380D02*
X113363333Y-155233666D01*
X113410952Y-155376523D01*
X113506190Y-155471761D01*
X113649047Y-155519380D01*
X113744285Y-155519380D01*
X112982380Y-154519380D02*
X112363333Y-154519380D01*
X112696666Y-154900333D01*
X112553809Y-154900333D01*
X112458571Y-154947952D01*
X112410952Y-154995571D01*
X112363333Y-155090809D01*
X112363333Y-155328904D01*
X112410952Y-155424142D01*
X112458571Y-155471761D01*
X112553809Y-155519380D01*
X112839523Y-155519380D01*
X112934761Y-155471761D01*
X112982380Y-155424142D01*
%TO.C,J1*%
X113423666Y-123912380D02*
X113423666Y-124626666D01*
X113461761Y-124769523D01*
X113537952Y-124864761D01*
X113652238Y-124912380D01*
X113728428Y-124912380D01*
X112623666Y-124912380D02*
X113080809Y-124912380D01*
X112852238Y-124912380D02*
X112852238Y-123912380D01*
X112928428Y-124055238D01*
X113004619Y-124150476D01*
X113080809Y-124198095D01*
%TO.C,J2*%
X113423666Y-139152380D02*
X113423666Y-139866666D01*
X113461761Y-140009523D01*
X113537952Y-140104761D01*
X113652238Y-140152380D01*
X113728428Y-140152380D01*
X113080809Y-139247619D02*
X113042714Y-139200000D01*
X112966523Y-139152380D01*
X112776047Y-139152380D01*
X112699857Y-139200000D01*
X112661761Y-139247619D01*
X112623666Y-139342857D01*
X112623666Y-139438095D01*
X112661761Y-139580952D01*
X113118904Y-140152380D01*
X112623666Y-140152380D01*
%TD*%
M02*
