%TF.GenerationSoftware,KiCad,Pcbnew,(5.1.7-0-10_14)*%
%TF.CreationDate,2021-01-17T02:16:49+01:00*%
%TF.ProjectId,CP-PP-miniEVsimulator,43502d50-502d-46d6-996e-69455673696d,rev?*%
%TF.SameCoordinates,Original*%
%TF.FileFunction,Soldermask,Bot*%
%TF.FilePolarity,Negative*%
%FSLAX46Y46*%
G04 Gerber Fmt 4.6, Leading zero omitted, Abs format (unit mm)*
G04 Created by KiCad (PCBNEW (5.1.7-0-10_14)) date 2021-01-17 02:16:49*
%MOMM*%
%LPD*%
G01*
G04 APERTURE LIST*
%ADD10C,2.200000*%
%ADD11C,0.500000*%
%ADD12O,3.000000X1.500000*%
%ADD13O,4.400000X3.000000*%
%ADD14O,1.600000X1.600000*%
%ADD15C,1.600000*%
%ADD16C,1.500000*%
%ADD17R,1.800000X1.800000*%
%ADD18O,1.800000X1.800000*%
G04 APERTURE END LIST*
D10*
%TO.C,REF\u002A\u002A*%
X156845000Y-132080000D03*
%TD*%
D11*
%TO.C,mouse-bite-in-2mm-slot*%
X154305000Y-142938500D03*
%TD*%
%TO.C,mouse-bite-in-2mm-slot*%
X150558500Y-142938500D03*
%TD*%
%TO.C,mouse-bite-in-2mm-slot*%
X141541500Y-142938500D03*
%TD*%
%TO.C,mouse-bite-in-2mm-slot*%
X137795000Y-142938500D03*
%TD*%
%TO.C,mouse-bite-in-2mm-slot*%
X128968500Y-142938500D03*
%TD*%
%TO.C,mouse-bite-in-2mm-slot*%
X125158500Y-142938500D03*
%TD*%
%TO.C,mouse-bite-in-2mm-slot*%
X116141500Y-142938500D03*
%TD*%
%TO.C,mouse-bite-in-2mm-slot*%
X112331500Y-142938500D03*
%TD*%
%TO.C,mouse-bite-in-2mm-slot*%
X99631500Y-142938500D03*
%TD*%
%TO.C,mouse-bite-in-2mm-slot*%
X103568500Y-142938500D03*
%TD*%
%TO.C,mouse-bite-in-2mm-slot*%
X96520000Y-142938500D03*
%TD*%
%TO.C,mouse-bite-in-2mm-slot*%
X93027500Y-142938500D03*
%TD*%
%TO.C,mouse-bite-in-2mm-slot*%
X92392500Y-142938500D03*
%TD*%
%TO.C,mouse-bite-in-2mm-slot*%
X97155000Y-142938500D03*
%TD*%
%TO.C,mouse-bite-in-2mm-slot*%
X99060000Y-142938500D03*
%TD*%
%TO.C,mouse-bite-in-2mm-slot*%
X98425000Y-142938500D03*
%TD*%
%TO.C,mouse-bite-in-2mm-slot*%
X97790000Y-142938500D03*
%TD*%
%TO.C,mouse-bite-in-2mm-slot*%
X104838500Y-142938500D03*
%TD*%
%TO.C,mouse-bite-in-2mm-slot*%
X104203500Y-142938500D03*
%TD*%
%TO.C,mouse-bite-in-2mm-slot*%
X109791500Y-142938500D03*
%TD*%
%TO.C,mouse-bite-in-2mm-slot*%
X109156500Y-142938500D03*
%TD*%
%TO.C,mouse-bite-in-2mm-slot*%
X111696500Y-142938500D03*
%TD*%
%TO.C,mouse-bite-in-2mm-slot*%
X111061500Y-142938500D03*
%TD*%
%TO.C,mouse-bite-in-2mm-slot*%
X110426500Y-142938500D03*
%TD*%
%TO.C,mouse-bite-in-2mm-slot*%
X106743500Y-142938500D03*
%TD*%
%TO.C,mouse-bite-in-2mm-slot*%
X106108500Y-142938500D03*
%TD*%
%TO.C,mouse-bite-in-2mm-slot*%
X105473500Y-142938500D03*
%TD*%
%TO.C,mouse-bite-in-2mm-slot*%
X116776500Y-142938500D03*
%TD*%
%TO.C,mouse-bite-in-2mm-slot*%
X118046500Y-142938500D03*
%TD*%
%TO.C,mouse-bite-in-2mm-slot*%
X117411500Y-142938500D03*
%TD*%
%TO.C,mouse-bite-in-2mm-slot*%
X123253500Y-142938500D03*
%TD*%
%TO.C,mouse-bite-in-2mm-slot*%
X124523500Y-142938500D03*
%TD*%
%TO.C,mouse-bite-in-2mm-slot*%
X123888500Y-142938500D03*
%TD*%
%TO.C,mouse-bite-in-2mm-slot*%
X120967500Y-142938500D03*
%TD*%
%TO.C,mouse-bite-in-2mm-slot*%
X120332500Y-142938500D03*
%TD*%
%TO.C,mouse-bite-in-2mm-slot*%
X160020000Y-142938500D03*
%TD*%
%TO.C,mouse-bite-in-2mm-slot*%
X161290000Y-142938500D03*
%TD*%
%TO.C,mouse-bite-in-2mm-slot*%
X160655000Y-142938500D03*
%TD*%
%TO.C,mouse-bite-in-2mm-slot*%
X157480000Y-142938500D03*
%TD*%
%TO.C,mouse-bite-in-2mm-slot*%
X159385000Y-142938500D03*
%TD*%
%TO.C,mouse-bite-in-2mm-slot*%
X158750000Y-142938500D03*
%TD*%
%TO.C,mouse-bite-in-2mm-slot*%
X158115000Y-142938500D03*
%TD*%
%TO.C,mouse-bite-in-2mm-slot*%
X154940000Y-142938500D03*
%TD*%
%TO.C,mouse-bite-in-2mm-slot*%
X156845000Y-142938500D03*
%TD*%
%TO.C,mouse-bite-in-2mm-slot*%
X156210000Y-142938500D03*
%TD*%
%TO.C,mouse-bite-in-2mm-slot*%
X155575000Y-142938500D03*
%TD*%
%TO.C,mouse-bite-in-2mm-slot*%
X146367500Y-142938500D03*
%TD*%
%TO.C,mouse-bite-in-2mm-slot*%
X145732500Y-142938500D03*
%TD*%
%TO.C,mouse-bite-in-2mm-slot*%
X149923500Y-142938500D03*
%TD*%
%TO.C,mouse-bite-in-2mm-slot*%
X149288500Y-142938500D03*
%TD*%
%TO.C,mouse-bite-in-2mm-slot*%
X148653500Y-142938500D03*
%TD*%
%TO.C,mouse-bite-in-2mm-slot*%
X143446500Y-142938500D03*
%TD*%
%TO.C,mouse-bite-in-2mm-slot*%
X142811500Y-142938500D03*
%TD*%
%TO.C,mouse-bite-in-2mm-slot*%
X142176500Y-142938500D03*
%TD*%
%TO.C,mouse-bite-in-2mm-slot*%
X135255000Y-142938500D03*
%TD*%
%TO.C,mouse-bite-in-2mm-slot*%
X134620000Y-142938500D03*
%TD*%
%TO.C,mouse-bite-in-2mm-slot*%
X137160000Y-142938500D03*
%TD*%
%TO.C,mouse-bite-in-2mm-slot*%
X136525000Y-142938500D03*
%TD*%
%TO.C,mouse-bite-in-2mm-slot*%
X135890000Y-142938500D03*
%TD*%
%TO.C,mouse-bite-in-2mm-slot*%
X132143500Y-142938500D03*
%TD*%
%TO.C,mouse-bite-in-2mm-slot*%
X131508500Y-142938500D03*
%TD*%
%TO.C,mouse-bite-in-2mm-slot*%
X130873500Y-142938500D03*
%TD*%
%TO.C,mouse-bite-in-2mm-slot*%
X130238500Y-142938500D03*
%TD*%
%TO.C,mouse-bite-in-2mm-slot*%
X129603500Y-142938500D03*
%TD*%
D12*
%TO.C,REF\u002A\u002A*%
X94615000Y-134330000D03*
X94615000Y-129830000D03*
%TD*%
D10*
%TO.C,REF\u002A\u002A*%
X156845000Y-147320000D03*
%TD*%
%TO.C,REF\u002A\u002A*%
X106172000Y-147320000D03*
%TD*%
%TO.C,REF\u002A\u002A*%
X118872000Y-147320000D03*
%TD*%
%TO.C,REF\u002A\u002A*%
X131318000Y-147320000D03*
%TD*%
%TO.C,REF\u002A\u002A*%
X144018000Y-147320000D03*
%TD*%
D13*
%TO.C,S10*%
X152400000Y-142620000D03*
X152400000Y-147320000D03*
X152400000Y-152020000D03*
%TD*%
%TO.C,S9*%
X139700000Y-142620000D03*
X139700000Y-147320000D03*
X139700000Y-152020000D03*
%TD*%
%TO.C,S8*%
X127000000Y-142620000D03*
X127000000Y-147320000D03*
X127000000Y-152020000D03*
%TD*%
%TO.C,S7*%
X114300000Y-142620000D03*
X114300000Y-147320000D03*
X114300000Y-152020000D03*
%TD*%
%TO.C,S6*%
X101600000Y-142620000D03*
X101600000Y-147320000D03*
X101600000Y-152020000D03*
%TD*%
D14*
%TO.C,R10*%
X147574000Y-150368000D03*
D15*
X147574000Y-142748000D03*
%TD*%
D14*
%TO.C,R9*%
X144526000Y-150368000D03*
D15*
X144526000Y-142748000D03*
%TD*%
D14*
%TO.C,R8*%
X133350000Y-150368000D03*
D15*
X133350000Y-142748000D03*
%TD*%
D14*
%TO.C,Ra7*%
X119126000Y-150241000D03*
D15*
X119126000Y-142621000D03*
%TD*%
D14*
%TO.C,R7*%
X122174000Y-150241000D03*
D15*
X122174000Y-142621000D03*
%TD*%
D14*
%TO.C,R6*%
X107950000Y-150241000D03*
D15*
X107950000Y-142621000D03*
%TD*%
D16*
%TO.C,J3*%
X103570000Y-154940000D03*
G36*
G01*
X116320000Y-155940000D02*
X114820000Y-155940000D01*
G75*
G02*
X114570000Y-155690000I0J250000D01*
G01*
X114570000Y-154190000D01*
G75*
G02*
X114820000Y-153940000I250000J0D01*
G01*
X116320000Y-153940000D01*
G75*
G02*
X116570000Y-154190000I0J-250000D01*
G01*
X116570000Y-155690000D01*
G75*
G02*
X116320000Y-155940000I-250000J0D01*
G01*
G37*
%TD*%
%TO.C,J1*%
G36*
G01*
X116320000Y-125460000D02*
X114820000Y-125460000D01*
G75*
G02*
X114570000Y-125210000I0J250000D01*
G01*
X114570000Y-123710000D01*
G75*
G02*
X114820000Y-123460000I250000J0D01*
G01*
X116320000Y-123460000D01*
G75*
G02*
X116570000Y-123710000I0J-250000D01*
G01*
X116570000Y-125210000D01*
G75*
G02*
X116320000Y-125460000I-250000J0D01*
G01*
G37*
X103570000Y-124460000D03*
%TD*%
D17*
%TO.C,D5*%
X146050000Y-135890000D03*
D18*
X146050000Y-128270000D03*
%TD*%
D15*
%TO.C,R1*%
X133350000Y-135890000D03*
D14*
X133350000Y-128270000D03*
%TD*%
D15*
%TO.C,R2*%
X106426000Y-135890000D03*
D14*
X106426000Y-128270000D03*
%TD*%
D15*
%TO.C,Ra2*%
X109410500Y-135890000D03*
D14*
X109410500Y-128270000D03*
%TD*%
D15*
%TO.C,R3*%
X119126000Y-135890000D03*
D14*
X119126000Y-128270000D03*
%TD*%
D15*
%TO.C,R4*%
X122174000Y-135890000D03*
D14*
X122174000Y-128270000D03*
%TD*%
%TO.C,J2*%
G36*
G01*
X116320000Y-140700000D02*
X114820000Y-140700000D01*
G75*
G02*
X114570000Y-140450000I0J250000D01*
G01*
X114570000Y-138950000D01*
G75*
G02*
X114820000Y-138700000I250000J0D01*
G01*
X116320000Y-138700000D01*
G75*
G02*
X116570000Y-138950000I0J-250000D01*
G01*
X116570000Y-140450000D01*
G75*
G02*
X116320000Y-140700000I-250000J0D01*
G01*
G37*
D16*
X103570000Y-139700000D03*
%TD*%
D13*
%TO.C,S2*%
X114300000Y-136780000D03*
X114300000Y-132080000D03*
X114300000Y-127380000D03*
%TD*%
%TO.C,S3*%
X127000000Y-136780000D03*
X127000000Y-132080000D03*
X127000000Y-127380000D03*
%TD*%
%TO.C,S4*%
X139700000Y-136780000D03*
X139700000Y-132080000D03*
X139700000Y-127380000D03*
%TD*%
%TO.C,S5*%
X152400000Y-136780000D03*
X152400000Y-132080000D03*
X152400000Y-127380000D03*
%TD*%
%TO.C,S1*%
X101600000Y-136780000D03*
X101600000Y-132080000D03*
X101600000Y-127380000D03*
%TD*%
D12*
%TO.C,REF\u002A\u002A*%
X94615000Y-137450000D03*
X94615000Y-141950000D03*
%TD*%
D10*
%TO.C,REF\u002A\u002A*%
X144145000Y-132080000D03*
%TD*%
%TO.C,REF\u002A\u002A*%
X131445000Y-132080000D03*
%TD*%
%TO.C,REF\u002A\u002A*%
X118745000Y-132080000D03*
%TD*%
%TO.C,REF\u002A\u002A*%
X106045000Y-132080000D03*
%TD*%
M02*
