M48
; DRILL file {KiCad (5.1.7-0-10_14)} date Sunday, January 17, 2021 at 02:16:54 AM
; FORMAT={-:-/ absolute / inch / decimal}
; #@! TF.CreationDate,2021-01-17T02:16:54+01:00
; #@! TF.GenerationSoftware,Kicad,Pcbnew,(5.1.7-0-10_14)
FMAT,2
INCH
T1C0.0315
T2C0.0335
T3C0.0354
T4C0.0394
T5C0.0157
T6C0.0591
T7C0.0866
%
G90
G05
T1
X5.81Y-5.62
X5.81Y-5.92
X4.25Y-5.915
X4.81Y-5.05
X4.81Y-5.35
X5.69Y-5.92
X4.3075Y-5.05
X4.3075Y-5.35
X5.25Y-5.05
X5.25Y-5.35
X4.69Y-5.05
X4.69Y-5.35
X4.19Y-5.05
X4.19Y-5.35
X4.25Y-5.615
X4.69Y-5.615
X4.69Y-5.915
X5.69Y-5.62
X4.81Y-5.615
X4.81Y-5.915
X5.25Y-5.62
X5.25Y-5.92
T2
X4.55Y-4.9
X4.55Y-6.1
X4.55Y-5.5
T3
X5.75Y-5.05
X5.75Y-5.35
T5
X4.5975Y-5.6275
X5.6475Y-5.6275
X5.2025Y-5.6275
X5.1275Y-5.6275
X4.8775Y-5.6275
X6.325Y-5.6275
X5.425Y-5.6275
X3.9225Y-5.6275
X3.825Y-5.6275
X6.25Y-5.6275
X4.3975Y-5.6275
X6.175Y-5.6275
X5.9025Y-5.6275
X4.1775Y-5.6275
X4.8525Y-5.6275
X5.325Y-5.6275
X5.375Y-5.6275
X6.3Y-5.6275
X5.9275Y-5.6275
X4.5725Y-5.6275
X3.6625Y-5.6275
X3.85Y-5.6275
X4.3225Y-5.6275
X5.7625Y-5.6275
X4.3475Y-5.6275
X4.6475Y-5.6275
X5.6225Y-5.6275
X4.9025Y-5.6275
X5.1775Y-5.6275
X5.1025Y-5.6275
X4.7625Y-5.6275
X6.2Y-5.6275
X5.0775Y-5.6275
X4.0775Y-5.6275
X3.9Y-5.6275
X6.225Y-5.6275
X4.1275Y-5.6275
X4.3725Y-5.6275
X6.15Y-5.6275
X5.8775Y-5.6275
X4.1525Y-5.6275
X5.3Y-5.6275
X5.35Y-5.6275
X5.1525Y-5.6275
X6.35Y-5.6275
X5.5725Y-5.6275
X4.4225Y-5.6275
X3.6375Y-5.6275
X6.275Y-5.6275
X4.2975Y-5.6275
X5.7375Y-5.6275
X4.2025Y-5.6275
X4.6225Y-5.6275
X5.5975Y-5.6275
X5.4Y-5.6275
X4.7375Y-5.6275
X6.075Y-5.6275
X4.9275Y-5.6275
X3.8Y-5.6275
X3.875Y-5.6275
X6.1Y-5.6275
X4.1025Y-5.6275
X6.125Y-5.6275
X5.8525Y-5.6275
T6
X4.0776Y-4.9
X4.0776Y-6.1
X4.0776Y-5.5
T7
X6.175Y-5.8
X5.67Y-5.8
X5.675Y-5.2
X4.175Y-5.2
X6.175Y-5.2
X4.18Y-5.8
X5.175Y-5.2
X4.68Y-5.8
X5.17Y-5.8
X4.675Y-5.2
T4
G00X3.9724Y-5.015
M15
G01X4.0276Y-5.015
M16
G05
G00X3.9724Y-5.2
M15
G01X4.0276Y-5.2
M16
G05
G00X3.9724Y-5.385
M15
G01X4.0276Y-5.385
M16
G05
G00X4.9724Y-5.015
M15
G01X5.0276Y-5.015
M16
G05
G00X4.9724Y-5.2
M15
G01X5.0276Y-5.2
M16
G05
G00X4.9724Y-5.385
M15
G01X5.0276Y-5.385
M16
G05
G00X4.9724Y-5.615
M15
G01X5.0276Y-5.615
M16
G05
G00X4.9724Y-5.8
M15
G01X5.0276Y-5.8
M16
G05
G00X4.9724Y-5.985
M15
G01X5.0276Y-5.985
M16
G05
G00X5.9724Y-5.615
M15
G01X6.0276Y-5.615
M16
G05
G00X5.9724Y-5.8
M15
G01X6.0276Y-5.8
M16
G05
G00X5.9724Y-5.985
M15
G01X6.0276Y-5.985
M16
G05
G00X5.4724Y-5.015
M15
G01X5.5276Y-5.015
M16
G05
G00X5.4724Y-5.2
M15
G01X5.5276Y-5.2
M16
G05
G00X5.4724Y-5.385
M15
G01X5.5276Y-5.385
M16
G05
G00X4.4724Y-5.615
M15
G01X4.5276Y-5.615
M16
G05
G00X4.4724Y-5.8
M15
G01X4.5276Y-5.8
M16
G05
G00X4.4724Y-5.985
M15
G01X4.5276Y-5.985
M16
G05
G00X4.4724Y-5.015
M15
G01X4.5276Y-5.015
M16
G05
G00X4.4724Y-5.2
M15
G01X4.5276Y-5.2
M16
G05
G00X4.4724Y-5.385
M15
G01X4.5276Y-5.385
M16
G05
G00X5.4724Y-5.615
M15
G01X5.5276Y-5.615
M16
G05
G00X5.4724Y-5.8
M15
G01X5.5276Y-5.8
M16
G05
G00X5.4724Y-5.985
M15
G01X5.5276Y-5.985
M16
G05
G00X5.9724Y-5.015
M15
G01X6.0276Y-5.015
M16
G05
G00X5.9724Y-5.2
M15
G01X6.0276Y-5.2
M16
G05
G00X5.9724Y-5.385
M15
G01X6.0276Y-5.385
M16
G05
G00X3.9724Y-5.615
M15
G01X4.0276Y-5.615
M16
G05
G00X3.9724Y-5.8
M15
G01X4.0276Y-5.8
M16
G05
G00X3.9724Y-5.985
M15
G01X4.0276Y-5.985
M16
G05
T6
G00X3.6955Y-5.1114
M15
G01X3.7545Y-5.1114
M16
G05
G00X3.6955Y-5.2886
M15
G01X3.7545Y-5.2886
M16
G05
G00X3.6955Y-5.4114
M15
G01X3.7545Y-5.4114
M16
G05
G00X3.6955Y-5.5886
M15
G01X3.7545Y-5.5886
M16
G05
T0
M30
